<svg width="150" height="150" viewBox="0 0 150 150" fill="none" xmlns="http://www.w3.org/2000/svg">
<rect x="2.5" y="2.5" width="145" height="145" rx="72.5" fill="#FEE8D4"/>
<rect x="2.5" y="2.5" width="145" height="145" rx="72.5" stroke="#D19E7B" stroke-width="5"/>
<path d="M45.9 79.163H54.5L36.8333 97.8043H46.4333L32 112H68V123H81.6333V112H117L102 98H111.5L94.5 79.163H103.5L90.3333 63.1848L100 63.5L82 44.5H90.3333L74 27L59.5 44.5H67.5L51 62.6522H61L45.9 79.163Z" fill="#0F261E" stroke="#0F261E" stroke-width="2.5" stroke-linejoin="round"/>
<path d="M86 87L72.4436 103L66 94.9996" stroke="#FEE8D4" stroke-width="3" stroke-linecap="round" stroke-linejoin="round"/>
<path d="M60.7555 73.68L70.3555 62.904L70.3315 59.88L63.0355 60.384L63.2275 64.68L60.9475 64.8L60.7555 58.44L72.5635 57.744L72.5875 63.696L64.0195 73.248L73.4755 72.432L73.5715 74.568L60.8275 75.432L60.7555 73.68ZM78.556 67.224L76.468 67.248L76.324 58.8L88.3 57.624L88.516 59.592L78.364 60.6L78.556 67.224ZM76.012 73.584L86.548 72.504L86.308 68.016L79.132 67.272L79.564 65.256L88.324 66.12L88.732 74.352L76.204 75.648L76.012 73.584Z" fill="#D19E7B"/>
</svg>
