<svg width="150" height="150" viewBox="0 0 150 150" fill="none" xmlns="http://www.w3.org/2000/svg">
<rect x="2.5" y="2.5" width="145" height="145" rx="72.5" fill="#FEE8D4"/>
<rect x="2.5" y="2.5" width="145" height="145" rx="72.5" stroke="#D19E7B" stroke-width="5"/>
<path d="M45.9 79.163H54.5L36.8333 97.8043H46.4333L32 112H68V123H81.6333V112H117L102 98H111.5L94.5 79.163H103.5L90.3333 63.1848L100 63.5L82 44.5H90.3333L74 27L59.5 44.5H67.5L51 62.6522H61L45.9 79.163Z" fill="#0F261E" stroke="#0F261E" stroke-width="2.5" stroke-linejoin="round"/>
<path d="M86 87L72.4436 103L66 94.9996" stroke="#FEE8D4" stroke-width="3" stroke-linecap="round" stroke-linejoin="round"/>
<path d="M78.0078 59.976L68.1678 60.6L68.0478 58.584L79.8318 57.912L80.9838 59.616L75.8238 65.712L73.9998 64.536L78.0078 59.976ZM68.2158 73.488L78.9678 72.6L78.8238 68.88L70.9998 67.272L71.5038 65.232L80.8398 67.104L81.1278 74.472L68.3598 75.576L68.2158 73.488Z" fill="#D19E7B"/>
</svg>
