<svg width="150" height="150" viewBox="0 0 150 150" fill="none" xmlns="http://www.w3.org/2000/svg">
<rect x="2.5" y="2.5" width="145" height="145" rx="72.5" fill="#FEE8D4"/>
<rect x="2.5" y="2.5" width="145" height="145" rx="72.5" stroke="#D19E7B" stroke-width="5"/>
<path d="M45.9 79.163H54.5L36.8333 97.8043H46.4333L32 112H68V123H81.6333V112H117L102 98H111.5L94.5 79.163H103.5L90.3333 63.1848L100 63.5L82 44.5H90.3333L74 27L59.5 44.5H67.5L51 62.6522H61L45.9 79.163Z" fill="#0F261E" stroke="#0F261E" stroke-width="2.5" stroke-linejoin="round"/>
<path d="M86 87L72.4436 103L66 94.9996" stroke="#FEE8D4" stroke-width="3" stroke-linecap="round" stroke-linejoin="round"/>
<path d="M70.6398 67.224L68.5518 67.248L68.4078 58.8L80.3838 57.624L80.5998 59.592L70.4478 60.6L70.6398 67.224ZM68.0958 73.584L78.6318 72.504L78.3918 68.016L71.2158 67.272L71.6478 65.256L80.4078 66.12L80.8158 74.352L68.2878 75.648L68.0958 73.584Z" fill="#D19E7B"/>
</svg>
