<svg width="150" height="150" viewBox="0 0 150 150" fill="none" xmlns="http://www.w3.org/2000/svg">
<g clip-path="url(#clip0_530_674)">
<rect width="150" height="150" rx="75" fill="#FEE8D4"/>
<path d="M196.386 102.284C195.538 102.615 190.788 103.323 189.727 105.363C188.667 107.404 194.52 109.318 194.52 109.318C193.545 110.733 193.036 113.187 193.036 113.187L186.928 108.484H188.243L182.559 103.241L185.867 104.365L181.583 99.3713C181.583 99.3713 186.801 99.2861 188.328 100.369C189.854 101.453 188.582 97.2076 187.479 96.3326C190.66 97.1223 194.775 96.3326 194.775 96.3326C194.775 96.3326 192.357 98.2879 190.83 99.4535C189.303 100.619 189.897 101.617 193.757 101.118C197.617 100.619 198.295 100.369 198.295 100.369C198.295 100.369 197.235 101.952 196.386 102.284ZM151.723 94.9365L147.333 93.1897C147.333 93.1897 154.077 93.0634 156.113 92.0652C155.031 93.3161 151.723 94.9365 151.723 94.9365ZM150.705 101.055L147.333 99.3713H152.932L150.705 101.055ZM147.333 107.173L145.042 104.927H148.86L147.333 107.173ZM100.378 104.738L99.6151 102.742L101.524 100.682L104.005 103.178L100.378 104.738ZM17.7952 126.903C17.7952 126.903 14.9957 125.841 13.0233 123.22C16.5228 124.53 21.7399 123.842 21.7399 123.842L17.7952 126.903ZM10.0966 109.609L13.6597 109.858L12.0689 111.545L10.0966 109.609ZM3.92534 115.165C2.52538 113.791 2.27107 112.23 2.27107 112.23L6.59748 114.479C6.59748 114.479 5.1341 114.792 3.92534 115.165ZM241.991 149.235C241.614 146.19 238.794 154.494 222.615 142.311C231.41 144.133 235.218 141.297 237.478 139.705C232.61 141.019 231.056 139.152 231.056 139.152C231.056 139.152 240.581 135.899 239.805 133.198C239.029 130.5 238.675 136.451 228.236 133.198C217.796 129.944 217.372 124.132 217.372 124.132C217.372 124.132 219.066 123.646 219.207 122.332C223.687 124.372 229.33 123.163 231.304 121.845C226.401 122.158 223.897 120.083 223.897 120.083C223.897 120.083 226.72 118.213 227.846 116.068C225.696 117.209 218.525 115.133 213.305 106.826C219.23 106.551 221.534 103.967 218.995 102.211C222.193 102.628 225.767 100.183 225.438 99.3966C222.334 100.275 218.196 99.8135 217.161 98.5658C216.126 97.3213 213.634 94.2763 213.634 94.2763C213.634 94.2763 215.703 95.0597 216.949 94.5512C218.196 94.0458 218.266 93.3066 219.089 93.5593C219.912 93.8152 220.476 93.3066 219.935 92.359C219.395 91.4145 219.042 90.9313 217.749 90.4006C216.456 89.8699 214.668 88.5085 213.987 85.6246C213.305 82.7407 212.27 82.785 212.27 82.785C212.27 82.785 212.47 68.7224 209.331 68.4129C206.192 68.1002 208.167 76.0949 205.416 79.2093C202.665 82.3238 202.277 83.0851 199.597 83.1893C196.916 83.2935 197.798 86.1301 200.302 86.6165C198.979 87.343 195.505 86.7555 195.505 86.7555C195.505 86.7555 196.687 87.8452 198.062 88.259C199.438 88.676 201.766 88.5875 201.766 88.5875C201.766 88.5875 201.307 90.925 203.106 91.5978C202.894 92.7412 197.992 94.7659 197.992 94.7659C197.992 94.7659 201.254 92.4633 200.108 91.4777C198.962 90.4922 198.151 91.4619 196.599 91.7557C195.047 92.0495 194.682 91.9231 191.72 91.3672C188.757 90.8144 187.376 90.1795 184.766 88.537C182.156 86.8913 179.634 83.7768 179.634 83.7768L182.086 83.8116L180.357 82.0458C180.357 82.0458 184.678 82.289 187.288 81.9448C189.898 81.5973 191.555 80.5234 191.132 79.2788C190.709 78.0311 189.686 78.0659 188.275 77.7563C186.864 77.4436 186.406 76.4865 184.924 75.9337C183.443 75.3778 182.479 76.0254 181.374 74.8472C180.269 73.6721 174.955 71.0188 173.474 68.2739C176.507 69.0099 179.634 67.3737 179.47 66.2207C179.305 65.0647 178.247 65.9649 177.024 65.8512C175.802 65.7343 175.402 64.2339 175.402 64.2339C175.402 64.2339 177.612 64.951 179.705 64.3287C181.797 63.7033 182.291 61.5806 182.103 61.1889C181.915 60.7973 181.209 60.9141 179.775 61.0499C178.341 61.1889 176.554 60.5193 176.319 59.1832C176.084 57.8439 174.649 56.1129 173.262 55.6517C174.649 55.2379 174.696 54.0597 174.696 54.0597C174.696 54.0597 175.637 55.4211 177.33 55.0516C179.023 54.682 178.552 52.5151 177.565 51.6844C176.577 50.8536 175.59 50.0229 174.885 47.5307C174.179 45.0385 173.051 44.0245 173.051 42.3157C173.051 40.61 171.545 33.7809 169.994 33.9199C168.442 34.0557 168.959 36.8258 168.912 37.5176C168.865 38.2094 167.783 39.7319 167.689 41.9461C167.595 44.1635 164.069 49.5144 163.269 51.0842C162.47 52.6541 157.72 52.054 157.438 55.2822C157.156 58.5135 161.388 55.3769 161.388 56.713C161.388 58.0523 159.131 59.2526 156.45 59.758C153.77 60.2666 155.086 60.7752 152.97 61.3753C150.854 61.9755 149.914 63.9591 149.867 64.8341C147.774 64.5119 146.669 63.7033 146.669 63.7033C146.669 63.7033 146.857 64.3982 147.327 64.8815C145.705 65.0426 145.399 64.6035 145.399 64.6035C145.399 64.6035 145.963 66.3123 148.997 66.4513C152.03 66.5903 152.994 67.6959 155.392 67.4432C153.511 68.2739 152.453 69.8185 151.019 69.9575C149.584 70.0965 146.175 70.5103 144.482 72.2633C142.789 74.0164 142.202 72.9583 142.225 74.2723C142.249 75.5863 143.118 74.9419 143.847 75.2167C144.576 75.4947 146.175 76.3033 148.362 76.3949C150.549 76.4865 151.372 75.8422 151.372 75.8422C151.372 75.8422 151.301 77.8005 152.524 78.2396C151.936 79.8095 151.113 79.9927 150.125 80.0401C149.138 80.0874 148.315 80.6402 148.362 81.4931C148.409 82.3459 149.185 82.8545 150.854 82.8545C152.524 82.8545 155.604 82.2543 155.604 82.2543C155.604 82.2543 151.454 88.2085 143.871 90.4575L142.777 90.0058C142.777 90.0058 143.8 89.0739 143.765 88.1042C147.257 87.8263 149.514 86.4427 149.161 85.2298C148.809 84.02 146.163 85.9247 142.002 81.771C137.84 77.6173 137.205 75.9906 136.746 74.9861C136.288 73.9848 135.265 73.6374 135.265 73.6374C135.265 73.6374 137.381 73.3941 139.004 72.9804C140.626 72.5634 140.943 71.3536 140.344 70.6271C139.744 69.9006 139.286 69.9701 138.651 69.9701C138.016 69.9701 137.187 69.1047 136.376 69.0352C135.565 68.9657 135.265 68.4476 135.283 67.7527C135.3 67.061 134.754 66.663 134.56 66.6819C134.365 66.6977 135.195 65.3142 134.401 64.7614C133.607 64.2055 133.554 64.136 133.572 63.8612C133.59 63.5832 134.683 62.822 134.436 61.9913C134.189 61.1605 134.719 61.1952 134.56 60.3298C134.401 59.4643 134.242 59.1705 134.295 58.1155C134.348 57.0605 133.766 56.6435 133.801 55.7275C133.837 54.8115 134.101 51.1064 133.184 50.9863C132.267 50.8663 131.914 52.1614 131.862 53.4786C131.809 54.7926 130.627 57.5975 130.098 58.5483C129.569 59.499 129.375 60.573 129.499 61.091C129.622 61.6122 128.793 62.3387 128.881 62.9957C128.969 63.6527 129.393 63.757 129.393 64.4487C129.393 65.1405 128.07 66.2144 126.712 66.4576C125.354 66.6977 124.666 66.1797 124.12 66.7514C123.573 67.32 123.926 68.514 125.037 69.0162C126.148 69.5184 126.835 70.0712 127.717 69.9354C125.178 71.9949 122.533 72.8224 121.246 72.2349C119.958 71.6474 120.275 72.3581 119.305 72.1496C118.336 71.9412 116.607 71.5084 116.607 71.5084C116.607 71.5084 118.935 74.1207 120.91 74.6419C119.552 75.4536 116.149 75.5579 116.149 75.5579C116.149 75.5579 118.6 76.2149 119.288 76.7708C119.976 77.3236 125.707 76.7866 125.707 76.7866C125.707 76.7866 124.966 77.8479 123.297 78.7482C121.628 79.6484 120.123 80.4096 118.923 80.915C117.724 81.4236 115.867 81.8405 114.127 82.3933C112.387 82.9461 111.893 81.9321 111.282 81.8405C110.67 81.7458 110.435 82.1627 109.847 81.771C109.26 81.3793 107.096 81.4931 106.015 80.8708C106.791 83.3377 111.023 86.5691 114.362 87.1693C117.701 87.7694 119.676 87.1471 119.676 87.1471C119.676 87.1471 121.157 88.6002 122.827 88.5086C118.582 92.2232 116.325 93.5024 112.41 93.9162C113.68 91.8062 114.28 91.045 114.103 90.7323C113.927 90.4227 107.754 93.4677 105.145 93.5025C102.535 93.5372 99.4664 93.3635 96.2921 92.119C93.1178 90.8713 87.8276 89.8699 86.5577 87.8263C92.7299 89.9394 96.1862 88.3474 98.7257 88.3474C101.265 88.3474 104.334 86.4428 104.334 86.4428C104.334 86.4428 101.301 85.9942 98.9372 86.13C97.2797 83.224 93.4352 82.567 89.4851 80.6623C97.4561 83.9505 101.371 81.5278 101.371 81.5278C101.371 81.5278 97.7381 79.5915 96.9974 77.2351C100.947 77.3394 106.203 72.5287 106.203 72.5287C106.203 72.5287 92.4479 70.5102 85.1117 64.0507C91.1075 64.3287 98.5139 62.0449 98.5139 58.2355C98.5139 54.4293 98.2319 57.6828 92.1656 56.852C86.099 56.0213 83.8421 54.7768 83.8421 54.7768C83.8421 54.7768 89.4146 54.6378 87.5099 51.3843C94.2818 52.9763 98.1614 52.0761 101.9 48.7531C94.2113 49.5839 89.9789 47.3696 89.9789 47.3696C89.9789 47.3696 94.5638 47.3001 96.4685 44.7384C93.3647 44.2551 91.3898 43.9772 87.0164 43.6329C82.6427 43.2854 82.3607 42.1104 82.3607 42.1104C82.3607 42.1104 86.9926 40.61 86.7576 38.8095C86.5223 37.0091 83.5598 38.62 79.0451 33.9167C82.9485 36.1783 84.9707 34.8864 84.9707 34.8864C84.9707 34.8864 82.4782 32.4416 81.2086 30.7801C79.9387 29.1186 78.5748 27.8267 78.1048 25.7514C77.6345 23.673 78.6221 22.7065 77.6815 21.6451C76.7412 20.5838 77.7285 18 76.4119 18C75.095 18 75.9416 19.1971 75.095 21.184C74.2487 23.1676 73.5434 24.1342 73.5904 26.2126C73.6374 28.2879 68.3234 34.4726 66.5362 39.4097C69.499 38.44 71.2859 36.0867 71.2859 36.0867C71.2859 36.0867 69.6165 40.1488 68.9112 41.6018C68.2059 43.0548 66.936 43.6329 66.2072 45.0164C65.4781 46.3999 64.8198 46.2609 63.5267 46.8168C62.2336 47.3696 62.0218 47.9476 61.9748 48.5478C61.9278 49.1448 62.3276 50.0229 64.0675 50.1398C61.3635 51.498 57.0841 53.368 55.65 54.1513C54.2156 54.9379 55.2029 56.0687 56.4963 56.413C57.7897 56.7604 59.7881 57.2911 62.1631 56.7383C64.5378 56.1824 65.8074 55.4464 65.8074 55.4464C65.8074 55.4464 65.0078 56.3909 64.5613 57.6133C64.1145 58.8357 52.2639 64.4645 47.4672 64.9983C51.3706 66.6566 63.9735 64.5119 67.2888 62.206C62.7509 69.8659 58.307 70.4881 54.7799 71.8022C51.2528 73.1193 48.8546 72.4245 48.0788 73.3942C47.3027 74.3639 47.0912 79.0008 58.0247 79.0703C56.4023 81.5625 53.0162 80.8013 52.0994 82.1848C51.1823 83.5715 51.8879 85.7857 54.9914 86.13C58.0952 86.4775 56.6846 88 56.6846 88C55.6831 89.5067 54.6649 91.2851 53.838 91.6294C53.0107 91.9737 51.0702 90.568 49.8934 90.2553C48.7161 89.9426 46.1712 89.6615 44.8353 87.6652C47.6345 87.7284 50.1158 86.2595 49.6706 85.1035C49.2251 83.9505 46.1712 83.9821 44.4535 82.4817C42.7355 80.9845 41.0497 80.1096 40.0952 78.1133C42.3221 78.7671 44.8671 76.834 44.1354 75.7095C43.4038 74.585 41.1131 75.3652 38.2819 72.6203C41.7813 73.2741 43.9446 71.0883 43.5309 70.1849C43.1173 69.2784 38.3772 69.7459 35.9916 65.5637C37.7305 66.1765 40.4239 65.7817 40.4451 65.1784C40.4664 64.5751 38.1757 64.2213 36.5855 61.4732C34.9946 58.7283 35.8219 57.0415 34.6132 55.8128C34.3161 55.0642 34.2102 46.0556 33.8071 46.0745C33.4041 46.0967 32.5346 50.4651 32.6193 51.8202C32.7043 53.1722 33.0436 54.3788 32.4497 55.4812C31.8561 56.5835 31.8561 57.5406 31.8773 58.4377C31.8982 59.3316 30.9229 59.8307 30.7532 60.4972C30.5836 61.1636 28.505 61.6217 28.5475 62.0986C28.59 62.5788 29.9897 62.8694 30.4139 63.1189C30.8382 63.3684 27.5297 65.3047 25.4299 65.469C23.3304 65.6364 23.9453 66.2808 23.2879 66.2397C22.6306 66.1986 22.4609 65.867 22.3547 66.0312C22.2488 66.1986 22.2063 67.4463 23.4788 67.3863C24.7513 67.3231 24.7938 68.2992 25.8117 68.4034C26.8295 68.5077 27.8902 68.3845 27.8902 68.3845C27.8902 68.3845 27.0629 69.6732 26.2781 69.8817C25.4936 70.0902 24.1577 69.9227 23.9452 70.5482C23.7334 71.1736 24.7301 72.0896 26.0025 72.1307C27.275 72.1718 28.3354 71.7769 28.3354 71.7769C28.3354 71.7769 26.13 73.7321 24.4545 73.8774C22.779 74.0227 20.2978 73.9406 19.8522 74.4618C19.407 74.9798 19.7463 75.7284 21.7399 76.2907C23.7334 76.8529 23.7969 77.5415 23.7969 77.5415C23.7969 77.5415 21.7186 77.7279 21.5702 78.1227C21.4218 78.5176 21.8883 79.4557 23.7334 79.4968C25.5786 79.5378 26.4056 78.9756 26.4056 78.9756C26.4056 78.9756 24.1577 80.3907 22.8215 81.3699C21.4852 82.3459 18.7069 82.1817 17.9437 82.785C17.1801 83.3883 15.6955 83.2209 14.9956 83.284C14.2958 83.3472 13.2355 84.2822 14.6776 85.3656C16.1197 86.4459 19.5342 86.5502 19.5342 86.5502C19.5342 86.5502 17.6678 88.6317 19.9585 89.4025C19.5554 91.0039 14.9107 92.9623 14.3171 93.0634C13.7232 93.1676 12.4507 93.0223 11.7721 93.4393C11.0935 93.8562 10.7967 95.2303 12.8115 95.8525C14.826 96.478 16.1835 98.31 19.0253 98.0383C17.7528 99.1407 13.193 101.036 13.193 101.036C13.193 101.036 8.65445 98.37 6.53374 95.3345C4.41303 92.2958 2.33481 89.5067 1.10449 88.3411C5.93982 89.5888 9.54548 89.5478 11.8783 89.2161C14.2112 88.8813 15.6533 88.4075 15.6533 88C15.6533 87.5925 10.733 86.8439 10.0119 86.5091C11.8571 85.5109 11.56 84.2411 11.56 84.2411C11.56 84.2411 7.99711 85.1982 4.30712 81.8279C0.616801 78.4576 -3.80521 73.3689 -5.30013 68.8109C-0.496669 74.0227 4.6567 76.4897 7.0108 77.4247C9.36489 78.3628 14.3975 79.0988 17.5725 77.5194C11.8146 75.6147 8.12427 72.5887 8.12427 72.5887C8.12427 72.5887 13.6279 70.3713 12.6734 66.5019C8.85595 66.4703 4.33867 65.0331 1.66654 62.7872C-1.0056 60.5382 -1.38738 60.6646 -1.38738 60.6646C-1.38738 60.6646 3.3208 57.7617 1.98457 54.7641C1.6984 54.1703 -1.14337 54.7957 -3.26408 53.4628C-5.38511 52.1298 -5.78782 52.2151 -6.69977 51.0906C-4.81245 51.5075 -1.50391 50.6104 -1.94942 48.8226C-2.39462 47.0316 -5.04583 46.8231 -6.31832 44.9311C-5.83031 44.1825 -5.80906 43.6392 -6.1271 43.1812C-5.08799 42.7263 -4.57906 41.0174 -4.74871 39.9972C-4.91835 38.9801 -6.21209 36.5226 -7.52707 34.9843C-8.84205 33.4429 -9.26601 24.7249 -9.88117 24.7659C-10.496 24.807 -9.88117 26.8665 -10.5385 27.991C-11.1961 29.1155 -11.3867 30.6948 -11.5142 32.132C-11.6413 33.5692 -12.0869 35.1928 -12.9138 36.1057C-13.7408 37.0217 -14.674 37.8145 -14.8012 38.5C-14.9286 39.1886 -16.9434 39.416 -16.9647 40.2057C-16.9856 40.9985 -16.4979 41.9746 -16.0524 42.3915C-15.6072 42.8085 -14.5681 42.8274 -14.5681 42.8274C-14.5681 42.8274 -15.8193 44.6184 -17.9613 45.5344C-20.1033 46.4504 -21.0152 47.4707 -21.1002 48.1151C-21.1849 48.7594 -20.5488 49.6123 -19.2975 49.8618C-18.046 50.1114 -17.9401 50.8 -16.9856 50.8821C-16.0315 50.9642 -16.0102 49.925 -15.3104 49.925C-14.6106 49.925 -14.1013 49.9882 -14.0804 50.2156C-14.0592 50.4462 -16.1799 51.2769 -16.4554 52.2561C-16.7313 53.2353 -18.449 53.4628 -19.5306 53.7944C-20.6122 54.1292 -22.1605 53.8797 -22.4573 54.442C-22.7541 55.0042 -25.1295 56.315 -25.1932 57.0226C-25.2566 57.7301 -22.8604 57.708 -22.2877 58.2703C-21.715 58.8325 -18.2372 59.7896 -17.6433 59.8086C-17.0493 59.8307 -17.0493 59.9981 -17.0493 60.1023C-17.0493 60.2066 -18.852 59.7675 -19.764 60.7878C-20.6759 61.808 -20.5488 62.683 -22.3302 62.3892C-24.1116 62.0986 -24.4934 63.8675 -27.1868 64.2213C-29.8802 64.5751 -40.7705 63.5674 -43.8241 59.5717C-42.3929 62.4745 -40.3569 64.2529 -39.8798 65.4405C-39.4024 66.625 -37.3982 66.3123 -36.0623 67.3737C-34.7261 68.435 -32.3401 70.7472 -31.2585 70.4345C-32.0221 71.2462 -37.2074 72.2444 -39.8476 70.9335C-38.607 72.6803 -35.2988 73.2426 -34.4081 73.868C-33.5174 74.4902 -30.2088 75.0841 -28.5864 74.585C-26.964 74.0859 -23.7829 74.0543 -23.7829 74.0543C-23.7829 74.0543 -23.4012 74.6166 -22.5423 74.4302C-22.8922 75.2104 -25.6915 76.4265 -27.3139 77.9869C-28.9363 79.5473 -38.8616 84.418 -41.9793 84.0737C-41.0886 85.5425 -37.6847 87.0713 -35.076 87.2893C-32.4676 87.5072 -28.1412 87.1029 -28.1412 87.1029C-28.1412 87.1029 -28.0456 89.0392 -31.4176 89.8194C-28.7773 91.3798 -22.8285 90.786 -22.8285 90.786C-22.8285 90.786 -24.8008 91.285 -27.3139 94.0963C-29.827 96.9044 -35.7758 97.3719 -37.1439 98.7459C-38.5117 100.12 -42.711 101.68 -44.2378 101.68C-45.7649 101.68 -50.0913 102.366 -51.0457 101.775C-51.9998 101.181 -53.6222 102.337 -51.1729 105.019C-48.7232 107.704 -47.5782 108.08 -45.1922 108.08C-42.8062 108.08 -37.2711 107.767 -37.2711 107.767C-37.2711 107.767 -44.8742 112.167 -45.0969 112.824C-45.3194 113.481 -44.5558 115.196 -41.4385 114.978C-38.3208 114.761 -31.7041 113.105 -29.509 111.014C-29.7318 112.824 -28.5545 113.292 -27.6957 113.323C-26.8369 113.355 -24.3237 112.512 -21.715 110.108C-23.0513 112.325 -28.6714 119.056 -33.9732 121.804C-39.2753 124.549 -45.1285 125.175 -45.5527 126.422C-45.9767 127.673 -45.7649 129.546 -41.7778 129.796C-37.7906 130.045 -34.9489 130.254 -34.9489 130.254C-34.9489 130.254 -41.5656 137.371 -45.8495 139.784C-50.1338 142.197 -55.0538 142.655 -56.5809 142.282C-58.1077 141.906 -58.7016 143.78 -56.8352 144.819C-54.9691 145.861 -53.6541 146.029 -53.0602 146.442C-52.4666 146.859 -49.7095 146.401 -47.9281 146.941C-46.1467 147.485 -40.1235 145.694 -40.1235 145.694C-40.1235 145.694 -40.7174 146.692 -39.8689 147.526C-43.432 149.648 -43.856 152.393 -45.4678 153.06C-47.0795 153.726 -54.0488 155.824 -55.5904 158H231.081C231.081 158 242.367 152.28 241.991 149.235Z" fill="#0F261E"/>
<path d="M62.408 105.096L57.128 106.312L56.552 103.784L65.224 101.928L65.96 125.544L63.048 125.64L62.408 105.096ZM76.926 107.656L79.806 107.24L81.95 122.408L90.302 122.248L90.814 105.288H76.414L76.542 102.632L93.886 102.664L93.15 124.808L79.39 125.128L76.926 107.656Z" fill="#D19E7B"/>
</g>
<rect x="2.5" y="2.5" width="145" height="145" rx="72.5" stroke="#D19E7B" stroke-width="5"/>
<defs>
<clipPath id="clip0_530_674">
<rect width="150" height="150" rx="75" fill="white"/>
</clipPath>
</defs>
</svg>
