<svg width="150" height="150" viewBox="0 0 150 150" fill="none" xmlns="http://www.w3.org/2000/svg">
<rect x="2.5" y="2.5" width="145" height="145" rx="72.5" fill="#FEE8D4"/>
<rect x="2.5" y="2.5" width="145" height="145" rx="72.5" stroke="#D19E7B" stroke-width="5"/>
<path d="M40.3313 116.306C39.7558 116.033 39.5077 115.47 39.1696 114.969C38.756 114.357 37.7681 114.567 37.7585 115.35C37.7393 116.646 38.9766 117.592 40.2198 117.154C40.5627 117.035 40.7257 116.49 40.3313 116.306Z" fill="#0F261E"/>
<path d="M38.7034 107.18C37.9601 107.853 37.9506 108.773 38.0333 109.704C38.1148 110.616 39.3628 110.612 39.4491 109.704C39.5079 109.061 39.7045 108.476 39.8616 107.855C40.0366 107.163 39.213 106.718 38.7034 107.18Z" fill="#0F261E"/>
<path d="M41.964 99.6292C41.3082 100.509 41.1008 102.074 41.1128 103.152C41.1188 103.672 41.9292 103.978 42.1642 103.437C42.4016 102.896 42.5538 102.322 42.7576 101.767C42.9746 101.177 43.2288 100.618 43.2959 99.9901C43.3811 99.2012 42.3345 99.1293 41.964 99.6292Z" fill="#0F261E"/>
<path d="M45.1138 92.1301C44.4304 92.865 44.253 93.6803 44.1043 94.6538C44.0024 95.3215 44.8884 95.5841 45.1246 94.9343C45.4027 94.1694 45.7612 93.4381 46.0693 92.6864C46.2923 92.1445 45.4842 91.7321 45.1138 92.1301Z" fill="#0F261E"/>
<path d="M48.16 84.1076C47.2884 84.9612 47.1098 86.4442 46.8209 87.5891C46.5991 88.4703 47.7117 88.8383 48.2056 88.173C48.5641 87.6898 48.7679 87.0892 48.9957 86.5365C49.251 85.9131 49.456 85.3088 49.4164 84.6279C49.3805 83.9973 48.6384 83.64 48.16 84.1076Z" fill="#0F261E"/>
<path d="M49.9224 77.0174C49.5207 78.0688 49.1923 79.2053 49.1695 80.3359C49.1623 80.7231 49.7749 80.9365 49.9427 80.5457C50.4103 79.4571 51.0001 78.3745 51.0745 77.1732C51.1176 76.4671 50.1442 76.4395 49.9224 77.0174Z" fill="#0F261E"/>
<path d="M52.5994 68.9164C52.03 70.2292 51.765 71.7721 51.4965 73.1748C51.379 73.797 52.2686 74.273 52.5815 73.6316C53.2181 72.3296 53.9782 70.7471 53.893 69.2665C53.8559 68.6466 52.8968 68.2318 52.5994 68.9164Z" fill="#0F261E"/>
<path d="M56.0569 62.1799C55.1745 63.525 54.7729 65.406 54.8173 67.0077C54.8317 67.4861 55.4814 67.5568 55.6325 67.118C56.142 65.629 56.6851 64.1436 57.1803 62.6522C57.4092 61.9641 56.4249 61.6176 56.0569 62.1799Z" fill="#0F261E"/>
<path d="M59.2749 55.3548C58.9188 56.5153 58.4213 57.6255 58.0713 58.786C57.961 59.1492 58.5052 59.383 58.685 59.0437C59.2617 57.9611 60.0422 56.851 60.2256 55.6174C60.3167 55.0023 59.4655 54.7326 59.2749 55.3548Z" fill="#0F261E"/>
<path d="M62.3377 47.0177C61.6699 47.9792 61.375 49.2105 61.1892 50.353C61.0669 51.1179 62.1662 51.4608 62.376 50.6803C62.6686 49.5857 63.2165 48.6038 63.5534 47.5308C63.7919 46.7719 62.7489 46.4279 62.3377 47.0177Z" fill="#0F261E"/>
<path d="M66.816 38.8318C65.791 39.6543 65.4456 41.1421 65.3066 42.3841C65.2346 43.0171 66.195 43.0854 66.3736 42.528C66.7285 41.4202 67.3351 40.4491 67.7355 39.3665C67.9489 38.7935 67.1972 38.5261 66.816 38.8318Z" fill="#0F261E"/>
<path d="M72.4265 30.25C72.321 30.1301 72.1975 30.0642 72.044 30.027C71.6304 29.9299 71.3079 30.1001 71.0657 30.425C70.4064 31.3158 69.9364 32.4092 69.5 33.4234C69.1307 34.2806 70.2817 35.0215 70.7828 34.1739C71.3523 33.2124 72.0824 32.3097 72.5608 31.3002C72.7382 30.9226 72.701 30.5665 72.4265 30.25Z" fill="#0F261E"/>
<path d="M76.2329 32.1947C75.8517 31.684 75.4716 31.1757 75.0544 30.6937C74.6348 30.2106 73.8519 30.8364 74.178 31.3699C74.4838 31.8674 74.7559 32.3829 75.0245 32.9021C75.3242 33.4847 75.5532 34.0122 76.1682 34.3119C76.6657 34.5553 77.1177 34.1621 77.0386 33.6418C76.9475 33.0363 76.589 32.6707 76.2329 32.1947Z" fill="#0F261E"/>
<path d="M80.996 40.3062C80.4301 39.2284 79.7264 38.2394 79.115 37.1868C78.856 36.7408 78.1619 37.0405 78.2913 37.5332C78.6282 38.8136 79.2121 40.0161 80.1544 40.9548C80.5968 41.396 81.2753 40.8385 80.996 40.3062Z" fill="#0F261E"/>
<path d="M84.2821 50.1285C84.1514 49.378 83.8253 48.7438 83.5555 48.0341C83.281 47.3183 83.0928 46.5834 82.871 45.8509C82.6923 45.2634 81.7836 45.3654 81.7896 45.9984C81.8052 47.5893 82.172 49.5183 83.2666 50.7195C83.7126 51.2087 84.378 50.6812 84.2821 50.1285Z" fill="#0F261E"/>
<path d="M87.478 56.4443C87.1567 55.514 86.6364 54.6844 86.3631 53.7301C86.1233 52.8945 84.9712 53.2625 85.0947 54.0802C85.2565 55.1496 85.5874 56.3101 86.4038 57.0702C86.8474 57.485 87.6998 57.0845 87.478 56.4443Z" fill="#0F261E"/>
<path d="M91.0244 64.1437C90.775 62.6391 89.8411 61.3251 89.4574 59.8481C89.2944 59.2235 88.2274 59.3374 88.3053 60.0039C88.4876 61.5721 89.0127 63.3164 89.979 64.5848C90.3758 65.1052 91.1334 64.803 91.0244 64.1437Z" fill="#0F261E"/>
<path d="M93.9067 70.259C93.5555 69.1201 92.8685 68.1286 92.2762 67.1036C92.1288 66.847 91.7356 67.0209 91.8063 67.3014C92.094 68.4463 92.4273 69.6021 92.9656 70.6559C93.2317 71.1774 94.077 70.8141 93.9067 70.259Z" fill="#0F261E"/>
<path d="M96.9538 76.1719C96.5798 75.5269 96.1746 74.8987 95.8065 74.2489C95.5691 73.8293 94.9085 74.1146 95.0356 74.5738C95.2334 75.2955 95.4996 75.9752 95.7849 76.6658C96.0475 77.2952 96.2153 77.8527 96.7752 78.2759C97.0102 78.4557 97.4574 78.2783 97.5005 77.981C97.6 77.2664 97.3075 76.7797 96.9538 76.1719Z" fill="#0F261E"/>
<path d="M101.25 85.1743C100.887 84.5701 100.399 84.0582 99.9923 83.4839C99.5271 82.8305 99.2454 82.1052 98.8797 81.3991C98.6255 80.9087 97.7348 81.1125 97.8019 81.6916C97.9806 83.2693 98.9097 85.263 100.282 86.143C100.885 86.5291 101.61 85.7702 101.25 85.1743Z" fill="#0F261E"/>
<path d="M104.627 92.1433C104.456 91.5799 103.962 91.2286 103.622 90.7682C103.216 90.2167 102.949 89.6544 102.778 88.9915C102.643 88.4652 101.76 88.4112 101.661 88.9915C101.516 89.8463 101.79 90.6159 102.174 91.3736C102.529 92.0738 103.202 92.8794 104.028 92.9298C104.427 92.9562 104.74 92.5138 104.627 92.1433Z" fill="#0F261E"/>
<path d="M106.867 97.8429C106.355 96.8299 105.689 95.9283 105.277 94.8613C105.053 94.2823 104.056 94.3038 104.112 95.0196C104.215 96.3671 104.839 97.7182 105.81 98.657C106.376 99.2012 107.206 98.5155 106.867 97.8429Z" fill="#0F261E"/>
<path d="M108.738 102.571C108.374 102.017 108.034 101.443 107.548 100.986C107.111 100.574 106.513 101.089 106.751 101.6C107.253 102.678 107.701 104.096 108.7 104.788C109.133 105.086 109.699 104.596 109.563 104.126C109.389 103.53 109.075 103.089 108.738 102.571Z" fill="#0F261E"/>
<path d="M110.254 107.994C109.872 107.562 109.181 108.118 109.469 108.6C110.073 109.614 110.477 110.791 111.44 111.515C111.812 111.793 112.363 111.334 112.218 110.918C111.838 109.828 111.017 108.853 110.254 107.994Z" fill="#0F261E"/>
<path d="M111.711 114.323C111.656 113.976 111.141 113.863 110.922 114.114C110.657 114.416 110.387 114.693 110.097 114.972C109.752 115.306 109.246 115.358 108.908 115.713C108.519 116.121 108.674 116.846 109.245 116.991C110.709 117.364 111.917 115.632 111.711 114.323Z" fill="#0F261E"/>
<path d="M47.1891 117.339C46.5513 117.436 45.9387 117.523 45.2925 117.539C44.6199 117.559 44.6187 118.568 45.2925 118.584C46.0885 118.603 46.8498 118.609 47.5859 118.28C48.1638 118.023 47.7142 117.26 47.1891 117.339Z" fill="#0F261E"/>
<path d="M55.4574 117.159C54.1123 117.043 52.742 117.238 51.392 117.279C50.6727 117.299 50.6727 118.372 51.392 118.393C52.7863 118.433 54.2622 118.586 55.5773 118.044C56.0461 117.851 55.985 117.205 55.4574 117.159Z" fill="#0F261E"/>
<path d="M62.8489 117.701C61.62 117.424 60.3432 117.609 59.1264 117.886C58.2884 118.077 58.666 119.256 59.4716 119.14C60.5998 118.98 61.7351 119.126 62.8489 118.874C63.4303 118.74 63.4315 117.833 62.8489 117.701Z" fill="#0F261E"/>
<path d="M67.9389 117.552C67.4646 117.592 66.9612 117.555 66.5045 117.696C66.1438 117.808 66.1095 118.247 66.4506 118.411C67.3031 118.823 68.6788 118.916 69.5602 118.579C70.1345 118.361 69.9088 117.48 69.342 117.44C68.8706 117.409 68.4097 117.512 67.9389 117.552Z" fill="#0F261E"/>
<path d="M76.5362 117.848C75.6644 117.666 73.9994 117.885 73.1776 118.096C72.8329 118.185 72.8365 118.804 73.1776 118.835C74.0047 118.911 75.853 119.079 76.6324 118.781C77.0982 118.603 76.9988 117.945 76.5362 117.848Z" fill="#0F261E"/>
<path d="M83.6885 118.299C84.011 118.214 84.1603 117.777 83.968 117.507C83.4485 116.775 80.7892 117.112 80.0108 117.201C79.2574 117.286 79.2536 118.28 80.0106 118.299C80.6402 118.315 83.0729 118.459 83.6885 118.299Z" fill="#0F261E"/>
<path d="M89.7957 116.515C88.6855 116.471 87.5118 116.772 86.4077 116.89C85.7723 116.959 85.7711 117.809 86.4077 117.877C87.6317 118.008 88.9553 118.212 90.1194 117.713C90.75 117.443 90.3747 116.537 89.7957 116.515Z" fill="#0F261E"/>
<path d="M96.7477 116.297C96.1278 116.145 95.5632 116.208 94.9386 116.291C94.2288 116.387 93.4951 116.421 92.7949 116.566C92.2123 116.685 92.1979 117.644 92.7949 117.75C93.404 117.861 94.025 117.808 94.6412 117.782C95.3521 117.749 96.0559 117.755 96.7477 117.567C97.3651 117.398 97.3867 116.456 96.7477 116.297Z" fill="#0F261E"/>
<path d="M104.422 115.867C103.196 115.654 101.886 116.206 100.64 116.274C99.7956 116.321 99.7872 117.564 100.64 117.589C101.846 117.625 103.528 117.688 104.574 117.029C105 116.761 104.997 115.966 104.422 115.867Z" fill="#0F261E"/>
</svg>
