<svg width="150" height="150" viewBox="0 0 150 150" fill="none" xmlns="http://www.w3.org/2000/svg">
<rect x="2.5" y="2.5" width="145" height="145" rx="72.5" fill="#FEE8D4"/>
<rect x="2.5" y="2.5" width="145" height="145" rx="72.5" stroke="#D19E7B" stroke-width="5"/>
<path d="M52.8831 113.722C51.7634 113.358 50.6325 112.564 49.6318 111.954C48.3539 111.176 47.0667 110.305 45.8872 109.383C45.6625 109.207 45.3658 109.418 45.4921 109.687C46.2214 111.238 47.884 112.301 49.2377 113.262C50.0353 113.829 52.0976 115.436 53.0768 114.459C53.3202 114.215 53.1939 113.823 52.8831 113.722Z" fill="#0F261E"/>
<path d="M61.2567 113.854C56.8605 110.892 52.4887 107.101 47.221 105.843C46.7352 105.727 46.5723 106.399 47.0198 106.574C52.0066 108.528 56.0648 112.245 60.5012 115.146C61.3148 115.676 62.0506 114.388 61.2567 113.854Z" fill="#0F261E"/>
<path d="M71.1415 114.197C63.6729 110.059 56.8905 104.588 48.9782 101.283C48.6074 101.129 48.3566 101.746 48.7067 101.926C56.3073 105.841 62.5364 112.016 70.3748 115.508C71.2482 115.897 72.014 114.681 71.1415 114.197Z" fill="#0F261E"/>
<path d="M81.3803 114.536C75.2673 110.994 69.7431 106.183 64.1243 101.908C62.4786 100.656 55.1579 93.9758 52.6958 94.8427C52.546 94.8951 52.4374 95.0796 52.5394 95.2284C54.9594 98.7849 61.2307 101.896 64.4538 104.428C69.4145 108.323 74.8264 113.78 80.7821 115.953C81.6256 116.261 82.1246 114.966 81.3803 114.536Z" fill="#0F261E"/>
<path d="M91.3644 114.708C80.4685 103.974 67.7041 96.7355 54.9032 88.5844C54.5335 88.3495 54.0757 88.9243 54.4295 89.1976C60.8618 94.1761 67.8932 98.2727 74.5727 102.896C78.0533 105.306 81.1089 108.097 84.2085 110.955C86.1416 112.737 88.1627 114.966 90.681 115.884C91.3606 116.132 91.8437 115.18 91.3644 114.708Z" fill="#0F261E"/>
<path d="M101.885 114.286C94.0873 108.506 86.6824 102.344 79.1548 96.2272C72.5193 90.835 65.1332 86.6738 58.0409 81.9434C57.7217 81.7309 57.4361 82.1831 57.6552 82.4433C60.1706 85.4269 63.5529 87.4508 66.8154 89.5281C71.1723 92.3038 75.2464 95.4436 79.24 98.7183C86.3828 104.577 93.5219 110.363 101.018 115.771C101.922 116.424 102.762 114.936 101.885 114.286Z" fill="#0F261E"/>
<path d="M106.857 109.819C98.7795 104.744 91.587 98.0575 84.1446 92.1008C76.4682 85.9568 68.0859 81.4203 59.6287 76.4755C59.3254 76.2986 58.9528 76.7479 59.243 76.9754C67.293 83.2691 76.2238 88.2148 84.2195 94.6415C91.2949 100.329 98.0914 106.773 105.922 111.419C106.955 112.031 107.866 110.452 106.857 109.819Z" fill="#0F261E"/>
<path d="M99.924 95.8217C93.5217 93.2202 87.8786 87.7905 82.2139 83.8549C75.8996 79.4691 68.5246 75.5625 62.9274 70.292C62.6081 69.9915 62.0109 70.4025 62.2955 70.7788C66.6298 76.5034 73.8269 80.2929 79.5889 84.412C85.7423 88.8109 92.2738 94.9586 99.4493 97.5443C100.549 97.9403 100.965 96.2449 99.924 95.8217Z" fill="#0F261E"/>
<path d="M95.6137 86.703C95.5444 86.7339 90.6334 82.9518 90.6437 82.9602C87.9419 81.0908 85.2814 79.1557 82.6022 77.2544C76.7082 73.0726 71.0491 68.5613 65.1373 64.4132C64.7563 64.1464 64.3566 64.7203 64.6571 65.0358C69.2461 69.8504 74.6823 73.8103 80.0202 77.7487C84.8367 81.3023 89.9153 85.6573 95.2252 88.3937C95.6277 88.6015 96.2062 88.5238 96.4272 88.0782C96.4899 87.9537 96.5517 87.8282 96.6144 87.7037C96.958 87.0128 96.2811 86.4062 95.6137 86.703Z" fill="#0F261E"/>
<path d="M91.6548 75.6554C82.9346 71.7348 76.7972 63.2233 68.1434 58.9301C67.7793 58.7485 67.3693 59.1183 67.579 59.4956C68.2623 60.7275 69.5243 61.3913 70.6729 62.1636C73.2501 63.8983 75.6055 65.8408 77.9908 67.8292C81.8693 71.0589 86.0932 75.6404 90.9921 77.2263C91.9086 77.523 92.5479 76.057 91.6548 75.6554Z" fill="#0F261E"/>
<path d="M87.2058 65.7638C87.2161 65.7563 87.2246 65.7489 87.2349 65.7414C81.4654 61.0793 75.1614 57.0857 69.5988 52.1541C69.2561 51.8508 68.7684 52.3282 69.0942 52.6596C74.3038 57.9751 79.9591 62.9872 86.2042 67.0763C87.071 67.6445 87.7947 66.4472 87.2058 65.7638Z" fill="#0F261E"/>
<path d="M83.2165 56.9719C81.8947 54.8328 79.3586 53.0607 77.4826 51.3925C75.454 49.5867 73.3729 47.8604 70.9464 46.6163C70.5822 46.43 70.1628 46.9074 70.4924 47.2032C72.4555 48.9651 74.3849 50.7596 76.2469 52.6282C77.9975 54.3853 79.91 56.97 82.2008 57.9876C82.8317 58.2675 83.6443 57.6628 83.2165 56.9719Z" fill="#0F261E"/>
<path d="M79.861 47.8019C79.1523 46.6345 77.8511 45.8144 76.7877 44.9822C75.5931 44.0488 74.3602 43.1604 73.0992 42.3198C72.6676 42.0314 72.2145 42.6652 72.5581 43.0209C73.5729 44.0685 74.6223 45.0861 75.6858 46.084C76.666 47.0033 77.6376 48.2156 78.8528 48.8101C79.4856 49.119 80.2682 48.4712 79.861 47.8019Z" fill="#0F261E"/>
<path d="M78.2609 42.3566C78.0212 41.7527 77.4343 41.4269 76.9278 41.0525C76.4728 40.7164 76.0001 40.4019 75.547 40.0649C75.2596 39.8524 74.8533 40.2034 74.9563 40.5189C75.1304 41.0562 75.5367 41.4447 75.9177 41.8445C76.3558 42.3051 76.8632 42.9285 77.4651 43.1532C77.9033 43.317 78.4387 42.8022 78.2609 42.3566Z" fill="#0F261E"/>
<path d="M74.15 115.931C68.5001 115.551 62.832 115.61 57.176 115.399C53.1608 115.248 47.2546 116.683 43.4945 115.093C56.9392 89.1593 64.0793 60.3777 76.8997 34.0945C78.9073 39.6217 80.2214 45.472 82.0286 51.0491C84.675 59.2094 87.6068 67.2349 90.6006 75.2701C93.4851 83.009 96.4667 90.7078 99.1666 98.5147C101.041 103.93 102.361 109.832 104.867 115.055C100.33 115.343 95.8934 116.502 91.3293 116.74C85.6223 117.037 79.8364 116.313 74.15 115.931ZM108.496 116.106C104.759 102.029 98.7876 88.0699 93.6588 74.4273C90.6431 66.3993 87.7538 58.3592 85.0867 50.2062C82.9747 43.7462 81.6946 36.1761 77.8519 30.4813C77.3114 29.6785 75.9694 29.9566 75.7811 30.7521C75.5856 30.8614 75.4058 31.0145 75.2747 31.2756C61.8822 58.2341 52.488 87.2622 41.5149 115.259C41.3922 115.574 41.4954 115.846 41.6934 116.039C41.7031 116.262 41.8088 116.489 42.0553 116.686C44.0483 118.28 46.6583 118.368 49.1323 118.499C55.0312 118.812 61.0151 118.742 66.9286 118.858C73.4493 118.985 79.9372 119.658 86.4482 119.964C93.3648 120.288 99.8285 118.304 106.646 118.274C107.27 118.271 107.688 117.971 107.944 117.568C108.37 117.227 108.648 116.679 108.496 116.106Z" fill="#0F261E"/>
</svg>
