<svg width="150" height="150" viewBox="0 0 150 150" fill="none" xmlns="http://www.w3.org/2000/svg">
<rect x="2.5" y="2.5" width="145" height="145" rx="72.5" fill="#FEE8D4"/>
<rect x="2.5" y="2.5" width="145" height="145" rx="72.5" stroke="#D19E7B" stroke-width="5"/>
<path d="M46.4 79.163H55L37.3333 97.8043H46.9333L32.5 112H68.5V123H82.1333V112H117.5L102.5 98H112L95 79.163H104L90.8333 63.1848L100.5 63.5L82.5 44.5H90.8333L74.5 27L60 44.5H68L51.5 62.6522H61.5L46.4 79.163Z" stroke="#0F261E" stroke-width="2.5" stroke-linejoin="round"/>
<path d="M40.8871 109.565C40.4083 109.151 39.915 108.772 39.3726 108.447C39.088 108.274 38.7777 108.674 39.0177 108.906C39.4485 109.318 39.8782 109.731 40.29 110.162C40.6047 110.492 40.8514 110.855 41.3279 110.884C41.4797 110.893 41.6304 110.743 41.6203 110.59C41.5913 110.116 41.2308 109.863 40.8871 109.565Z" fill="#0F261E"/>
<path d="M42.5088 109.005C41.8927 108.424 41.3235 107.794 40.7599 107.164C40.4697 106.841 39.8972 107.274 40.1539 107.632C40.6293 108.296 41.117 108.952 41.6327 109.585C42.0289 110.072 42.5969 110.923 43.3212 110.747C43.4831 110.708 43.6014 110.545 43.6003 110.381C43.5936 109.769 42.9094 109.381 42.5088 109.005Z" fill="#0F261E"/>
<path d="M46.4173 110.884C46.0724 110.017 45.2923 109.383 44.6751 108.693C43.8348 107.754 43.0725 106.764 42.3147 105.756C42.0602 105.418 41.3649 105.607 41.5614 106.075C41.9654 107.035 42.5301 107.88 43.1674 108.701C43.8638 109.599 44.712 110.875 45.7131 111.425C46.0479 111.611 46.5814 111.299 46.4173 110.884Z" fill="#0F261E"/>
<path d="M46.3467 107.274C45.398 106.112 44.4036 105.009 43.2976 103.995C42.9092 103.64 42.3769 104.177 42.724 104.569C43.6838 105.655 44.5755 106.811 45.4516 107.965C46.061 108.767 46.6893 110.122 47.6089 110.58C47.9962 110.771 48.3779 110.459 48.3031 110.045C48.1257 109.064 46.9616 108.029 46.3467 107.274Z" fill="#0F261E"/>
<path d="M39.5008 110.43C39.2497 109.927 38.6616 109.713 38.329 109.239C38.1939 109.047 37.9272 109.209 38.0187 109.421C38.233 109.914 38.5712 110.621 39.0633 110.867C39.3557 111.013 39.6459 110.722 39.5008 110.43Z" fill="#0F261E"/>
<path d="M50.9449 109.624C50.34 108.787 49.7284 107.956 49.0945 107.14C48.4003 106.248 47.5209 105.424 46.8881 104.496C46.4562 103.866 45.4037 102.757 44.6392 102.591C44.483 102.557 44.3558 102.601 44.2564 102.679C44.2442 102.686 44.2285 102.682 44.2174 102.691C44.2096 102.697 44.2107 102.706 44.204 102.711C44.1984 102.717 44.1962 102.724 44.1917 102.729C43.5801 103.317 45.1884 104.566 45.4997 104.889C47.1236 106.563 48.4684 108.59 49.9003 110.431C50.3624 111.026 51.3869 110.235 50.9449 109.624Z" fill="#0F261E"/>
<path d="M54.6502 109.882C54.3901 109.285 53.6301 108.94 53.1536 108.514C52.2596 107.714 51.4694 106.794 50.7016 105.875C49.3099 104.214 47.8891 102.465 46.8959 100.526C46.7039 100.151 46.1492 100.419 46.2396 100.803C46.7619 103.046 48.301 105.101 49.7083 106.869C50.6067 107.998 52.6123 110.975 54.3087 110.723C54.7104 110.662 54.7808 110.181 54.6502 109.882Z" fill="#0F261E"/>
<path d="M57.6746 110.256C56.5731 108.312 54.7305 106.729 53.2551 105.062C51.4571 103.031 49.7775 100.91 48.0587 98.8139C47.8735 98.5885 47.4449 98.8297 47.5587 99.1042C48.4215 101.188 49.6737 103.095 51.0866 104.848C52.8087 106.986 54.5497 109.524 56.7651 111.166C57.3275 111.583 57.9816 110.796 57.6746 110.256Z" fill="#0F261E"/>
<path d="M61.6041 109.662C58.0261 105.2 54.4949 100.258 49.7572 96.9522C49.3276 96.651 48.8532 97.3071 49.2093 97.662C53.3085 101.741 56.5517 106.562 60.5874 110.68C61.2514 111.356 62.17 110.368 61.6041 109.662Z" fill="#0F261E"/>
<path d="M66.7125 109.602C60.7785 103.361 54.667 97.1656 49.0309 90.6535C48.4048 89.9325 47.3691 90.9805 47.9852 91.6991C53.5643 98.2015 59.4448 104.766 65.5742 110.74C66.3186 111.467 67.4279 110.354 66.7125 109.602Z" fill="#0F261E"/>
<path d="M49.0622 94.0269C48.8825 93.4223 48.406 93.0975 47.9328 92.7147C47.377 92.2648 46.8536 91.7726 46.2978 91.3207C45.8101 90.9245 45.2152 91.5205 45.6114 92.008C46.0132 92.5024 46.4239 92.9868 46.8457 93.4646C47.2966 93.9725 47.6348 94.5698 48.3167 94.7729C48.7553 94.9019 49.1928 94.4655 49.0622 94.0269Z" fill="#0F261E"/>
<path d="M46.0542 94.4648C45.9438 94.0328 45.6737 93.9169 45.35 93.6457C44.9873 93.3419 44.6871 92.9639 44.3858 92.6011C44.0387 92.1835 43.4338 92.7158 43.6648 93.1578C44.0264 93.8475 44.6011 95.2191 45.5342 95.148C45.8846 95.121 46.1446 94.8241 46.0542 94.4648Z" fill="#0F261E"/>
<path d="M81.4232 119.815C78.0293 113.958 72.1979 109.99 67.3051 105.475C61.0776 99.7291 54.7841 93.9569 49.2374 87.5409C48.8791 87.1257 48.1972 87.6648 48.4852 88.1212C52.446 94.3925 58.4091 98.9221 63.5686 104.147C68.8799 109.522 76.0181 114.141 79.8842 120.716C80.4667 121.705 82.0013 120.812 81.4232 119.815Z" fill="#0F261E"/>
<path d="M78.8115 120.004C76.297 117.189 73.191 114.786 70.5103 112.113C70.0984 111.702 69.3239 112.257 69.6844 112.749C71.9109 115.789 74.8082 119.01 78.0046 121.05C78.6686 121.473 79.2958 120.548 78.8115 120.004Z" fill="#0F261E"/>
<path d="M78.8115 120.004C76.297 117.189 73.191 114.786 70.5103 112.113C70.0984 111.702 69.3239 112.257 69.6844 112.749C71.9109 115.789 74.8082 119.01 78.0046 121.05C78.6686 121.473 79.2958 120.548 78.8115 120.004Z" fill="#0F261E"/>
<path d="M75.7057 120.752C75.5684 120.249 75.2637 120.068 74.8363 119.789C74.2481 119.403 73.6901 118.977 73.1388 118.54C72.0875 117.707 71.0785 116.802 70.2203 115.767C69.9123 115.397 69.3475 115.872 69.5719 116.267C70.2683 117.492 71.1701 118.522 72.179 119.5C72.9211 120.219 74.2202 121.601 75.3285 121.416C75.6198 121.367 75.7771 121.013 75.7057 120.752Z" fill="#0F261E"/>
<path d="M72.1363 120.355C71.3093 119.756 70.4801 119.293 69.7903 118.51C69.4912 118.171 68.9064 118.621 69.1631 118.994C69.7569 119.861 70.5492 120.694 71.3785 121.338C72.0939 121.893 72.8684 120.887 72.1363 120.355Z" fill="#0F261E"/>
<path d="M81.2166 114.615C69.6543 107.013 61.842 94.6088 50.8678 86.1202C50.4672 85.8099 49.9147 86.3121 50.2942 86.6938C55.7316 92.1749 61.4636 97.3602 66.6421 103.095C70.8965 107.806 75.0047 112.541 80.5113 115.822C81.2914 116.286 81.9633 115.105 81.2166 114.615Z" fill="#0F261E"/>
<path d="M81.2435 110.362C76.5415 106.957 73.0896 102.33 68.9847 98.2861C63.8688 93.2451 58.5028 88.3947 53.0085 83.7687C52.5632 83.3937 51.9248 84.0053 52.3589 84.4182C57.5698 89.3735 62.6467 94.4615 67.9278 99.3433C72.2693 103.358 75.5282 108.31 80.4845 111.661C81.2981 112.211 82.0147 110.921 81.2435 110.362Z" fill="#0F261E"/>
<path d="M85.335 109.484C80.4556 105.232 75.9412 100.772 71.3977 96.1532C66.3599 91.034 60.4839 86.8923 55.5141 81.6848C55.1781 81.3344 54.5554 81.7986 54.8344 82.2093C58.5888 87.7349 64.4603 91.361 69.2237 95.9444C74.1778 100.713 78.3496 107.24 84.5203 110.542C85.1709 110.889 85.9309 110.004 85.335 109.484Z" fill="#0F261E"/>
<path d="M91.6217 109.606C79.1063 101.584 69.3642 89.2126 57.5453 80.1167C57.12 79.7886 56.6111 80.4873 56.9817 80.8478C62.7729 86.4872 68.9212 91.7548 74.7604 97.3472C79.854 102.227 84.6464 107.462 90.7154 111.156C91.7098 111.762 92.5926 110.227 91.6217 109.606Z" fill="#0F261E"/>
<path d="M97.7106 109.833C82.2064 98.9769 69.1028 84.4415 54.4613 72.4316C54.0395 72.0845 53.4435 72.6459 53.8497 73.0432C61.2224 80.2552 68.97 87.082 76.577 94.0428C83.1271 100.037 89.4953 106.297 96.8233 111.349C97.7608 111.995 98.6291 110.477 97.7106 109.833Z" fill="#0F261E"/>
<path d="M56.6521 77.2216C56.3017 76.5475 55.4557 76.09 54.8642 75.6368C54.1801 75.1123 53.4758 74.6223 52.7426 74.1715C52.1444 73.8032 51.6667 74.6916 52.2046 75.09C52.8609 75.5744 53.4836 76.0955 54.0863 76.6446C54.6198 77.129 55.0517 77.8511 55.6957 78.177C56.3262 78.4973 56.9825 77.8567 56.6521 77.2216Z" fill="#0F261E"/>
<path d="M53.7318 77.6695C53.5476 77.1505 53.0911 76.9284 52.6704 76.6025C52.1871 76.2264 51.724 75.8246 51.2608 75.424C50.9026 75.1137 50.4327 75.5825 50.743 75.9418C51.1436 76.4039 51.5465 76.8615 51.9673 77.3056C52.3601 77.7208 52.7195 78.1717 53.3144 78.2186C53.5844 78.2387 53.8222 77.9239 53.7318 77.6695Z" fill="#0F261E"/>
<path d="M51.5105 77.6103C51.256 77.1192 50.5574 77.2565 50.4424 76.655C50.3799 76.3257 49.8655 76.4094 49.8677 76.7342C49.8721 77.3837 50.5842 78.3949 51.304 78.1192C51.5183 78.0366 51.621 77.8223 51.5105 77.6103Z" fill="#0F261E"/>
<path d="M101.465 109.885C96.8324 107.517 93.4274 103.734 89.7455 100.154C85.3204 95.8497 80.1597 92.254 75.5259 88.1701C73.046 85.9838 58.9927 70.2218 56.5061 71.5387C56.5407 71.5209 56.553 71.4717 56.5329 71.4383C56.4693 71.3378 56.4068 71.2363 56.3432 71.1336C56.0575 70.6727 55.3142 71.1191 55.6222 71.5555C57.5072 74.2139 60.7661 76.2362 63.1187 78.4962C67.4513 82.6579 71.7302 86.8978 76.239 90.8699C80.7736 94.8631 85.7043 98.3831 90.0446 102.597C93.4039 105.859 96.3693 109.231 100.639 111.298C101.581 111.753 102.41 110.367 101.465 109.885Z" fill="#0F261E"/>
<path d="M106.061 110.246C104.549 108.152 102.105 106.674 100.063 105.132C94.8513 101.195 89.8179 96.5975 85.2711 91.9135C77.1005 83.4973 66.6386 77.1492 59.0506 68.2643C58.7727 67.9384 58.2046 68.3725 58.4546 68.723C64.6922 77.4326 74.6217 84.1278 82.4095 91.4402C89.6661 98.2558 97.8535 104.21 104.984 111.076C105.526 111.598 106.53 110.895 106.061 110.246Z" fill="#0F261E"/>
<path d="M110.086 108.918C101.798 101.444 93.5313 93.8931 85.0738 86.6132C81.3596 83.4169 77.7604 79.9917 73.8731 77.0085C69.2761 73.4784 64.12 70.2486 60.7752 65.406C60.5151 65.0299 59.9225 65.3603 60.1546 65.7687C64.5943 73.5766 73.7816 79.1067 80.45 84.928C89.9878 93.2536 99.3861 101.743 108.844 110.161C109.686 110.911 110.929 109.68 110.086 108.918Z" fill="#0F261E"/>
<path d="M114.935 107.975C111.089 105.339 108.011 101.775 104.576 98.6556C100.296 94.7703 95.5077 91.505 91.0022 87.8957C81.2435 80.0799 72.3976 71.2107 62.5005 63.5523C62.0061 63.1695 61.3018 63.8224 61.7951 64.2588C71.1499 72.5187 80.0281 81.3076 89.7511 89.149C94.2555 92.7794 99.0445 96.0071 103.417 99.814C107.039 102.967 110.087 106.721 114.088 109.423C114.99 110.03 115.82 108.581 114.935 107.975Z" fill="#0F261E"/>
<path d="M103.802 93.0204C95.2722 87.6613 88.5893 79.927 80.9331 73.4673C74.2156 67.7989 67.1901 60.6026 59.1579 56.8939C58.7817 56.721 58.4592 57.2421 58.8286 57.4575C67.6432 62.6103 75.4913 70.868 83.2322 77.5208C89.847 83.2049 95.4039 89.9224 102.929 94.5136C103.886 95.0986 104.743 93.612 103.802 93.0204Z" fill="#0F261E"/>
<path d="M61.8351 60.415C61.2012 59.9664 60.4981 59.6037 59.843 59.1851C59.3743 58.8849 58.8397 58.2979 58.285 58.1405C58.2292 58.0579 58.1153 58.0133 58.0294 58.1048C57.9825 58.1573 57.9312 58.203 57.8743 58.2443C57.7058 58.3894 57.689 58.6684 57.7961 58.8514C58.1332 59.4251 58.7214 59.8202 59.2414 60.2153C59.8542 60.6784 60.5093 61.1594 61.1968 61.5065C61.9334 61.8782 62.497 60.8827 61.8351 60.415Z" fill="#0F261E"/>
<path d="M57.7682 60.3325C57.4602 60.1796 57.1466 59.9475 56.7905 60.01C56.6354 60.039 56.5361 60.2321 56.583 60.3761C56.6019 60.433 56.6499 60.4642 56.6901 60.5033C56.6801 60.5044 56.67 60.5055 56.6589 60.5067C57.0885 60.8727 57.5539 61.2455 58.0483 61.5446C58.1912 61.6305 58.3865 61.6327 58.5294 61.5446C58.5416 61.5368 58.555 61.529 58.5662 61.5223C58.6834 61.4497 58.776 61.3147 58.7682 61.1707C58.7392 60.6796 58.1466 60.5223 57.7682 60.3325Z" fill="#0F261E"/>
<path d="M105.814 91.7038C98.2597 86.3466 92.0522 79.6179 85.1517 73.4964C77.5893 66.7878 69.3406 60.9285 61.9378 54.0201C61.6543 53.7545 61.2615 54.1541 61.5148 54.4431C68.21 62.0669 76.4621 67.9485 84.1461 74.5019C91.1382 80.4639 96.9684 88.4213 105.122 92.8866C105.91 93.3187 106.525 92.2082 105.814 91.7038Z" fill="#0F261E"/>
<path d="M93.3472 77.0867C88.1118 73.483 83.8708 69.1226 79.4334 64.5937C74.9078 59.9754 69.1835 55.8818 63.9202 52.1832C63.764 52.0738 63.5977 52.2814 63.6747 52.4298C66.8209 58.452 74.7616 61.8504 79.4423 66.665C83.0259 70.3525 87.6084 76.9026 92.9108 78.1202C93.5536 78.2686 93.8717 77.4472 93.3472 77.0867Z" fill="#0F261E"/>
<path d="M96.7475 76.4116C86.6841 67.5781 76.3706 59.1787 66.8183 49.7715C66.4802 49.44 66.0226 49.9277 66.3094 50.2793C74.7345 60.6072 85.4419 69.0345 95.6839 77.4763C96.4205 78.0835 97.4841 77.0589 96.7475 76.4116Z" fill="#0F261E"/>
<path d="M99.9207 76.3937C89.0793 67.4341 80.2157 56.3405 69.1355 47.6643C68.775 47.382 68.2661 47.8496 68.6177 48.1822C78.8206 57.8092 87.9812 68.5546 98.8191 77.4942C99.5881 78.1281 100.695 77.0332 99.9207 76.3937Z" fill="#0F261E"/>
<path d="M87.6485 60.6963C82.5726 55.1953 75.8741 51.7155 71.3876 45.5805C71.036 45.0995 70.2659 45.5158 70.5717 46.0582C74.2715 52.6251 81.1474 56.7924 86.6976 61.6472C87.3471 62.2153 88.24 61.3381 87.6485 60.6963Z" fill="#0F261E"/>
<path d="M90.4711 59.9766C82.9199 52.8439 74.9613 46.2302 68.1077 38.3877C67.8119 38.0484 67.2081 38.5082 67.4804 38.8721C73.7504 47.2112 81.5483 54.2245 89.3428 61.106C90.1084 61.7813 91.2256 60.6886 90.4711 59.9766Z" fill="#0F261E"/>
<path d="M70.4399 43.8363C69.8529 43.2124 69.0438 42.7693 68.3953 42.2001C67.7212 41.6097 67.1253 40.939 66.6465 40.1812C66.4132 39.8118 65.8452 40.1399 66.0606 40.5227C66.4891 41.2883 67.027 41.9635 67.6297 42.5997C68.2703 43.2738 69.0728 44.1097 69.9243 44.5059C70.3529 44.7046 70.7859 44.2046 70.4399 43.8363Z" fill="#0F261E"/>
<path d="M67.0574 43.228C66.621 42.8206 66.2293 42.3708 65.7951 41.9624C65.4603 41.6476 64.9536 42.0438 65.1679 42.4467C65.4357 42.949 65.7973 43.3876 66.1601 43.8251C66.4714 44.2034 66.7728 44.7045 67.2817 44.796C67.6466 44.863 67.9201 44.5896 67.8542 44.2246C67.7716 43.7648 67.3833 43.5315 67.0574 43.228Z" fill="#0F261E"/>
<path d="M65.9167 44.4466C65.8174 44.0727 65.612 43.9655 65.3006 43.7624C64.9167 43.5091 64.6031 43.1642 64.3129 42.8127C64.0261 42.4656 63.4971 42.9098 63.7069 43.2803C64.0473 43.8818 64.7103 45.0582 65.5127 44.9767C65.7805 44.9499 65.9915 44.73 65.9167 44.4466Z" fill="#0F261E"/>
<path d="M92.9197 60.0514C85.4957 51.9901 76.7402 45.3507 70.0863 36.5618C69.7649 36.1377 69.0585 36.5094 69.3509 36.9915C75.074 46.4835 84.3618 53.1263 91.9409 61.0301C92.5614 61.6763 93.5223 60.7054 92.9197 60.0514Z" fill="#0F261E"/>
<path d="M81.3751 46.1519C80.2869 44.1419 78.2144 42.4667 76.7211 40.7346C74.9935 38.7312 73.3629 36.6476 71.6643 34.6208C71.3898 34.2927 70.8585 34.7179 71.0784 35.0717C72.4779 37.3172 74.0315 39.469 75.6352 41.5716C77.0225 43.3874 78.5436 45.8226 80.5648 46.9621C81.0916 47.2579 81.6574 46.672 81.3751 46.1519Z" fill="#0F261E"/>
<path d="M86.5133 44.3763C84.4777 42.2524 82.192 40.3909 80.1876 38.2157C78.2099 36.0706 76.489 33.7001 74.5046 31.5696C74.3238 31.3765 74.0303 31.6232 74.1486 31.8441C75.6486 34.6376 77.6564 37.9702 80.0213 40.8116C79.5849 40.392 79.1574 39.9757 78.7624 39.5538C76.8026 37.4623 74.893 35.3184 73.1654 33.0305C72.9098 32.6912 72.3373 32.9959 72.5794 33.3731C74.0258 35.6264 75.6106 37.7871 77.3126 39.8552C78.8673 41.7424 80.5626 44.1988 82.6719 45.4845C83.1741 45.7903 83.7723 45.1843 83.4721 44.6832C83.2768 44.3573 83.0491 44.0437 82.8114 43.7368C83.6708 44.5035 84.5614 45.1754 85.481 45.7144C86.3281 46.21 87.1796 45.0716 86.5133 44.3763Z" fill="#0F261E"/>
</svg>
