<svg width="150" height="150" viewBox="0 0 150 150" fill="none" xmlns="http://www.w3.org/2000/svg">
<rect x="2.5" y="2.5" width="145" height="145" rx="72.5" fill="#FEE8D4"/>
<rect x="2.5" y="2.5" width="145" height="145" rx="72.5" stroke="#D19E7B" stroke-width="5"/>
<path d="M74.15 115.931C68.5001 115.551 62.832 115.61 57.176 115.399C53.1608 115.248 47.2546 116.683 43.4945 115.093C56.9392 89.1593 64.0793 60.3777 76.8997 34.0945C78.9073 39.6217 80.2214 45.472 82.0286 51.0491C84.675 59.2094 87.6068 67.2349 90.6006 75.2701C93.4851 83.009 96.4667 90.7078 99.1666 98.5147C101.041 103.93 102.361 109.832 104.867 115.055C100.33 115.343 95.8934 116.502 91.3293 116.74C85.6223 117.037 79.8364 116.313 74.15 115.931ZM108.496 116.106C104.759 102.029 98.7876 88.0699 93.6588 74.4273C90.6431 66.3993 87.7538 58.3592 85.0867 50.2062C82.9747 43.7462 81.6946 36.1761 77.8519 30.4813C77.3114 29.6785 75.9694 29.9566 75.7811 30.7521C75.5856 30.8614 75.4058 31.0145 75.2747 31.2756C61.8822 58.2341 52.488 87.2622 41.5149 115.259C41.3922 115.574 41.4954 115.846 41.6934 116.039C41.7031 116.262 41.8088 116.489 42.0553 116.686C44.0483 118.28 46.6583 118.368 49.1323 118.499C55.0312 118.812 61.0151 118.742 66.9286 118.858C73.4493 118.985 79.9372 119.658 86.4482 119.964C93.3648 120.288 99.8285 118.304 106.646 118.274C107.27 118.271 107.688 117.971 107.944 117.568C108.37 117.227 108.648 116.679 108.496 116.106Z" fill="#0F261E"/>
</svg>
