<svg width="150" height="150" viewBox="0 0 150 150" fill="none" xmlns="http://www.w3.org/2000/svg">
<rect x="2.5" y="2.5" width="145" height="145" rx="72.5" fill="#FEE8D4"/>
<rect x="2.5" y="2.5" width="145" height="145" rx="72.5" stroke="#D19E7B" stroke-width="5"/>
<path d="M111.69 78.3594C108.904 75.5611 104.803 75.3091 102.017 78.1075L94.0529 86.1055C91.9798 88.1856 89.4814 88.1901 88.0231 86.461C87.057 85.3154 87.4383 81.7821 87.709 79.5409L91.703 46.552C92.0596 43.6048 89.9703 40.7576 87.036 40.3994C84.1021 40.041 81.4345 42.3073 81.0775 45.254L76.672 71.1647C76.4418 71.8094 75.948 71.9207 75.8924 71.053L74.393 37.375C74.393 34.4063 71.997 32 69.0413 32C66.0855 32 63.6895 34.4063 63.6895 37.375L63.5841 71.3051C63.612 71.6967 63.2776 71.8088 63.2173 71.3615L58.4561 44.8764C57.9308 41.9549 55.1469 39.8463 52.2384 40.3743C49.3295 40.9018 47.3977 43.8655 47.9227 46.7864L52.1623 77.78C52.1667 78.3313 51.9826 78.6464 51.7214 77.9395L45.3965 60.9474C44.4069 58.1501 41.3473 56.5198 38.562 57.5134C35.7769 58.5072 34.3209 61.7483 35.3101 64.5452L46.3981 100.946C46.4559 101.147 46.5173 101.347 46.5801 101.545L46.6032 101.62C46.6053 101.626 46.608 101.631 46.6099 101.637C49.6806 111.134 58.562 118 69.0415 118C75.7499 118 82.7179 115.624 88.0221 111.536C93.7512 108.071 112.107 88.2415 112.107 88.2415C114.893 85.4432 114.477 81.1582 111.69 78.3594Z" fill="#0F261E"/>
<path d="M68.8846 81C68.6426 81.0097 68.6156 81.5982 68.6425 81.6978C68.6694 81.7977 68.508 81.8973 68.4991 82.0878C68.4901 82.278 68.4991 82.3868 68.4991 82.3868C68.4991 82.3868 68.0328 81.9519 67.8803 82.251C67.7279 82.55 67.9252 82.8128 67.9252 82.8128C67.9252 82.8128 67.8624 83.0576 67.9072 83.2388C67.952 83.4203 68.0059 83.393 68.0507 83.5019C68.0955 83.6105 68.1045 83.7374 67.97 83.7374C67.8355 83.7374 67.6113 83.6198 67.4858 83.7374C67.3602 83.8552 67.2347 83.8373 67.2123 84.0274C67.1899 84.2179 67.0823 84.2949 66.9253 84.3039C66.7684 84.3132 66.7146 84.4128 66.7236 84.517C66.7325 84.6212 66.9971 84.6665 67.2123 84.6395C67.4275 84.6122 67.7279 84.6395 67.7727 84.7301C67.8175 84.8207 67.9162 84.9476 67.6786 84.9793C67.4409 85.0109 67.2526 85.0292 67.2078 85.0745C67.163 85.1198 66.9433 85.233 66.746 85.301C66.5487 85.3689 66.5353 85.5368 66.5397 85.6184C66.5442 85.7 66.4456 85.7046 66.4859 85.8269C66.5263 85.9491 66.4949 85.9721 66.3425 86.0896C66.19 86.2075 65.8134 86.2621 65.7372 86.3707C65.661 86.4796 65.4278 86.5249 65.4458 86.6745C65.4637 86.824 65.661 86.7923 65.7955 86.824C65.93 86.8556 65.8224 86.9146 65.7686 86.9282C65.7148 86.9419 65.4502 87.0371 65.253 87.1457C65.0557 87.2546 64.6477 87.25 64.6477 87.25C64.6477 87.25 64.9795 87.4721 65.6789 87.3725C66.3783 87.2726 67.2481 86.9056 67.2481 86.9056C67.2481 86.9056 66.4008 87.522 66.0062 87.7212C65.6117 87.9207 65.4054 88.025 65.383 88.1112C65.0871 88.0929 64.8495 88.0975 64.8136 88.1701C64.7777 88.2424 64.9974 88.5192 65.5892 88.5009C65.2216 88.9858 64.4863 89.3531 64.4863 89.3531C64.4863 89.3531 65.2754 89.6838 66.347 88.6641C66.1317 88.9858 66.2035 89.1083 66.0107 89.3122C65.8179 89.516 65.6565 89.7654 65.4682 89.8017C65.2799 89.838 64.9974 90.0102 64.9526 90.1688C64.9077 90.3273 64.8808 90.6583 64.7374 90.7353C64.5939 90.8125 64.5087 90.7669 64.3832 90.9301C64.2576 91.0933 63.9886 91.1479 63.9258 91.2521C63.8631 91.3564 64.0335 91.5422 64.3877 91.4786C64.7418 91.4153 65.1498 91.1479 65.2664 91.1932C65.383 91.2385 65.0916 91.3731 64.9929 91.4916C64.8943 91.6102 65.0243 91.6465 64.8495 91.7324C64.6746 91.8186 64.5805 91.9862 64.2576 92.0724C63.9348 92.1584 63.9034 92.2493 63.751 92.3399C63.5985 92.4304 63.3564 92.4168 63.2668 92.4984C63.1771 92.58 63.195 92.7748 63.4058 92.8065C63.6165 92.8384 63.9034 92.7748 64.2262 92.8065C64.5491 92.8384 64.688 92.7748 64.9122 92.7249C65.1364 92.6752 65.392 92.5437 65.6475 92.4305C65.9031 92.3172 65.9972 92.3216 66.1721 92.145C66.347 91.9682 66.6877 91.6691 66.6877 91.6691C66.6877 91.6691 66.4008 92.0951 66.2259 92.3305C66.051 92.5663 65.6386 92.9107 65.3292 93.0696C65.0198 93.2281 64.8495 93.3913 64.5715 93.4639C64.2935 93.5362 64.1007 93.6994 64.0021 93.9624C63.9034 94.2252 62.9798 94.6785 62.6615 94.6558C62.3432 94.6332 62.1728 94.7101 62.1683 94.7827C62.1638 94.8553 62.2311 95.0728 62.6256 95.0818C63.0202 95.0908 63.1233 95.1634 63.1233 95.1634C63.1233 95.1634 62.8005 95.3539 62.8139 95.4808C62.8274 95.6077 63.2847 95.5441 63.4596 95.5394C63.6344 95.5351 63.9797 95.4035 64.15 95.4035C64.3204 95.4035 64.5401 95.3855 64.5401 95.3855C64.5401 95.3855 64.4773 95.5214 64.5759 95.5894C64.6746 95.6573 64.28 96.2375 64.1366 96.2918C63.9931 96.3464 63.8317 96.4007 63.751 96.5685C63.6703 96.736 62.7467 97.0987 62.657 97.1487C62.5673 97.1983 62.249 97.2709 62.258 97.3798C62.267 97.4884 62.3297 97.6469 62.8902 97.6016C62.8767 97.7332 62.9933 97.7921 63.2085 97.7605C63.4237 97.7288 63.4775 97.8238 63.4775 97.9327C63.4775 98.0413 63.6389 98.0822 63.8362 98.0413C64.0335 98.0006 64.4101 97.969 64.4101 97.969C64.4101 97.969 64.1814 98.1775 63.8183 98.268C63.4551 98.3586 63.0202 98.8073 62.7243 98.8436C63.3026 98.9751 64.7418 98.5355 64.7418 98.5355C64.7418 98.5355 63.4551 99.1926 63.0336 99.2469C62.6122 99.3015 61.5406 99.3604 61.1012 99.2925C60.6618 99.2242 60.348 99.4917 60.1372 99.4917C59.9265 99.4917 59.94 99.6412 60.3076 99.7364C60.6753 99.8317 61.1461 100.018 61.3837 100.131C61.6213 100.244 63.0381 100.081 63.0381 100.081C63.0381 100.081 62.258 100.511 62.0338 100.679C61.8096 100.847 61.7648 101.01 61.989 100.996C62.2131 100.983 62.1773 101.078 62.3925 101.078C62.6077 101.078 62.9215 100.897 63.1592 100.956C63.3968 101.015 63.6568 100.811 63.8093 100.811C63.9617 100.811 63.8675 100.919 64.2666 100.919C64.6656 100.919 64.8763 100.829 65.0422 100.752C65.2081 100.675 65.5713 100.743 65.8403 100.652C66.1093 100.561 66.6608 100.103 66.6608 100.103C66.6608 100.103 65.9614 100.897 65.7282 101.033C65.4951 101.169 65.3426 101.113 65.2384 101.137C65.1342 101.161 64.8416 101.436 64.6466 101.518C64.4515 101.599 63.9472 101.674 63.8328 101.776C63.7185 101.878 63.4596 101.966 63.3284 102.021C63.1973 102.075 63.204 102.194 62.9181 102.211C62.6323 102.228 62.5113 102.153 62.3465 102.378C62.1818 102.602 61.7581 102.51 61.6706 102.589C61.5832 102.667 61.1629 102.531 61.0889 102.598C61.0149 102.667 61.2301 102.935 61.5092 102.993C61.7883 103.051 61.8354 103.261 62.3095 103.122C62.7837 102.983 62.6155 103.26 63.0056 103.169C63.3957 103.078 63.7151 103.081 63.7151 103.081C63.7151 103.081 63.3688 103.55 63.1166 103.561C62.8643 103.571 62.555 103.578 62.5248 103.727C62.4945 103.877 62.8375 104.043 63.1132 103.962C63.3889 103.88 63.5066 103.795 63.6647 103.884C63.8227 103.972 64.196 104.101 64.6029 103.999C65.0097 103.897 64.9997 103.955 65.2787 103.768C65.5579 103.581 66.4859 103.176 67.4409 101.932C66.9231 102.979 66.4927 103.55 65.7529 103.924C65.8807 103.933 66.19 103.875 66.19 103.875C66.19 103.875 65.939 104.169 66.1093 104.296C66.2797 104.423 66.6025 104.119 66.8357 103.942C67.0688 103.766 67.3871 103.385 67.3871 103.385C67.3871 103.385 67.3333 103.77 67.2616 103.956C67.1899 104.142 67.3423 104.246 67.5754 104.183C67.8086 104.119 68.4049 103.571 68.4049 103.571L68.3287 106L68.6778 105.973L69.0116 105.973L69.3684 105.973H69.5871H69.8889C69.8889 105.973 69.9427 105.429 69.871 104.985C69.7993 104.541 69.7455 103.562 69.7455 103.562C69.7455 103.562 70.4091 104.187 70.8125 104.115C71.2161 104.042 70.8305 103.761 70.7857 103.344C71.1981 103.843 71.4582 103.888 71.5748 104.033C71.6913 104.178 72.0052 104.287 72.1128 104.205C72.2204 104.124 71.9603 103.779 71.9603 103.779L72.4894 103.897C72.4894 103.897 71.8258 103.489 71.5568 103.199C71.2878 102.909 70.6781 101.821 70.6781 101.821C70.6781 101.821 71.225 102.592 71.8886 103.009C72.5522 103.426 72.875 103.725 73.3951 103.843C73.9151 103.96 74.238 103.852 74.4622 103.779C74.6863 103.707 74.7132 103.711 74.9688 103.788C75.2244 103.866 75.6234 103.788 75.6099 103.584C75.5965 103.38 75.323 103.412 75.0719 103.408C74.8208 103.403 74.498 102.95 74.498 102.95C74.498 102.95 74.8522 102.954 75.0854 103.027C75.3185 103.1 75.2692 102.977 75.5786 102.977C75.8879 102.977 76.0045 103.063 76.2242 102.963C76.4439 102.864 77.1029 102.674 77.0581 102.488C77.0133 102.302 76.8519 102.492 76.5605 102.478C76.269 102.465 76.0403 102.257 75.861 102.302C75.7669 102.098 75.5158 101.926 75.305 102.021C75.0943 102.116 74.9284 102.016 74.5742 101.758C74.22 101.5 74.0138 101.59 73.812 101.486C73.6103 101.382 73.3099 101.218 72.9557 101.078C72.6015 100.937 72.6194 101.092 72.4311 101.01C72.2428 100.928 71.6913 100.407 71.4716 100.094C72.18 100.643 72.9288 100.561 73.1799 100.684C73.4309 100.806 73.6372 100.91 74.0273 100.788C74.4173 100.666 74.3949 100.734 74.655 100.788C74.915 100.842 75.1616 100.869 75.4754 100.906C75.7893 100.942 76.1749 100.892 76.2332 100.743C76.2915 100.593 75.0854 99.9722 75.0854 99.9722C75.0854 99.9722 75.8969 100.131 76.3945 99.9992C76.8922 99.868 77.9907 99.5143 77.9997 99.3874C78.0086 99.2605 77.8338 99.2016 77.2554 99.1519C76.677 99.102 75.2423 99.2242 74.9508 99.1519C74.6594 99.0793 73.1709 98.3633 73.1709 98.3633C73.1709 98.3633 74.7312 98.8209 75.4799 98.7303C74.9195 98.4945 74.2918 98.1049 74.0945 98.0869C73.8972 98.0686 73.7089 97.8827 73.7089 97.8827C73.7089 97.8827 74.238 97.96 74.4128 97.9553C74.5877 97.9507 74.4308 97.7152 74.6325 97.6516C74.8343 97.5883 75.0002 97.6969 75.1168 97.6016C75.2333 97.5067 75.0719 97.4747 75.1436 97.4431C75.2154 97.4115 75.7534 97.502 75.7489 97.2709C75.7444 97.0398 74.776 96.7996 74.3366 96.5003C73.8972 96.2012 74.0407 96.1469 73.7672 96.1559C73.4937 96.1652 73.1978 95.4578 73.1978 95.4578C73.1978 95.4578 73.9107 95.4308 74.3949 95.4808C74.8791 95.5304 75.6189 95.4398 75.5786 95.2314C75.5382 95.0229 74.8343 95.1634 74.794 94.9459C74.7536 94.7281 75.0674 94.8553 75.1571 94.7644C75.2468 94.6738 75.0226 94.3974 74.7536 94.3884C74.4846 94.3794 74.3904 94.3748 74.229 94.3022C74.0676 94.2296 74.0878 94.1278 73.9443 94.112C73.8008 94.0962 73.7403 94.1142 73.7269 94.0599C73.7134 94.0053 73.8165 93.722 73.7246 93.6041C73.6327 93.4865 73.4959 93.5725 73.4354 93.5408C73.3749 93.5092 73.2023 93.1601 72.5163 92.92C71.8303 92.6796 71.0188 91.4333 70.9067 91.1795C71.4672 91.6781 71.4492 91.6235 71.5792 91.805C71.7093 91.9862 72.0052 92.1131 72.1756 92.2446C72.3459 92.3762 72.6239 92.6479 72.8122 92.6526C73.0005 92.6569 73.135 92.589 73.3054 92.6343C73.4758 92.6796 73.6013 92.6116 73.7941 92.6389C73.9869 92.6659 74.0452 92.7159 74.2021 92.6526C74.359 92.589 74.5025 92.6343 74.516 92.53C74.5294 92.4258 74.3815 92.3352 74.22 92.2583C74.0586 92.181 74.0362 92.0768 73.8658 91.9952C73.6955 91.9136 73.6641 91.9862 73.4041 91.8276C73.144 91.6691 73.0991 91.7097 73.0409 91.6691C72.9826 91.6282 72.7853 91.3427 72.6508 91.2475C72.5163 91.1522 72.6822 91.0706 72.8167 91.1569C72.9512 91.2428 73.1664 91.3381 73.3458 91.3427C73.5251 91.3471 73.9555 91.3654 73.9869 91.2112C74.0183 91.057 73.6955 91.0753 73.552 90.8895C73.4085 90.7036 73.4489 90.7216 73.274 90.6946C73.0991 90.6673 72.9961 90.4225 72.9736 90.3319C72.9512 90.2414 72.9378 89.9423 72.7853 89.8424C72.6329 89.7428 72.2966 89.7201 72.0634 89.6159C71.8303 89.5117 71.3909 89.2849 71.2923 89.1673C71.4828 89.1378 71.3214 88.7909 71.2508 88.7298C71.7384 89.063 72.337 89.301 72.5959 89.3177C72.8548 89.3348 73.1843 89.2635 73.1843 89.2635C73.1843 89.2635 72.3269 88.8387 72.0579 88.4885C72.3067 88.4171 72.5454 88.5124 72.6833 88.3864C72.8212 88.2607 72.912 88.3594 72.9422 88.1996C72.9725 88.0398 72.6699 88.0467 72.4883 88.0737C72.2865 87.8698 71.7283 87.5537 71.3383 87.3939C70.9482 87.2341 70.5951 86.8569 70.5951 86.8569C70.5951 86.8569 70.8338 86.8023 70.9751 86.9146C71.1163 87.0269 71.8023 87.2171 71.9233 87.003C72.0444 86.7889 71.7014 86.8091 71.4526 86.2109C71.2038 85.6128 70.7587 84.9613 70.0414 85.0519C69.324 85.1425 68.3556 85.7499 68.3556 85.7499C68.3556 85.7499 69.4944 84.7618 70.0504 84.6259C70.6063 84.4897 70.8215 84.7528 71.0278 84.526C71.234 84.2995 70.8574 84.2995 70.6422 84.1183C70.427 83.9368 70.4897 83.9458 70.6422 83.801C70.7946 83.6561 70.8305 83.3204 70.5525 83.3297C70.2745 83.3387 69.6827 83.7467 69.5213 84.109C69.6917 83.5109 69.8441 82.7948 69.7006 82.7765C69.5572 82.7585 69.3957 82.8038 69.3957 82.8038C69.3957 82.8038 69.4316 82.635 69.3375 82.5057C69.5997 82.2066 69.6199 81.503 69.4484 81.4145C69.2769 81.3264 69.0315 81.7614 69.0315 81.7614C69.0315 81.7614 69.0539 80.9932 68.8846 81Z" fill="#D19E7B"/>
</svg>
