<?xml version="1.0" standalone="no"?>
<!DOCTYPE svg PUBLIC "-//W3C//DTD SVG 20010904//EN"
 "http://www.w3.org/TR/2001/REC-SVG-20010904/DTD/svg10.dtd">
<svg version="1.0" xmlns="http://www.w3.org/2000/svg"
 width="700.000000pt" height="700.000000pt" viewBox="0 0 700.000000 700.000000"
 preserveAspectRatio="xMidYMid meet">
<metadata>
Created by potrace 1.14, written by Peter Selinger 2001-2017
</metadata>
<g transform="translate(0.000000,700.000000) scale(0.100000,-0.100000)"
fill="#000000" stroke="none">
<path d="M3215 6990 c-848 -76 -1598 -424 -2190 -1015 -538 -537 -880 -1219
-989 -1975 -215 -1488 543 -2947 1883 -3624 698 -353 1507 -461 2282 -305 720
145 1389 522 1881 1063 896 984 1159 2373 686 3624 -61 161 -206 454 -298 600
-152 243 -395 535 -597 718 -546 497 -1191 797 -1923 895 -167 23 -575 33
-735 19z m279 -1426 c3 -9 6 -36 6 -62 l0 -46 29 28 c41 39 61 29 61 -28 0
-25 -7 -63 -16 -85 -8 -22 -14 -50 -12 -63 2 -19 8 -22 31 -20 26 3 27 1 27
-41 0 -23 -7 -69 -15 -100 -20 -79 -19 -84 12 -46 37 44 111 89 145 89 24 0
28 -4 28 -27 0 -15 -10 -37 -21 -50 -27 -27 -18 -41 41 -68 27 -12 40 -24 38
-34 -3 -13 -22 -17 -93 -21 -78 -4 -98 -9 -149 -39 -64 -36 -209 -141 -203
-148 2 -2 40 15 85 37 110 55 200 77 253 61 58 -17 111 -70 154 -154 21 -39
53 -89 72 -110 29 -32 32 -41 22 -54 -16 -18 -95 -11 -140 13 -15 7 -40 14
-55 14 l-27 0 23 -25 c13 -14 69 -48 124 -76 56 -29 120 -65 143 -80 23 -17
55 -29 72 -29 20 0 31 -5 31 -14 0 -16 -39 -33 -100 -44 l-45 -8 28 -24 c15
-14 55 -42 89 -62 47 -29 57 -39 44 -44 -37 -14 -122 6 -208 49 -69 35 -85 40
-77 25 6 -11 8 -30 5 -43 -5 -20 3 -27 62 -58 37 -19 92 -42 123 -51 65 -18
73 -26 89 -84 12 -45 40 -82 63 -82 8 0 24 -11 36 -24 13 -13 34 -27 47 -30
38 -10 29 -33 -16 -41 -42 -7 -136 10 -146 26 -6 10 -44 13 -44 3 0 -13 67
-87 85 -95 106 -43 137 -59 183 -88 28 -19 52 -40 52 -46 0 -19 -62 -24 -197
-16 -115 6 -123 7 -160 37 -21 16 -54 40 -73 51 -19 12 -51 38 -70 58 -19 20
-53 51 -74 68 -36 29 -38 29 -26 6 25 -48 111 -157 160 -203 27 -26 80 -60
117 -77 37 -17 86 -45 108 -63 22 -19 49 -35 60 -37 15 -3 21 -14 23 -46 3
-35 7 -42 30 -48 15 -4 34 -13 43 -21 10 -9 45 -19 79 -24 62 -9 90 -23 90
-45 0 -7 -14 -15 -31 -19 -22 -4 -30 -11 -27 -23 3 -17 20 -23 106 -39 12 -2
22 -9 22 -14 0 -28 -48 -35 -222 -32 -99 1 -178 -2 -178 -7 0 -25 68 -107 96
-116 17 -5 55 -27 85 -47 30 -20 93 -53 141 -73 48 -20 92 -43 98 -51 19 -21
2 -34 -44 -34 -35 0 -45 -4 -49 -20 -4 -16 -14 -20 -51 -20 -41 0 -46 -3 -52
-26 -7 -26 -8 -26 -71 -19 -82 9 -77 -4 15 -40 37 -14 96 -42 132 -61 l65 -35
-74 6 c-61 4 -190 28 -276 50 -36 10 55 -36 173 -86 l114 -49 222 1 c347 1
368 -20 106 -107 -72 -24 -101 -28 -192 -29 -60 0 -108 0 -108 -1 0 -1 33 -20
73 -42 87 -48 118 -78 97 -93 -18 -13 -210 -4 -260 11 -26 8 -52 7 -98 -2 -56
-10 -70 -10 -111 5 -27 9 -84 23 -127 32 -43 8 -105 28 -136 44 -67 34 -66 21
4 -45 72 -68 98 -84 137 -84 22 0 69 -15 117 -38 43 -21 101 -44 127 -51 27
-6 73 -28 102 -47 49 -33 59 -36 98 -30 38 6 49 3 73 -17 43 -35 128 -61 180
-53 33 4 44 2 44 -8 0 -13 -24 -27 -103 -60 -42 -17 -238 -25 -294 -12 -43 10
-42 -4 2 -43 36 -32 55 -39 114 -43 44 -4 50 -22 16 -44 -24 -15 -34 -16 -80
-7 -42 9 -63 9 -101 -3 -63 -19 -138 -17 -200 4 -86 30 -262 149 -349 237
l-80 80 29 -50 c75 -128 120 -183 211 -253 l30 -23 -27 6 c-32 6 -34 3 -12
-30 9 -13 13 -29 9 -35 -16 -26 -86 14 -182 104 -48 45 -51 42 -26 -27 13 -35
14 -50 6 -58 -19 -19 -76 -1 -138 42 -31 22 -59 39 -60 37 -1 -2 1 -43 6 -93
5 -49 11 -138 15 -197 l7 -108 -132 0 -132 0 7 202 7 201 -68 -51 c-47 -36
-77 -52 -98 -52 -29 0 -30 1 -23 43 3 23 9 53 13 67 5 21 -5 14 -60 -36 -36
-33 -81 -68 -100 -79 -38 -20 -73 -14 -63 10 3 8 9 22 12 30 4 11 0 15 -16 15
-20 0 -18 4 16 29 62 44 135 132 178 213 l39 73 -74 -75 c-87 -89 -154 -140
-265 -205 -72 -41 -91 -47 -157 -52 -54 -4 -87 -1 -121 10 -40 14 -52 14 -91
2 -51 -15 -115 -4 -115 20 0 19 11 24 67 32 51 6 96 32 113 63 10 18 4 19
-141 16 -130 -3 -157 -1 -202 16 -52 20 -87 44 -87 60 0 4 21 8 48 9 79 1 141
15 165 37 16 15 36 22 63 22 26 0 68 14 129 44 50 25 115 52 145 60 31 8 76
28 100 45 25 16 65 32 89 36 36 6 57 20 122 83 44 41 77 77 75 79 -2 3 -32
-14 -65 -37 -52 -35 -71 -43 -124 -47 -34 -2 -80 -11 -102 -20 -26 -10 -70
-14 -130 -13 -89 2 -245 -13 -265 -25 -14 -9 -120 5 -120 16 0 14 38 44 100
80 108 61 109 60 -28 53 -119 -6 -124 -6 -205 24 -45 16 -102 36 -126 44 -25
8 -46 19 -48 24 -7 21 100 36 307 43 197 7 220 10 280 33 80 32 202 89 198 93
-2 2 -39 -5 -83 -16 -44 -10 -111 -22 -150 -25 l-70 -5 70 45 c39 25 76 46 82
46 20 0 103 43 103 53 0 5 -12 6 -27 3 -90 -16 -101 -16 -117 -1 -9 9 -16 21
-16 26 0 5 -18 9 -40 9 -27 0 -43 5 -46 15 -4 10 -20 15 -49 15 -43 0 -77 23
-59 39 5 5 54 28 109 52 55 24 115 57 135 74 19 17 47 38 62 48 35 22 79 80
79 104 -2 61 -12 64 -131 38 -88 -19 -160 -20 -160 -1 0 8 10 22 22 30 29 21
20 27 -49 35 -68 8 -83 15 -83 42 0 16 7 19 40 19 52 0 155 34 205 68 22 15
51 44 65 65 19 29 50 50 133 91 135 68 206 122 263 202 24 34 44 65 44 68 0 4
-24 -14 -53 -39 -53 -47 -150 -96 -242 -121 -70 -19 -259 -19 -275 1 -15 19
-7 31 27 39 16 4 73 29 129 57 80 39 110 60 144 100 23 27 40 53 37 56 -4 3
-36 -6 -72 -21 -75 -30 -126 -33 -146 -9 -11 13 -12 17 -1 21 7 2 33 19 56 37
24 18 52 36 64 39 19 6 28 24 48 91 7 23 22 36 65 57 36 18 71 45 96 75 37 46
79 123 67 123 -3 0 -23 -13 -43 -29 -61 -48 -122 -73 -188 -79 -35 -2 -63 -2
-63 1 0 3 19 16 43 30 50 30 127 95 127 108 0 5 -15 9 -32 9 -43 0 -107 38
-87 51 8 5 28 9 46 9 18 0 63 16 100 36 80 43 255 155 250 160 -2 2 -44 -10
-93 -26 -111 -38 -212 -54 -273 -44 l-46 7 40 13 c74 23 132 49 135 59 2 6 -9
12 -25 15 -15 3 -30 10 -32 17 -5 14 54 59 98 75 63 21 76 35 83 89 7 49 7 50
69 79 34 16 81 32 105 36 30 5 42 11 42 23 0 31 -23 41 -90 41 -36 0 -71 4
-79 9 -18 12 -7 41 15 41 23 0 54 29 54 50 0 27 44 50 94 50 53 0 64 12 42 45
-9 13 -16 42 -16 63 0 22 -5 52 -10 69 -13 37 2 83 27 83 10 0 32 -9 50 -19
l31 -20 5 42 c9 67 25 150 32 170 9 21 31 22 39 1z"/>
</g>
</svg>
