<svg width="1920" height="1000" fill="none" xmlns="http://www.w3.org/2000/svg"><g clip-path="url(#a)" fill="#0F261E"><path opacity=".55" d="m-744.571 618.173-12.557-22.321 36.571 15.615-24.014 6.706zM377.215 788.2c-8.942-13.766-23.83-19.724-26.062-29.014-2.232-9.303-8.927-14.894-11.908-20.471-2.98-5.577 5.297-41.296 2.232-49.103-3.065-7.822-18.42-12.001-18.702-13.116-.283-1.116 27.827-19.441 27.262-26.698-.551-7.257-1.116-9.869-1.116-9.869s8.193-4.08 10.976-7.623c-22.517 8.555-47.83 11.351-54.525 11.167 12.656-7.624 22.332-12.833 25.313-17.859 2.98-5.026 17.487-10.984 19.168-15.996-8.009 2.597-18.052 3.529-18.052 3.529s17.685-5.026 22.149-13.2c-26.613 9.854-38.154 8.922-44.666 7.44-6.526-1.497-11.823-4.744-17.035-3.826-5.212.932-4.28-6.593-7.261-7.525-2.98-.932-1.115-7.44 1.399-9.954 2.514-2.513 5.297-4.743 10.891-4.743 5.579 0 38.803-7.257 49.411-21.022-12.105 6.875-26.245 6.692-26.245 6.692s13.221-7.441 17.685-18.975c4.464-11.535 3.913-18.411-8.56-16.745-12.473 1.68-14.154 7.257-21.4 3.911-7.261-3.346-12.855-5.393-18.802-4.645-5.961.734-13.221-2.612-16.018-5.393-2.783-2.795-3.348-5.591-3.348-5.591s28.294-4.461 34.439-15.812c-7.628 1.115-20.285 4.475-20.285 4.475s18.985-16.942 22.884-32.556c-6.597 3.106-18.886 16.221-18.886 16.221s-1.399-6.833-5.863-6.692c-4.463.142-6.003 2.655-6.003 2.655s-6.837-3.163-8.602-6.424c-1.78-3.261-5.961-4.56-5.961-4.56s10.89-9.488 9.393-20.274c-1.483-10.787-9.295-9.671-13.391-10.504-4.096-.847-11.173-11.168-13.405-17.21-2.232-6.057-3.079-23.634-3.63-33.122-.565-9.487.833-20.231-2.515-22.603-3.347-2.372-.833-16.18-2.655-16.462-1.808-.268-3.631 8.231-4.04 19.681-.424 11.436-7.543 50.924-19.409 63.334 1.822.424 6.569-1.948 6.569-1.948s-9.083 12.283-14.945 12.142c9.209 2.513 19.126-6.283 19.126-6.283s.282 10.321-1.399 14.09c-1.667 3.77-29.452 7.949-33.506 5.718-4.04-2.231-9.21-4.461-10.876-4.179-1.681.282 1.949 7.808 7.811 11.436s17.445 6 17.445 6-6.695 5.436-3.489 11.718c3.221 6.283 5.311 6.001 5.311 6.001s-14.38 7.397-17.176 16.052c-2.783 8.64 1.681 17.86 7.119 20.09-1.949 4.179-25.68 15.897-33.915 14.5-8.236-1.384-9.917.282-9.776 3.36.142 3.064 9.069 7.525 20.525 6.833 5.029 2.372 2.514 5.295-.975 5.167 8.094 5.436 28.619-2.371 28.619-2.371s-7.261 7.666-7.543 11.435c13.956-.564 18.702-10.602 18.702-10.602s-.833 14.513-11.866 32.373c-11.032 17.845-24.013 22.871-24.013 22.871s6.978.283 12.713-.409c-.989 5.577 6.696 11.012 16.329 8.781-5.862 4.885-5.17 11.86-6.709 15.912-1.526 4.038-6.555 6.833-12.417 8.231-5.862 1.397-8.588-2.556-20.383-2.372l-3.065.042s3.997-4.376 7.345-7.44 3.348-7.906-.282-12.551c-3.617-4.659-9.21-3.36-13.208-3.826-3.997-.452-5.495-3.064-5.495-3.064s21.782-5.577 25.228-10.236c3.433-4.645 15.638-23.62 9.578-29.846-6.046-6.24-9.577 5.761-17.954 2.415-8.376-3.347-8.843-4.561-19.084-2.231l4.845-4.377s-10.523-5.859-21.414-10.603c-10.877-4.743-16.004-10.885-16.004-10.885s4.463-6.41 8.192-7.44c3.73-1.017 8.193-3.996 9.211-10.885 1.031-6.876 4.195-13.116 1.031-14.782-3.165-1.68-13.038 3.247-18.9 2.23-5.862-1.03-22.333-11.167-26.613-15.163-4.28-3.995-12.756-4.376-12.756-4.376s.467-6.043-1.483-8.372c-1.95-2.316 7.077-10.137 10.241-9.022 3.164 1.115 28.845 6.706 39.552-1.765-11.908 1.299-29.226-8.555-29.226-8.555s24.098-2.415 29.311-8.838c5.212-6.41 12.656-12.933 7.91-17.394-4.746-4.461-12.091 3.812-16.188 1.496-4.096-2.329-14.705-8.937-21.315-9.769 20.016-1.963 40.201-23.352 41.049-27.347.833-3.996-.466-7.907 2.415-13.018 2.882-5.124 2.514-13.398 2.514-13.398s-16.329 21.954-36.712 25.724c-20.383 3.755-35.738 2.372-46.064-5.591-10.34-7.949-6.568-22.745-6.568-22.745s8.235 2.104 18.293 2.104c-5.721-8.796-11.597-9.629-11.597-9.629s9.774-.974 7.062-10.391c6.13 3.488 26.726-1.468 32.037-9.84-4.124.339-7.825.48-7.825.48s2.797-1.596 3.08-5.224c.268-3.628-14.805-10.956-14.805-10.956s.763-2.866-.692-4.32c-1.469-1.468-3.56-1.68-3.56-1.68s.905-2.725-3.15-7.737c-4.04-5.026-8.503-5.379-8.503-5.379s-.07-8.09.48-8.16c.565-.071 2.232 2.372 4.605 1.398 2.373-.975 1.893-6.565.495-13.258-1.399-6.692-9.083-15.84-11.315-20.16-2.232-4.321-5.509-6.904-5.58-14.161-.07-7.257-.494-11.365-1.469-14.231-.974-2.866-3.418-4.603-3.489-8.655-.07-4.038-1.808-16.942-3.348-17.436-1.54-.494-.621 11.027-2.302 14.655s-.904 12.057-1.045 18.198c-.141 6.142-.353 12.072-1.893 15.488-1.526 3.417-15.214 32.162-15.214 32.162s8.872-6.227 11.104-10.504c-1.893 10.024-3.207 14.344-3.207 14.344h4.18S19.3 323.229 13.524 327.69c-5.764 4.461-.75 20.457-3.066 24.453-2.33 4.009-16.004 2.428-16.004 2.428s7.246 4.278 14.507 5.676c-10.425 3.43-34.806 2.597-41.868-4.193 14.422 18.607 31.26 19.624 31.26 19.624s-17.304 3.727-29.593-.268c8.56 8.555 25.595 16.179 36.387 14.033-2.698 6.706-28.562 29.677-28.562 29.677s10.142-.932 15.355-6.142c.268 5.309 1.2 9.488 1.2 9.488S.4 415.59 5.528 410.931c5.113-4.645 21.95-29.479 21.95-29.479s-11.54 32.458-21.767 46.407c-10.241 13.963-37.419 35.903-37.419 35.903s6.71 1.03 10.891-1.116c5.495 7.822 21.316 5.21 21.316 5.21s-7.444 14.415-9.267 20.556c-1.808 6.142-19.394 18.142-19.394 18.142s10.184-16.462 6.554-18.975c-3.63-2.513-12.289 10.886-26.937 12.693-14.663 1.821-29.593-4.321-29.593-4.321s12.472-8.739 12.656-12.748c.184-3.996-15.453-7.907-19.168-17.112-3.73-9.205-8.476-24.184-8.476-24.184s12.756 17.676 18.886 21.121c6.145 3.43 13.589 8.089 17.036 9.755 3.446 1.68 20.284 1.116 20.284 1.116l-18.052-6.975s20.284-1.581 20.482-8.739c.183-7.158-16.485-9.304-28.026-22.603-11.526-13.3-26.146-29.013-26.146-29.013s9.309 3.063 11.823 5.76c2.514 2.697 11.173 3.628 15.538 3.064 4.38-.551 11.442 1.397 16.654-4.546-5.947 1.2-9.393-.565-10.227-2.33-.847-1.765-7.359-5.308-11.639-7.073-4.28-1.765-6.695-7.624-13.207-14.599-6.512-6.974-14.889-21.671-14.889-21.671s13.575-1.299 20.75-11.902c7.162-10.617.085-17.859-1.03-17.859-1.117 0-7.346 1.482-13.674-.932-6.328-2.429-9.86-8.005-12.84-7.906 1.116-5.492-4.944-12.001-7.445-14.331-2.514-2.329-3.63-7.906-3.079-9.12.565-1.2 18.335-2.132 18.335-11.436s-8.094-15.163-15.637-15.812c-7.529-.65-4.464-14.697-10.693-20.373-6.244-5.675-2.246-58.689-7.727-59.904-5.495-1.2-2.147 9.036-8.193 19.173-6.045 10.137-2.796 18.693-3.065 27.997-.282 9.289-4.379 16.363-4.562 22.603-.184 6.226-5.679 8.739-6.611 13.666-.933 4.928 0 7.356-1.681 11.535-1.667 4.193-15.623 8.372-15.722 12-.099 3.629 5.113 15.531 11.823 16.095-12.473 2.88-6.893 10.787-12.388 13.667-5.481 2.88-16.739 7.257-21.217 9.205-4.463 1.962-13.207 9.021-13.122 13.582.099 4.56 12.105 7.638 12.105 7.638l-11.357 10.687s11.908-2.513 19.169-6.042c7.26-3.53 17.134-1.483 17.134-1.483s-8.574 14.5-18.985 21.389c-10.424 6.876-9.633 12.664-18.759 14.316-6.144 1.116-10.057-.409-16.06 4.193-5.99 4.603-17.304 16.18-20.652 16.18-3.348 0-13.405.282-19.959 10.462 10.184-4.871 17.445-5.436 22.756-.975l-11.173 11.86s9.774-4.885 18.419-7.808c8.659-2.936 14.945-7.68 25.553-6.141-3.912 9.346-11.582 22.462-18.151 28.18-6.554 5.718-21.499 15.347-26.937 24.283 11.724-6.565 18.843-10.461 24.013-10.461 5.156 0 22.884-6.848 34.622-17.592 11.724-10.744 30.427-32.218 30.427-32.218s-2.797 18.128-9.069 29.847c-6.286 11.732-13.405 15.346-16.343 23.718-2.924 8.372-14.239 14.655-17.304 18.707-3.065 4.038-13.405 7.666-17.318 17.154 10.608-4.885 42.589-5.026 42.589-5.026s-24.014 14.937-41.191 25.963c-17.162 11.012-36.853 14.923-42.998 14.231-6.131-.706-24.974 1.116-31.119 5.577 9.775.282 15.213.551 17.869 4.461 2.641 3.911 6.272.692 12.007 3.205 5.721 2.513 14.366 3.219 30.003-.55 15.637-3.77 37.56-7.822 37.56-7.822s-25.836 18.834-39.51 19.963c-13.688 1.116-28.477-1.256-32.941.974 3.772 6.693 10.326 7.808 16.047 8.514 5.721.692 14.521 6.268 14.521 6.268l-13.264 6.565s8.377 1.807 23.731-1.256c15.355-3.078 23.449-7.963 23.449-7.963s-1.3 8.372-7.162 12.749c-5.862 4.376-10.326-3.163-18.985 3.995-8.659 7.172-13.306 1.864-16.654 4.095-3.348 2.23-10.425-3.163-16.852.564-6.413 3.713-10.424 11.535-11.54 16.97-1.116 5.45 1.539 5.027-1.667 10.194-3.221 5.153-6.427 8.372-13.405 10.32-6.978 1.949-9.069 10.886-13.815 11.154-4.746.282-12.84.706-16.061 1.68 8.659-8.655 9.916-25.95 9.916-25.95s-13.405 14.373-15.072 19.258c4.181-14.09-2.246-59.579-2.246-59.579s-6.272 23.86-10.467 42.129c-4.181 18.283-9.351 32.655-9.351 32.655s-9.634 8.513-11.442 8.513c-1.822 0-2.444-2.442-4.605-1.821-2.161.635-4.054 13.54 3.758 21.771-5.806 6.367-14.649 7.115-17.262 5.534-2.599-1.581-13.391-2.414-16.371-3.911-2.981-1.482-17.177-.649-23.732 1.723-6.568 2.371-14.521 2.555-16.103.508-1.582-2.047-13.024-.932-17.487-1.948-4.478-1.031 2.034-8.189 7.712-11.436 5.679-3.262 6.145-16.279 3.73-18.608-2.416-2.33-17.686 1.299-19.367-1.949-1.667-3.261 12.855-6.79 16.386-6.423 3.531.367 21.316-1.214 21.316-1.214s-9.027-5.295-15.355-6.043c7.063-2.697 10.693-14.048 10.792-18.41.099-4.377 15.92-16.377 23.915-37.117-11.725 9.671-35.922 30.876-54.342 28.462 19.917-4.278 35.357-25.399 35.357-25.399s-24.946 16.011-39.368 10.053c-14.422-5.958-16.471-4.843-16.471-4.843s3.306-6.438 9.027-7.836c5.72-1.397 7.189-7.948 4.604-10.814-2.57-2.852-8.927-3.699-10.325-5.647-1.399-1.949 12.43-.353 13.956-2.443 1.539-2.089 9.492-1.539 13.052-.409 3.56 1.115 12.077-2.796 12.077-2.796s-3.348-3.699-9.28-5.576c-5.933-1.892-5.312-3.841-4.958-4.405.353-.551 5.381-.551 10.89-2.372 5.509-1.807 11.23-9.699 11.23-9.699s-11.004 3.91-21.88 2.795c-10.891-1.115-16.104-2.796-17.686-4.645-1.582-1.864-4.929-1.765-4.929-1.765s.113-3.699-2.331-7.186-8.871-4.956-8.518-7.751c.353-2.795 8.942-2.019 12.77-10.038 3.842-8.033-4.181-11.662-7.67-14.725-3.489-3.064-7.756-7.398-7.756-7.398s14.31 4.052 21.994.282c-7.472-2.4-19.451-11.153-23.109-15.417-3.348-3.911-2.515-17.168-2.232-28.039.282-10.885 3.63-48.553 2.797-48.553-.848 0-5.17 19.667-6.427 27.474-1.258 7.822-5.439 13.116-6.414 16.462-.988 3.361.975 13.54-2.373 18.284-3.347 4.743-15.919 11.026-15.778 12.692.141 1.68-7.26 4.235-7.26 4.235s14.379 2.556 18.702 0c4.336-2.555 2.232 6.241.282 8.739-1.949 2.514-3.63 8.104-4.322 13.399-.706 5.308-6.003 2.795-8.518 6.565-2.514 3.755-4.746 4.461-4.746 6 0 1.525 7.402 3.064 8.094 5.859.692 2.781-5.495 13.441-11.541 16.321-6.045 2.88-13.49 5.026-14.139 8.556-.65 3.529 2.133 6.889 2.133 6.889s.466 5.393 4.096 5.478c3.63.099-15.637 4.56-22.234 1.115-6.611-3.43-2.98 8.556.834 10.984 3.814 2.415 4.647 6.41 8.927 8.274 4.28 1.863 11.823-.466 11.823-.466s-4.28 18.509-7.543 17.859c-3.249-.649-7.345-6.791-10.227-12.551-2.896-5.774-7.176-12.466-10.34-14.697-3.164-2.23-13.772-22.42-14.507-29.027-.749-6.607-4.845-19.907-4.845-19.907s11.908 13.031 18.335 15.262c6.413 2.231 15.722-.649 15.722-.649s-9.761-5.394-15.538-8.937c8.941 3.543 34.057-9.022 34.057-9.022s-13.208-2.23-21.401-1.397c1.3-2.782 29.721-10.392 31.176-22.138-9.126-.833-22.432 4.01-22.432 4.01s-.268-2.796-5.862-3.911c-5.58-1.115-16.654-3.346-20.835-9.205-4.196-5.859-15.736-25.582-13.406-30.143 2.317-4.56 6.795-8.555 5.764-13.581 3.912 5.957 14.055 4.927 18.801 5.026 4.746.084 11.908-.367 19.451-4.095-9.21-2.131-26.147-4.094-26.147-4.094s15.256-.183 21.867-5.859c6.611-5.676 11.639-12.932 11.639-12.932l-17.685 4.56s1.667-7.158-.932-7.991c-2.613-.847-13.123 1.016-19.268-8.655a1667.484 1667.484 0 0 0-11.823-18.325l1.681-5.859s9.125 4.179 14.889 1.214c5.777-2.979 10.792-9.77 10.792-9.77s18.066-4.278 18.25-13.949c-.184-2.795-12.939-.564-17.219-.931-4.28-.382-11.724-6.707-12.572-9.954-.833-3.261.127-7.186-1.949-8.471-2.049-1.256-7.727-.183-9.125-1.623-1.385-1.44-6.654-9.163-6.654-9.163s6.752 5.167 11.541 3.995c4.803-1.157 8.376-3.021 8.376-3.021s-4.689-8.132-12.133-10.829c-7.459-2.696-5.679-4.602-3.871-4.8 1.808-.183 6.187-1.2 7.628-5.534 1.441-4.321 2.627-8.161-1.836-12.269-4.464-4.123-5.509-8.16-4.393-10.603 1.116-2.442-.283-11.097-2.939-14.161-2.641-3.077-3.065-11.167-2.994-14.795.07-3.629-2.444-16.886-2.444-16.886s-3.673 19.328-4.139 24.072c-.466 4.743.283 11.901-3.079 16.56-3.348 4.645-5.862 6.325-4.648 13.3 1.215 6.974-1.483 12.269-5.395 16.744-3.913 4.462-5.128 10.038-2.981 12.551 2.133 2.513 8.278 1.765 9.676 3.812 1.399 2.047 1.215 13.215-3.164 16.377-4.379 3.163-12.84 10.42-26.895 10.97-14.055.565-18.053 4.928-21.316 2.513-3.249-2.414-5.198-4.461-7.628-1.397-2.415 3.077-10.975 12.283-11.357 16.094-.367 3.812 8.292 2.697 11.273.368 2.966-2.316 2.316 4.094 11.159 1.863-3.998 6.142-11.541 15.629-16.004 15.53-4.464-.084-5.58-.367-5.396 2.429.183 2.781 4.096 5.209 10.142 4.094 6.046-1.13 21.315-3.629 24.564-8.838 3.263-5.21 4.097-6.424 5.213-6.325 1.115.085 0 2.781 2.33 4.927 2.331 2.132 11.725 1.115 11.725 1.115s-20.384 14.98-35.272 19.06c6.893 2.612 15.637-.085 15.637-.085s-15.072 9.488-21.965 9.488c-6.88 0-7.162 2.88-13.024.466-5.862-2.414-20.948-9.869-23.646-9.671-2.698.183 1.963 7.341 4.845 9.29 2.881 1.962 3.263 2.047 5.579 5.492 2.331 3.445 6.71 5.958 11.272 6.423 4.549.466 19.72.368 20.935 1.765 1.2 1.398-11.032 11.295-17.587 11.027-6.568-.283-15.778-.424-16.611 1.524-.848 1.963 7.119 3.219 8.503 5.309 1.399 2.089 7.826-.565 10.623 0 2.782.55 6.413 2.513 11.018-.283 4.605-2.795 7.119-3.063 11.173-3.063 4.04 0 13.956-7.681 13.956-7.681s-6.286 8.937-10.326 12.001c-4.054 3.064-11.314 7.539-11.314 7.539s15.637-1.398 32.248-15.078c-.974 10.052-2.231 25.116-24.988 41.719-22.756 16.603-72.309 15.064-78.595 13.949 6.851 6.848 12.982 8.796 14.804 13.681-8.377.974-13.405.141-13.405.141s11.032 6.41 23.731 4.744c12.713-1.68 22.064-7.949 22.064-7.949s-12.289 14.923-21.782 16.73c-9.492 1.822-29.042-.692-29.042-.692s9.507 9.911 16.202 11.577c6.696 1.68 9.069 3.219 11.724 4.885 2.656 1.68 28.478-7.666 28.478-7.666l-18.434 12.41s18.151.706 32.672-11.577c14.521-12.283 23.166-21.347 24.706-20.231 1.54 1.115-8.659 16.32-25.68 30.128-17.036 13.822-36.445 24.566-55.98 24.975 6.837-5.576 16.71-9.572 19.309-15.713-9.676 3.995-25.878-3.812-25.878-3.812l8.193-3.064s-51.459-17.591-55.09-35.169c-3.63-17.577-6.695-18.791-6.695-25.116 0-6.325-3.63-10.603-3.63-10.603s15.82 10.702 23.081 11.069c7.246.381 26.146-4.603 26.146-4.603l-12.84-4.701s26.895 1.68 37.687-6.325l-18.617-.085s9.407-5.026 13.687-4.927c4.28.085 7.911-3.727 9.578-6.24 1.68-2.513 5.311-8.923 2.429-10.603-2.896-1.666-15.354 4.01-24.381 5.21-9.04 1.214-21.033-2.415-30.723-6.693-9.676-4.277-11.442-6.508-11.442-6.508s8.744 1.948 17.77 0c9.027-1.962 13.773-9.953 20.2-12.283 6.427-2.329 6.328-3.995 9.393-4.927 3.08-.932 14.055-10.419 14.055-10.419s-18.052 9.67-32.291 7.073c-14.238-2.612-18.603-1.116-23.448-4.56-4.845-3.445-11.541-6.89-15.171-9.587-3.63-2.696-8.475-7.807-13.208-14.598-4.746-6.791-8.475-14.881-7.825-17.111.65-2.231 2.514.734 5.58 1.482 3.079.748 7.26-2.979 10.806-2.231 3.531.749 7.062 5.761 11.809 6.226 4.746.466 10.707-2.964 14.521-1.397 3.814 1.581 15.453 2.795 27.262.099-8.179-5.295-13.306-4.744-13.306-4.744s18.25-5.958 24.579-12.368c-9.408-.282-22.15 5.21-29.142 4.744-6.978-.466-24.465-10.419-24.465-10.419s16.004-5.76 19.451-11.436c3.432-5.676 11.625-21.771 5.212-24.933-6.427-3.162-16.753 8.005-27.545 3.911-10.806-4.095-25.313-14.288-27.686-15.813-2.373-1.539-.848-5.308 5.862-7.256 6.696-1.963 10.043-4.462 12.417-7.398 2.373-2.923-.354-6.551.07-10.18.424-3.628 1.116-8.442-.621-9.007-1.752-.551-10.27.07-13.264-1.525-3.009-1.609-9.987-3.769-10.467-4.814-.495-1.059.762-2.725 1.525-4.744.777-2.033-.551-11.859-.551-11.859s8.094 4.814 11.301 5.294c3.22.494 11.314-4.814 11.314-4.814l-12.43-5.506s16.216-7.046 15.213-13.046c-.268-1.68-6.342 1.469-11.865-2.654-5.509-4.108-12.205-6.494-12.346-11.93-.142-5.435-4.393-6.551-3.419-14.019.975-7.469-2.034-7.808-1.963-12.551.071-4.744-1.384-8.726-2.161-11.803-.763-3.064-.947-27.531-.947-27.531-1.313 6.523-5.777 19.173-5.961 25.681-.183 6.509 2.048 11.154 0 16.18s-6.978 11.252-6.611 14.796c.382 3.529-3.63 6.127-4.096 9.388-.466 3.262-2.698 7.158-8.278 10.886-5.579 3.713-10.975 3.529-11.258 5.209-.282 1.666.65 3.247 7.529 6.325-10.043 4.461-21.584 5.676-21.584 5.676s10.609 2.414 15.539 1.948c4.929-.466 17.501-.932 21.965-4.179 1.299-.932 2.881-.198 1.681 2.315-1.215 2.513-8.659 10.137-15.821 13.215-7.176 3.064-8.193 6.975-7.444 9.389.734 2.414 4.548 3.543 7.811 2.329s5.029-1.581 6.611-1.214c1.582.381 4.563.466 6.696-1.2 1.031 3.628 1.681 9.022-3.998 12.085-5.678 3.064-14.422 3.996-17.403 6.043-2.98 2.047-34.056 1.031-37.969-.65 7.161 7.356 17.953 8.006 17.953 8.006s-3.898 4.828-11.159 7.525c-7.26 2.696-18.25-1.116-20.849.847-2.614 1.948 2.147 8.64 5.763 11.718 3.63 3.063 9.492 2.598 11.173 3.911 1.681 1.298 8.744 2.498 8.744 2.498s-5.113 5.309-12.656 6.608c-7.529 1.299-9.027 5.675-8.56 7.355.466 1.666 6.243 4.829 10.608 5.478 4.379.65 9.026-1.764 13.772-.833 4.746.932 12.657 0 14.098-1.482 1.455-1.497 3.771-5.21 5.537-4.843 1.78.367 6.243 8.372-.085 16.095-6.328 7.723-33.322 29.663-79.57 22.971 7.162 8.372 28.944 8.936 28.944 8.936s-12.289 4.038-16.753 7.243c12.84 4.885 22.05-.55 27.22.565 5.17 1.115 12.431 0 16.894 2.089 4.464 2.09 11.583 2.655 14.38 0 2.783-2.654 8.377 0 12.699.283 4.323.282 10.467-5.718 10.467-5.718s-3.899 10.179-12.148 19.808c-8.235 9.628-37.122 20.09-61.136 20.231-24.013.141-31.415-1.807-31.966 1.257-.565 3.063 6.978 9.346 11.724 12.41 4.747 3.077 26.655 3.91 31.416 4.758 4.746.833 1.384 4.743-7.543 6.127-8.942 1.398-12.699 1.398-13.547 3.346-.833 1.962 8.377 7.963 14.239 7.821 5.862-.141 7.26-2.936 11.865-2.089 4.605.833 7.826-2.795 11.033-2.795 3.206 0 5.169 2.936 9.068-.142 3.913-3.063 9.775-2.372 10.75-.409.989 1.948 8.517 2.64 14.945-.141-6.71 6.833-13.123 19.243-26.67 25.808-13.532 6.551-25.397 4.179-30.991 9.205-5.58 5.026-7.119 6-7.119 8.372s9.492 3.629 17.318 3.346c7.811-.282 26.937-1.948 38.52-13.384-8.659 9.756-12.416 17.719-12.416 17.719s17.162-7.963 24.847-15.361c7.67-7.384 11.441-11.436 12.84-10.603 1.398.847 2.514 5.732 11.032 3.36-5.029 8.499-7.543 16.321-17.601 22.604-10.043 6.268-17.854 16.038-25.68 20.64-7.811 4.603-21.499 14.373-39.919 14.514-18.434.141-24.988.833-30.568 0-5.594-.833-10.891 1.539-11.032 3.77-.141 2.23 2.783 3.628 10.185 9.346 7.401 5.718 16.329 3.628 16.329 3.628s-11.018 8.231-21.909 9.488c-10.891 1.256-18.702 1.539-23.872 2.781-5.17 1.257-22.05-1.807-22.05-1.807s6.554 10.744 19.677 14.655c13.122 3.896 35.045 3.205 53.606-5.026-12.43 10.461-35.879 22.179-35.879 22.179s9.069 6.283 20.101 2.513c11.032-3.769 13.123-8.372 16.753-7.948 3.63.409 7.261 1.666 13.688-1.963 6.413-3.628 11.442-2.64 14.507-4.461 3.079-1.807 7.825-6.833 7.825-6.833s-1.681 8.231-6.851 13.949c-5.155 5.718-5.155 9.911-5.155 9.911s8.517-4.193 16.753-7.257c8.235-3.078 35.737-24.975 35.737-24.975s-7.543 20.513-30.017 33.347c-22.473 12.834-49.552 30.976-59.045 36.976-9.492 6-18.984 22.744-18.984 22.744s55.414-23.718 72.45-35.168c-32.108 23.027-54.172 44.642-75.812 49.117-21.627 4.461-27.63 6.692-34.198 5.153-6.555-1.525-8.787-2.372-9.903 1.68-1.115 4.052 10.326 12.551 13.392 15.77 3.079 3.205 21.357-.974 21.357-.974s-5.862 7.243-5.014 10.73c.833 3.502 14.507 6.565 31.542 0 17.036-6.551 23.181-13.102 25.54-12.692 2.373.423 1.116 7.821 10.34 7.539 9.209-.282 22.191-12.142 24.564-12.001 2.373.142 5.311-1.397 5.311-1.397s-46.727 57.673-63.48 71.438c-16.753 13.766-41.318 39.433-41.318 39.433-9.859 0-21.033.381-20.849 3.91.198 3.53 1359.463 0 1359.463 0s6.328-12.466-2.599-26.231z"/><path d="M475.088 773.673c-4.326 1.722-28.554 5.396-33.962 15.993-5.408 10.596 24.445 20.536 24.445 20.536-4.976 7.348-7.571 20.093-7.571 20.093l-31.15-24.424h6.705l-28.987-27.228 16.872 5.839-21.848-25.932s26.608-.443 34.396 5.183c7.787 5.626 1.297-16.419-4.328-20.963 16.225 4.101 37.208 0 37.208 0s-12.331 10.154-20.117 16.206c-7.789 6.053-4.76 11.236 14.925 8.644 19.685-2.591 23.148-3.887 23.148-3.887s-5.41 8.218-9.736 9.94zM247.304 735.52l-22.39-9.07s34.396-.657 44.779-5.84c-5.517 6.496-22.389 14.91-22.389 14.91zm-5.193 31.772-17.197-8.742h28.554l-11.357 8.742zm-17.197 31.772-11.681-11.662h19.469l-7.788 11.662zm-239.467-12.646-3.893-10.367 9.734-10.694 12.654 12.958-18.495 8.103zm-421.174 115.098s-14.278-5.512-24.337-19.126c17.847 6.807 44.455 3.231 44.455 3.231l-20.118 15.895zm-39.263-89.805 18.172 1.296-8.113 8.759-10.059-10.055zm-31.474 28.852c-7.139-7.135-8.436-15.238-8.436-15.238l22.064 11.679s-7.463 1.624-13.628 3.559zM707.67 1017.48c-1.921-15.81-16.302 27.31-98.815-35.952 44.852 9.464 64.273-5.265 75.798-13.532-24.822 6.823-32.752-2.871-32.752-2.871s48.578-16.895 44.622-30.919c-3.957-14.008-5.763 16.895-59.003 0-53.244-16.895-55.403-47.076-55.403-47.076s8.635-2.526 9.354-9.349c22.851 10.596 51.63 4.314 61.694-2.526-25.003 1.624-37.776-9.153-37.776-9.153s14.398-9.71 20.144-20.848c-10.966 5.922-47.541-4.855-74.161-47.994 30.219-1.427 41.97-14.844 29.019-23.964 16.309 2.165 34.537-10.531 32.862-14.615-15.834 4.56-36.938 2.165-42.215-4.314-5.276-6.463-17.988-22.275-17.988-22.275s10.554 4.068 16.909 1.427c6.355-2.624 6.715-6.463 10.913-5.15 4.196 1.328 7.074-1.312 4.316-6.233-2.758-4.905-4.556-7.414-11.152-10.17-6.595-2.756-15.71-9.825-19.187-24.801-3.477-14.976-8.753-14.746-8.753-14.746s1.019-73.025-14.989-74.632c-16.01-1.624-5.937 39.891-19.967 56.064-14.03 16.173-16.008 20.126-29.679 20.668-13.672.541-9.174 15.271 3.597 17.797-6.746 3.772-24.463.721-24.463.721s6.025 5.659 13.04 7.808c7.015 2.165 18.888 1.706 18.888 1.706s-2.339 12.138 6.834 15.632c-1.078 5.937-26.08 16.452-26.08 16.452s16.637-11.958 10.791-17.076c-5.846-5.117-9.983-.082-17.896 1.444-7.915 1.525-9.775.869-24.884-2.018-15.108-2.87-22.155-6.167-35.466-14.697-13.311-8.545-26.172-24.718-26.172-24.718l12.503.18-8.816-9.169s22.036 1.263 35.347-.525c13.311-1.804 21.766-7.381 19.607-13.844-2.159-6.479-7.377-6.298-14.571-7.906-7.195-1.624-9.533-6.594-17.088-9.464-7.555-2.887-12.471.475-18.107-5.643-5.636-6.102-32.737-19.88-40.292-34.134 15.469 3.822 31.417-4.675 30.58-10.662-.841-6.003-6.237-1.328-12.472-1.919-6.235-.607-8.274-8.398-8.274-8.398s11.271 3.724 21.944.492c10.673-3.247 13.191-14.27 12.231-16.304-.959-2.034-4.557-1.427-11.871-.722-7.316.722-16.429-2.755-17.627-9.694-1.2-6.954-8.516-15.943-15.59-18.338 7.074-2.149 7.314-8.267 7.314-8.267s4.797 7.07 13.432 5.151c8.633-1.92 6.234-13.172 1.199-17.486-5.037-4.314-10.074-8.628-13.671-21.569-3.597-12.942-9.353-18.207-9.353-27.081 0-8.858-7.676-44.32-15.589-43.598-7.915.705-5.277 15.09-5.516 18.682-.24 3.592-5.758 11.498-6.237 22.997-.48 11.514-18.466 39.301-22.544 47.453-4.077 8.152-28.3 5.035-29.738 21.799-1.44 16.78 20.145.492 20.145 7.43 0 6.955-11.512 13.188-25.182 15.813-13.671 2.64-6.956 5.281-17.749 8.398-10.791 3.116-15.588 13.417-15.828 17.961-10.672-1.673-16.308-5.873-16.308-5.873s.958 3.609 3.357 6.119c-8.274.836-9.834-1.444-9.834-1.444s2.878 8.874 18.348 9.596c15.468.721 20.387 6.462 32.618 5.15-9.595 4.314-14.991 12.335-22.305 13.057-7.315.721-24.704 2.87-33.336 11.974-8.636 9.103-11.632 3.608-11.514 10.432.122 6.823 4.558 3.477 8.274 4.904 3.719 1.444 11.872 5.643 23.026 6.119 11.152.475 15.35-2.871 15.35-2.871s-.362 10.17 5.875 12.45c-2.999 8.152-7.195 9.103-12.232 9.349-5.037.246-9.235 3.117-8.993 7.545.239 4.429 4.197 7.07 12.711 7.07s24.222-3.116 24.222-3.116-21.165 30.918-59.837 42.597l-5.577-2.345s5.216-4.839 5.037-9.875c17.807-1.443 29.319-8.628 27.52-14.926-1.798-6.282-15.289 3.608-36.514-17.961-21.225-21.57-24.463-30.017-26.802-35.233-2.338-5.2-7.555-7.004-7.555-7.004s10.794-1.263 19.068-3.412c8.274-2.165 9.892-8.447 6.835-12.22-3.059-3.772-5.397-3.412-8.634-3.412-3.238 0-7.465-4.494-11.602-4.855-4.137-.361-5.667-3.051-5.575-6.659.088-3.592-2.699-5.659-3.689-5.561-.99.082 3.239-7.102-.81-9.973-4.047-2.887-4.317-3.247-4.225-4.674.088-1.444 5.665-5.397 4.406-9.711-1.259-4.314 1.44-4.133.629-8.628-.81-4.494-1.619-6.019-1.348-11.498.269-5.478-2.699-7.644-2.52-12.4.18-4.757 1.53-23.997-3.147-24.621-4.678-.623-6.475 6.102-6.745 12.942-.27 6.824-6.296 21.389-8.993 26.326-2.699 4.938-3.689 10.515-3.058 13.205.628 2.706-3.599 6.479-3.149 9.89.45 3.412 2.609 3.953 2.609 7.546 0 3.592-6.746 9.169-13.671 10.432-6.925 1.246-10.433-1.444-13.221 1.525-2.787 2.953-.99 9.153 4.676 11.761 5.667 2.608 9.174 5.478 13.672 4.773-12.951 10.695-26.442 14.992-33.007 11.941-6.565-3.051-4.948.64-9.894-.443-4.945-1.082-13.761-3.329-13.761-3.329s11.873 13.565 21.946 16.271c-6.926 4.216-24.284 4.757-24.284 4.757s12.502 3.412 16.01 6.298c3.507 2.871 32.736.082 32.736.082s-3.776 5.512-12.29 10.187c-8.514 4.674-16.189 8.627-22.306 11.252-6.115 2.641-15.588 4.806-24.463 7.676-8.872 2.871-11.392-2.395-14.51-2.87-3.117-.492-4.316 1.673-7.315-.361-2.996-2.034-14.03-1.444-19.545-4.675 3.957 12.811 25.542 29.591 42.57 32.707 17.028 3.117 27.101-.115 27.101-.115s7.555 7.546 16.07 7.07c-21.647 19.289-33.158 25.932-53.125 28.081 6.477-10.957 9.534-14.91 8.636-16.534-.9-1.607-32.38 14.205-45.69 14.386-13.31.18-28.96-.722-45.148-7.185-16.189-6.479-43.17-11.679-49.646-22.291 31.479 10.973 49.106 2.706 62.057 2.706 12.952 0 28.6-9.891 28.6-9.891s-15.468-2.329-27.521-1.623c-8.453-15.091-28.06-18.503-48.206-28.393 40.652 17.075 60.617 4.494 60.617 4.494s-18.527-10.055-22.304-22.291c20.145.541 46.948-24.44 46.948-24.44s-70.15-10.482-107.565-44.025c30.578 1.443 68.351-10.416 68.351-30.198 0-19.765-1.438-2.87-32.376-7.184-30.94-4.314-42.45-10.777-42.45-10.777s28.42-.721 18.706-17.616c34.536 8.267 54.322 3.592 73.39-13.663-39.213 4.313-60.798-7.185-60.798-7.185s23.383-.361 33.097-13.663c-15.83-2.51-25.902-3.953-48.206-5.741-22.306-1.804-23.744-7.906-23.744-7.906s23.622-7.792 22.424-17.141c-1.2-9.35-16.309-.984-39.334-25.408 19.908 11.744 30.22 5.036 30.22 5.036s-12.711-12.696-19.186-21.324c-6.477-8.628-13.432-15.336-15.829-26.113-2.399-10.793 2.638-15.812-2.159-21.323-4.796-5.512.239-18.929-6.475-18.929-6.716 0-2.399 6.217-6.716 16.534-4.316 10.301-7.914 15.32-7.674 26.113.24 10.777-26.862 42.893-35.976 68.53 15.11-5.035 24.223-17.255 24.223-17.255s-8.514 21.094-12.111 28.639c-3.597 7.545-10.073 10.547-13.79 17.731-3.719 7.185-7.076 6.463-13.671 9.35-6.595 2.87-7.675 5.872-7.914 8.988-.24 3.1 1.799 7.66 10.672 8.267-13.79 7.054-35.615 16.764-42.929 20.832-7.315 4.084-2.28 9.956 4.316 11.744 6.597 1.804 16.788 4.56 28.901 1.689 12.111-2.886 18.586-6.708 18.586-6.708s-4.078 4.904-6.355 11.252c-2.279 6.348-62.717 35.577-87.18 38.35 19.907 8.611 84.182-2.526 101.09-14.5-23.143 39.776-45.807 43.007-63.795 49.831-17.989 6.84-30.219 3.231-34.176 8.267-3.958 5.036-5.037 29.115 50.724 29.476-8.274 12.941-25.543 8.988-30.219 16.173-4.677 7.2-1.079 18.699 14.749 20.487 15.83 1.804 8.636 9.71 8.636 9.71-5.108 7.824-10.301 17.059-14.518 18.847-4.219 1.788-14.116-5.512-20.118-7.135-6.003-1.624-18.983-3.084-25.796-13.451 14.276.328 26.931-7.299 24.66-13.302-2.272-5.987-17.847-5.823-26.607-13.615-8.762-7.774-17.359-12.318-22.227-22.684 11.357 3.395 24.337-6.643 20.605-12.483-3.732-5.839-15.414-1.788-29.853-16.042 17.847 3.396 28.879-7.955 26.77-12.646-2.11-4.708-26.284-2.28-38.451-23.997 8.869 3.182 22.605 1.131 22.713-2.001.109-3.133-11.574-4.97-19.684-19.241-8.113-14.254-3.894-23.013-10.059-29.393-1.515-3.888-2.055-50.668-4.11-50.57-2.056.115-6.49 22.8-6.058 29.837.433 7.02 2.163 13.286-.865 19.01-3.028 5.725-3.028 10.695-2.919 15.353.106 4.642-4.868 7.234-5.733 10.695-.866 3.461-11.466 5.839-11.249 8.316.216 2.493 7.354 4.002 9.518 5.298 2.164 1.296-14.709 11.351-25.418 12.204-10.708.869-7.572 4.215-10.924 4.002-3.353-.213-4.218-1.936-4.76-1.083-.54.87-.757 7.349 5.733 7.037 6.49-.328 6.707 4.74 11.898 5.282 5.191.541 10.6-.099 10.6-.099s-4.219 6.693-8.221 7.775c-4.001 1.083-10.814.213-11.898 3.461-1.08 3.248 4.003 8.005 10.492 8.218 6.49.213 11.898-1.837 11.898-1.837s-11.248 10.153-19.793 10.908c-8.545.754-21.199.328-23.471 3.034-2.271 2.69-.541 6.577 9.627 9.497 10.167 2.92 10.49 6.496 10.49 6.496s-10.599.967-11.356 3.018c-.756 2.05 1.622 6.922 11.033 7.135 9.41.213 13.628-2.707 13.628-2.707s-11.464 7.349-18.279 12.434c-6.815 5.068-20.985 4.215-24.877 7.348-3.894 3.133-11.466 2.264-15.035 2.592-3.569.328-8.977 5.183-1.622 10.809 7.355 5.61 24.769 6.151 24.769 6.151s-9.519 10.81 2.163 14.812c-2.055 8.316-25.743 18.486-28.771 19.01-3.029.542-9.518-.213-12.979 1.952-3.461 2.166-4.974 9.301 5.301 12.532 10.274 3.248 17.197 12.761 31.69 11.351-6.49 5.724-29.745 15.566-29.745 15.566s-23.146-13.844-33.962-29.607c-10.815-15.779-21.414-30.263-27.689-36.316 24.66 6.479 43.049 6.266 54.947 4.544 11.897-1.739 19.252-4.199 19.252-6.315 0-2.116-25.094-6.003-28.771-7.742 9.41-5.183 7.895-11.777 7.895-11.777s-18.17 4.97-36.989-12.532c-18.821-17.501-41.373-43.926-48.997-67.595 24.497 27.064 50.779 39.875 62.785 44.73 12.006 4.871 37.673 8.693 53.865.492-29.365-9.891-48.186-25.605-48.186-25.605s28.068-11.514 23.201-31.608c-19.469-.164-42.508-7.627-56.135-19.289-13.628-11.679-15.575-11.023-15.575-11.023s24.011-15.074 17.197-30.64c-1.46-3.084-15.953.164-26.769-6.758-10.817-6.922-12.871-6.479-17.522-12.318 9.626 2.165 26.499-2.494 24.227-11.778-2.27-9.3-15.791-10.383-22.281-20.208 2.489-3.887 2.597-6.708.975-9.087 5.299-2.362 7.895-11.236 7.03-16.534-.865-5.281-7.463-18.043-14.17-26.031-6.706-8.004-8.868-53.276-12.006-53.062-3.135.213 0 10.907-3.352 16.747-3.354 5.839-4.326 14.04-4.976 21.504-.649 7.463-2.921 15.894-7.138 20.634-4.218 4.757-8.977 8.874-9.626 12.433-.65 3.576-10.925 4.757-11.034 8.858-.106 4.117 2.381 9.185 4.653 11.351 2.27 2.165 7.57 2.263 7.57 2.263s-6.381 9.301-17.305 14.057c-10.924 4.757-15.575 10.055-16.009 13.401-.431 3.346 2.813 7.775 9.194 9.071 6.383 1.296 6.923 4.872 11.791 5.298 4.866.426 4.974-4.97 8.543-4.97 3.569 0 6.166.328 6.273 1.509.109 1.197-10.707 5.511-12.112 10.596-1.407 5.085-10.168 6.266-15.684 7.988-5.516 1.739-13.413.443-14.926 3.363-1.514 2.92-13.628 9.727-13.953 13.401-.324 3.674 11.897 3.559 14.818 6.479 2.921 2.92 20.658 7.89 23.687 7.988 3.029.115 3.029.984 3.029 1.525 0 .542-9.194-1.738-13.845 3.56s-4.002 9.841-13.088 8.316c-9.085-1.509-11.032 7.676-24.768 9.514-13.736 1.837-69.277-3.396-84.851-24.145 7.299 15.074 17.683 24.309 20.116 30.476 2.435 6.151 12.656 4.527 19.469 10.038 6.815 5.512 18.984 17.519 24.5 15.895-3.894 4.215-30.339 9.398-43.805 2.591 6.328 9.071 23.2 11.991 27.742 15.238 4.543 3.232 21.416 6.315 29.691 3.724 8.274-2.592 24.497-2.756 24.497-2.756s1.947 2.92 6.327 1.952c-1.784 4.052-16.06 10.366-24.335 18.469-8.274 8.103-58.893 33.396-74.793 31.608 4.543 7.628 21.902 15.567 35.207 16.698 13.302 1.132 35.367-.967 35.367-.967s.488 10.055-16.709 14.106c13.465 8.103 43.804 5.019 43.804 5.019s-10.059 2.592-22.876 17.19c-12.817 14.582-43.156 17.01-50.133 24.145-6.975 7.135-28.392 15.238-36.178 15.238-7.789 0-29.853 3.559-34.721.492-4.866-3.084-13.14 2.92-.648 16.846 12.493 13.942 18.333 15.894 30.501 15.894 12.168 0 40.398-1.624 40.398-1.624s-38.776 22.849-39.912 26.261c-1.134 3.412 2.76 12.318 18.658 11.186 15.9-1.131 49.646-9.726 60.84-20.585-1.136 9.399 4.868 11.826 9.248 11.99 4.38.164 17.197-4.215 30.502-16.698-6.815 11.515-35.478 46.469-62.517 60.74-27.041 14.254-56.892 17.501-59.056 23.98-2.162 6.496-1.082 16.223 19.253 17.518a3539.069 3539.069 0 0 1 34.827 2.379s-33.745 36.955-55.593 49.487c-21.85 12.531-46.942 14.91-54.73 12.974-7.787-1.952-10.816 7.775-1.297 13.172 9.517 5.412 16.223 6.278 19.252 8.428 3.028 2.17 17.089-.21 26.174 2.59 9.085 2.83 39.803-6.475 39.803-6.475s-3.028 5.185 1.299 9.515c-18.172 11.02-20.334 25.28-28.554 28.74-8.22 3.46-43.763 14.35-51.626 25.65H652.032s57.559-29.71 55.638-45.52zM1603.56 840.064l-13.46-23.913 39.2 16.729-25.74 7.184zm1202.35 182.156c-9.58-14.75-25.54-21.13-27.93-31.085-2.39-9.968-9.57-15.958-12.76-21.932-3.2-5.974 5.67-44.241 2.39-52.605-3.29-8.38-19.74-12.857-20.05-14.052-.3-1.195 29.83-20.827 29.22-28.601-.59-7.775-1.19-10.573-1.19-10.573s8.78-4.371 11.76-8.168c-24.13 9.166-51.26 12.161-58.44 11.965 13.57-8.168 23.94-13.749 27.13-19.134 3.2-5.384 18.75-11.767 20.55-17.137-8.59 2.783-19.35 3.782-19.35 3.782s18.95-5.385 23.74-14.142c-28.53 10.557-40.9 9.559-47.88 7.97-6.99-1.603-12.67-5.081-18.25-4.098-5.59.998-4.59-7.064-7.79-8.062-3.19-.998-1.19-7.971 1.5-10.663 2.7-2.693 5.68-5.082 11.67-5.082s41.6-7.775 52.97-22.522c-12.98 7.366-28.14 7.169-28.14 7.169s14.18-7.97 18.96-20.328c4.78-12.357 4.19-19.723-9.17-17.938-13.37 1.8-15.17 7.774-22.94 4.189-7.78-3.584-13.78-5.777-20.15-4.976-6.39.787-14.17-2.798-17.17-5.778-2.98-2.994-3.59-5.989-3.59-5.989s30.33-4.78 36.91-16.94c-8.17 1.195-21.74 4.794-21.74 4.794s20.35-18.15 24.53-34.878c-7.07 3.327-20.25 17.378-20.25 17.378s-1.49-7.32-6.28-7.169c-4.78.152-6.43 2.844-6.43 2.844s-7.33-3.388-9.22-6.882c-1.91-3.494-6.39-4.886-6.39-4.886s11.67-10.164 10.07-21.719c-1.59-11.556-9.97-10.361-14.36-11.254-4.39-.907-11.97-11.964-14.37-18.437-2.39-6.489-3.3-25.32-3.89-35.484-.6-10.164.9-21.674-2.69-24.215-3.59-2.541-.89-17.334-2.85-17.636-1.94-.288-3.89 8.818-4.33 21.084-.45 12.252-8.08 54.557-20.8 67.852 1.95.454 7.04-2.087 7.04-2.087s-9.74 13.159-16.02 13.007c9.87 2.693 20.5-6.73 20.5-6.73s.3 11.056-1.5 15.095c-1.78 4.038-31.56 8.515-35.91 6.125-4.33-2.39-9.87-4.779-11.66-4.477-1.8.303 2.09 8.364 8.37 12.252 6.29 3.887 18.7 6.428 18.7 6.428s-7.17 5.823-3.74 12.554c3.46 6.73 5.7 6.428 5.7 6.428s-15.42 7.925-18.41 17.197c-2.99 9.257 1.8 19.134 7.63 21.523-2.09 4.477-27.53 17.031-36.36 15.534-8.82-1.482-10.62.302-10.47 3.6.15 3.282 9.72 8.061 22 7.32 5.39 2.541 2.69 5.672-1.05 5.536 8.68 5.823 30.68-2.541 30.68-2.541s-7.79 8.213-8.09 12.251c14.96-.605 20.05-11.359 20.05-11.359s-.9 15.549-12.72 34.682c-11.83 19.119-25.74 24.503-25.74 24.503s7.48.303 13.63-.438c-1.06 5.974 7.17 11.797 17.5 9.407-6.28 5.234-5.54 12.706-7.19 17.047-1.64 4.325-7.03 7.32-13.31 8.818-6.28 1.497-9.21-2.738-21.85-2.541l-3.28.045s4.28-4.689 7.87-7.971 3.59-8.47-.3-13.446c-3.88-4.992-9.88-3.6-14.16-4.099-4.28-.484-5.89-3.282-5.89-3.282s23.35-5.975 27.04-10.966c3.68-4.976 16.76-25.305 10.27-31.975-6.48-6.685-10.27 6.171-19.25 2.587-8.98-3.585-9.48-4.886-20.45-2.39l5.19-4.689s-11.28-6.277-22.95-11.359c-11.66-5.082-17.15-11.661-17.15-11.661s4.78-6.867 8.78-7.971c3.99-1.09 8.78-4.281 9.87-11.662 1.1-7.366 4.49-14.051 1.1-15.836-3.39-1.8-13.97 3.479-20.25 2.39-6.29-1.104-23.94-11.964-28.53-16.245-4.59-4.28-13.67-4.689-13.67-4.689s.5-6.473-1.59-8.969c-2.09-2.48 7.59-10.86 10.98-9.665 3.39 1.195 30.91 7.185 42.39-1.891-12.76 1.392-31.33-9.165-31.33-9.165s25.83-2.587 31.42-9.469c5.59-6.866 13.57-13.854 8.48-18.634-5.09-4.779-12.96 4.084-17.35 1.603-4.39-2.495-15.76-9.574-22.85-10.466 21.46-2.103 43.09-25.017 44-29.298.89-4.28-.5-8.47 2.59-13.945 3.09-5.491 2.69-14.354 2.69-14.354s-17.5 23.52-39.35 27.558c-21.84 4.023-38.3 2.541-49.37-5.989-11.08-8.516-7.04-24.367-7.04-24.367s8.83 2.254 19.61 2.254c-6.13-9.423-12.43-10.316-12.43-10.316s10.47-1.043 7.57-11.132c6.57 3.736 28.64-1.573 34.34-10.542-4.43.363-8.39.514-8.39.514s3-1.709 3.3-5.596c.29-3.888-15.87-11.737-15.87-11.737s.82-3.071-.74-4.629c-1.57-1.573-3.82-1.8-3.82-1.8s.97-2.919-3.37-8.288c-4.33-5.385-9.12-5.763-9.12-5.763s-.07-8.667.52-8.742c.6-.076 2.39 2.541 4.93 1.497 2.55-1.044 2.03-7.033.53-14.202-1.49-7.17-9.73-16.971-12.12-21.599-2.39-4.629-5.91-7.396-5.98-15.171-.08-7.774-.53-12.176-1.58-15.246-1.04-3.07-3.66-4.931-3.74-9.272-.07-4.326-1.94-18.15-3.59-18.679-1.65-.53-.66 11.813-2.46 15.7-1.81 3.887-.97 12.917-1.12 19.496-.16 6.579-.38 12.932-2.03 16.592-1.64 3.661-16.31 34.455-16.31 34.455s9.51-6.67 11.9-11.253c-2.03 10.739-3.44 15.368-3.44 15.368h4.49s-13.39 14.429-19.58 19.209c-6.18 4.779-.8 21.916-3.29 26.196-2.49 4.296-17.15 2.602-17.15 2.602s7.77 4.583 15.55 6.08c-11.17 3.676-37.31 2.783-44.88-4.492 15.46 19.935 33.51 21.024 33.51 21.024s-18.55 3.993-31.72-.287c9.18 9.166 27.43 17.333 39 15.034-2.89 7.185-30.61 31.793-30.61 31.793s10.87-.998 16.46-6.579c.28 5.687 1.28 10.164 1.28 10.164s7.79-7.366 13.28-12.357c5.48-4.977 23.53-31.582 23.53-31.582s-12.37 34.773-23.33 49.717c-10.98 14.959-40.11 38.463-40.11 38.463s7.19 1.104 11.67-1.195c5.89 8.38 22.85 5.581 22.85 5.581s-7.98 15.443-9.93 22.023c-1.94 6.579-20.79 19.436-20.79 19.436s10.92-17.636 7.03-20.329c-3.89-2.692-13.18 11.662-28.88 13.598-15.71 1.951-31.71-4.629-31.71-4.629s13.36-9.362 13.56-13.658c.2-4.28-16.56-8.47-20.54-18.331-4-9.862-9.09-25.91-9.09-25.91s13.67 18.937 20.24 22.627c6.59 3.676 14.57 8.667 18.26 10.452 3.7 1.8 21.74 1.195 21.74 1.195l-19.34-7.472s21.74-1.694 21.95-9.362c.2-7.669-17.67-9.968-30.04-24.216-12.35-14.248-28.02-31.082-28.02-31.082s9.97 3.282 12.67 6.171c2.69 2.889 11.97 3.887 16.65 3.282 4.7-.59 12.27 1.498 17.85-4.87-6.37 1.286-10.07-.605-10.96-2.496-.91-1.89-7.89-5.687-12.47-7.577-4.59-1.891-7.18-8.168-14.16-15.64-6.98-7.472-15.96-23.217-15.96-23.217s14.55-1.392 22.24-12.751c7.68-11.374.09-19.133-1.1-19.133-1.2 0-7.88 1.588-14.66-.998-6.78-2.602-10.57-8.576-13.76-8.47 1.2-5.884-5.3-12.857-7.98-15.352-2.69-2.496-3.89-8.471-3.3-9.771.61-1.286 19.65-2.284 19.65-12.252 0-9.967-8.67-16.244-16.76-16.94-8.07-.696-4.78-15.745-11.46-21.826-6.69-6.08-2.41-62.875-8.28-64.176-5.89-1.285-2.3 9.68-8.78 20.54-6.48 10.86-3 20.026-3.29 29.994-.3 9.952-4.69 17.53-4.89 24.215-.19 6.67-6.08 9.362-7.08 14.641s0 7.88-1.8 12.357c-1.79 4.493-16.75 8.97-16.86 12.857-.1 3.887 5.48 16.637 12.68 17.242-13.37 3.086-7.39 11.556-13.28 14.642-5.88 3.085-17.94 7.774-22.74 9.861-4.79 2.103-14.16 9.665-14.07 14.551.11 4.885 12.98 8.183 12.98 8.183l-12.17 11.449s12.76-2.692 20.54-6.473c7.78-3.782 18.37-1.589 18.37-1.589s-9.19 15.534-20.35 22.915c-11.18 7.366-10.33 13.568-20.11 15.337-6.58 1.195-10.78-.438-17.21 4.492-6.42 4.931-18.55 17.334-22.14 17.334s-14.37.302-21.39 11.207c10.92-5.218 18.7-5.823 24.39-1.043l-11.98 12.705s10.48-5.233 19.75-8.364c9.28-3.146 16.01-8.228 27.39-6.58-4.2 10.013-12.42 24.064-19.46 30.19-7.03 6.126-23.04 16.441-28.87 26.016 12.56-7.034 20.19-11.208 25.74-11.208 5.52 0 24.52-7.336 37.1-18.846 12.57-11.51 32.62-34.516 32.62-34.516s-3 19.421-9.72 31.975c-6.74 12.569-14.37 16.441-17.52 25.41-3.13 8.969-15.26 15.7-18.55 20.041-3.28 4.326-14.37 8.213-18.56 18.377 11.37-5.233 45.65-5.384 45.65-5.384s-25.74 16.002-44.15 27.815c-18.4 11.797-39.5 15.987-46.09 15.246-6.57-.756-26.76 1.195-33.35 5.974 10.48.303 16.31.59 19.15 4.78 2.83 4.19 6.72.741 12.87 3.433 6.13 2.693 15.4 3.449 32.16-.59 16.76-4.038 40.26-8.379 40.26-8.379s-27.7 20.177-42.35 21.387c-14.67 1.195-30.52-1.346-35.31 1.044 4.04 7.169 11.07 8.364 17.2 9.12 6.13.741 15.57 6.716 15.57 6.716l-14.22 7.033s8.98 1.936 25.43-1.346c16.46-3.297 25.14-8.531 25.14-8.531s-1.4 8.969-7.68 13.658c-6.28 4.689-11.07-3.388-20.35 4.281-9.28 7.683-14.26 1.996-17.85 4.386-3.59 2.39-11.17-3.388-18.06.605-6.87 3.978-11.17 12.357-12.37 18.18-1.2 5.839 1.65 5.385-1.79 10.921-3.45 5.521-6.88 8.969-14.36 11.056-7.48 2.088-9.72 11.662-14.81 11.949-5.09.303-13.76.757-17.22 1.8 9.29-9.272 10.63-27.8 10.63-27.8s-14.36 15.398-16.15 20.631c4.48-15.095-2.41-63.828-2.41-63.828s-6.72 25.561-11.22 45.133c-4.48 19.587-10.02 34.985-10.02 34.985s-10.33 9.12-12.26 9.12c-1.96 0-2.62-2.617-4.94-1.951-2.32.681-4.34 14.505 4.03 23.323-6.22 6.822-15.7 7.623-18.5 5.929-2.79-1.694-14.36-2.586-17.55-4.19-3.2-1.588-18.41-.695-25.44 1.846-7.04 2.541-15.56 2.737-17.26.544-1.69-2.193-13.96-.998-18.74-2.087-4.8-1.104 2.18-8.773 8.27-12.251 6.08-3.494 6.58-17.44 3.99-19.935-2.59-2.496-18.95 1.391-20.75-2.088-1.79-3.494 13.77-7.275 17.56-6.882 3.78.394 22.85-1.3 22.85-1.3s-9.68-5.672-16.46-6.474c7.57-2.889 11.46-15.05 11.57-19.723.1-4.689 17.06-17.545 25.63-39.764-12.57 10.36-38.5 33.078-58.25 30.492 21.35-4.583 37.9-27.21 37.9-27.21s-26.74 17.152-42.2 10.769c-15.45-6.383-17.65-5.188-17.65-5.188s3.54-6.897 9.68-8.394c6.13-1.498 7.7-8.516 4.93-11.586-2.75-3.056-9.57-3.963-11.07-6.05-1.5-2.088 13.33-.379 14.96-2.617 1.65-2.239 10.18-1.649 13.99-.439 3.82 1.195 12.95-2.994 12.95-2.994s-3.59-3.963-9.95-5.975c-6.36-2.027-5.69-4.114-5.32-4.719.38-.59 5.77-.59 11.68-2.541 5.9-1.936 12.03-10.391 12.03-10.391s-11.79 4.19-23.45 2.995c-11.67-1.195-17.26-2.995-18.95-4.977-1.7-1.996-5.29-1.89-5.29-1.89s.12-3.963-2.5-7.699c-2.61-3.736-9.5-5.309-9.12-8.304.37-2.994 9.58-2.162 13.68-10.754 4.12-8.606-4.48-12.493-8.22-15.775s-8.31-7.926-8.31-7.926 15.34 4.341 23.57.303c-8.01-2.572-20.85-11.949-24.77-16.517-3.59-4.19-2.69-18.392-2.39-30.039.3-11.661 3.89-52.015 3-52.015-.91 0-5.54 21.069-6.89 29.434-1.35 8.379-5.83 14.051-6.87 17.636-1.06 3.599 1.04 14.505-2.55 19.587-3.59 5.082-17.06 11.812-16.91 13.597.15 1.8-7.78 4.538-7.78 4.538s15.41 2.737 20.04 0c4.65-2.738 2.4 6.685.31 9.362-2.09 2.692-3.89 8.682-4.64 14.354-.75 5.687-6.43 2.995-9.13 7.033-2.69 4.024-5.08 4.78-5.08 6.428 0 1.634 7.93 3.283 8.67 6.277.74 2.98-5.89 14.4-12.37 17.485-6.48 3.086-14.46 5.385-15.15 9.166-.7 3.781 2.28 7.381 2.28 7.381s.5 5.778 4.4 5.869c3.89.106-16.77 4.885-23.84 1.195-7.08-3.676-3.19 9.165.9 11.767 4.09 2.586 4.98 6.867 9.57 8.863 4.58 1.997 12.67-.499 12.67-.499s-4.59 19.829-8.09 19.134c-3.48-.696-7.87-7.276-10.96-13.447-3.1-6.186-7.69-13.355-11.08-15.745-3.39-2.39-14.76-24.019-15.55-31.097-.8-7.079-5.19-21.327-5.19-21.327s12.76 13.961 19.65 16.35c6.87 2.39 16.85-.695 16.85-.695s-10.46-5.778-16.65-9.575c9.58 3.797 36.5-9.665 36.5-9.665s-14.16-2.389-22.94-1.497c1.39-2.98 31.86-11.132 33.42-23.716-9.78-.893-24.05 4.295-24.05 4.295s-.28-2.995-6.28-4.189c-5.98-1.195-17.85-3.585-22.33-9.862-4.5-6.277-16.87-27.407-14.37-32.292 2.48-4.886 7.28-9.166 6.18-14.551 4.19 6.383 15.06 5.279 20.15 5.385 5.09.091 12.76-.393 20.85-4.387-9.87-2.283-28.03-4.386-28.03-4.386s16.35-.196 23.44-6.277c7.09-6.08 12.48-13.855 12.48-13.855l-18.96 4.886s1.79-7.669-1-8.561c-2.8-.907-14.06 1.089-20.65-9.272-6.59-10.36-12.67-19.632-12.67-19.632l1.8-6.277s9.78 4.477 15.96 1.301c6.19-3.192 11.56-10.467 11.56-10.467s19.37-4.583 19.57-14.944c-.2-2.994-13.87-.605-18.46-.998-4.59-.408-12.57-7.184-13.48-10.663-.89-3.494.14-7.699-2.08-9.075-2.2-1.346-8.29-.197-9.79-1.74-1.48-1.542-7.13-9.816-7.13-9.816s7.24 5.536 12.37 4.281c5.15-1.241 8.98-3.237 8.98-3.237s-5.03-8.712-13-11.601c-8-2.889-6.09-4.931-4.15-5.143 1.94-.196 6.63-1.285 8.17-5.929 1.55-4.628 2.82-8.742-1.97-13.144-4.78-4.416-5.9-8.742-4.7-11.359 1.19-2.616-.31-11.888-3.15-15.17-2.83-3.298-3.29-11.964-3.21-15.851.07-3.888-2.62-18.09-2.62-18.09s-3.94 20.706-4.44 25.788c-.5 5.082.3 12.751-3.3 17.742-3.59 4.976-6.28 6.776-4.98 14.248 1.3 7.472-1.59 13.144-5.78 17.939-4.2 4.779-5.5 10.753-3.2 13.446 2.29 2.692 8.87 1.89 10.37 4.084 1.5 2.193 1.31 14.157-3.39 17.545-4.69 3.388-13.76 11.162-28.82 11.752-15.07.605-19.35 5.279-22.85 2.692-3.48-2.586-5.57-4.779-8.18-1.497-2.59 3.297-11.76 13.159-12.17 17.243-.39 4.084 8.89 2.889 12.08.393 3.18-2.481 2.49 4.386 11.96 1.996-4.28 6.58-12.37 16.744-17.15 16.638-4.79-.091-5.98-.393-5.78 2.602.19 2.979 4.39 5.581 10.87 4.386 6.48-1.21 22.84-3.887 26.32-9.468 3.5-5.582 4.4-6.882 5.59-6.776 1.2.09 0 2.979 2.5 5.278 2.5 2.284 12.57 1.195 12.57 1.195s-21.85 16.048-37.81 20.419c7.39 2.798 16.76-.091 16.76-.091s-16.15 10.165-23.54 10.165c-7.38 0-7.68 3.085-13.96.499-6.28-2.587-22.45-10.573-25.35-10.361-2.89.197 2.11 7.865 5.2 9.952 3.09 2.103 3.49 2.193 5.98 5.884 2.5 3.691 7.19 6.383 12.08 6.882 4.87.499 21.14.393 22.44 1.891 1.28 1.497-11.83 12.1-18.85 11.812-7.04-.302-16.91-.453-17.81 1.634-.91 2.102 7.63 3.448 9.12 5.687 1.5 2.239 8.39-.605 11.38 0 2.99.59 6.88 2.692 11.81-.303 4.94-2.994 7.63-3.282 11.98-3.282 4.33 0 14.96-8.228 14.96-8.228s-6.74 9.574-11.07 12.857c-4.35 3.282-12.13 8.076-12.13 8.076s16.76-1.497 34.57-16.153c-1.05 10.769-2.4 26.907-26.79 44.695-24.39 17.787-77.5 16.138-84.24 14.943 7.35 7.336 13.92 9.423 15.87 14.657-8.98 1.043-14.37.151-14.37.151s11.83 6.867 25.44 5.082c13.62-1.8 23.65-8.515 23.65-8.515s-13.17 15.987-23.35 17.923c-10.17 1.951-31.13-.741-31.13-.741s10.19 10.618 17.37 12.402c7.18 1.8 9.72 3.449 12.57 5.234 2.84 1.799 30.52-8.213 30.52-8.213l-19.76 13.295s19.45.756 35.02-12.403c15.56-13.159 24.83-22.869 26.48-21.674 1.65 1.195-9.28 17.484-27.53 32.277-18.25 14.807-39.06 26.318-60 26.756 7.33-5.974 17.91-10.255 20.7-16.834-10.37 4.28-27.74-4.084-27.74-4.084l8.78-3.282s-55.15-18.846-59.04-37.677c-3.89-18.831-7.18-20.131-7.18-26.908 0-6.776-3.89-11.359-3.89-11.359s16.96 11.465 24.74 11.859c7.77.408 28.02-4.931 28.02-4.931l-13.76-5.037s28.83 1.8 40.4-6.776l-19.96-.091s10.08-5.384 14.67-5.279c4.59.091 8.48-3.993 10.27-6.685 1.8-2.692 5.69-9.559 2.6-11.359-3.1-1.785-16.46 4.296-26.13 5.581-9.69 1.301-22.54-2.586-32.93-7.169-10.37-4.583-12.26-6.973-12.26-6.973s9.37 2.088 19.04 0c9.68-2.102 14.76-10.663 21.65-13.159 6.89-2.495 6.79-4.28 10.07-5.278 3.3-.999 15.07-11.163 15.07-11.163s-19.35 10.361-34.62 7.578c-15.26-2.798-19.93-1.195-25.13-4.885-5.19-3.691-12.37-7.382-16.26-10.27-3.89-2.889-9.08-8.365-14.15-15.64-5.09-7.275-9.09-15.942-8.39-18.332.69-2.389 2.69.787 5.98 1.589 3.3.801 7.78-3.192 11.58-2.39 3.79.801 7.57 6.171 12.66 6.67 5.08.499 11.47-3.176 15.56-1.497 4.09 1.694 16.57 2.994 29.22.105-8.76-5.672-14.26-5.082-14.26-5.082s19.56-6.382 26.34-13.249c-10.08-.303-23.74 5.581-31.23 5.082-7.48-.499-26.22-11.163-26.22-11.163s17.15-6.171 20.85-12.251c3.67-6.08 12.46-23.323 5.58-26.711-6.89-3.388-17.95 8.576-29.52 4.19-11.58-4.387-27.13-15.307-29.68-16.941-2.54-1.648-.9-5.687 6.29-7.774 7.17-2.102 10.76-4.779 13.31-7.926 2.54-3.13-.38-7.018.07-10.905.46-3.887 1.2-9.045-.67-9.65-1.87-.59-11 .076-14.21-1.633-3.23-1.724-10.71-4.039-11.22-5.158-.53-1.134.82-2.919 1.63-5.082.84-2.178-.59-12.705-.59-12.705s8.68 5.158 12.12 5.672c3.45.529 12.12-5.158 12.12-5.158l-13.32-5.899s17.38-7.547 16.31-13.975c-.29-1.8-6.8 1.573-12.72-2.844-5.91-4.401-13.08-6.957-13.23-12.781-.16-5.823-4.71-7.018-3.67-15.019 1.05-8.001-2.18-8.364-2.1-13.446.07-5.082-1.49-9.348-2.32-12.645-.82-3.282-1.01-29.494-1.01-29.494-1.41 6.988-6.2 20.54-6.39 27.513-.2 6.972 2.19 11.949 0 17.333-2.2 5.385-7.48 12.055-7.09 15.851.41 3.782-3.89 6.565-4.39 10.059-.5 3.494-2.89 7.668-8.87 11.661-5.98 3.978-11.76 3.781-12.07 5.581-.3 1.785.7 3.479 8.07 6.776-10.76 4.78-23.13 6.081-23.13 6.081s11.37 2.586 16.65 2.087c5.29-.499 18.76-.998 23.55-4.477 1.39-.998 3.08-.212 1.8 2.481-1.31 2.692-9.28 10.859-16.96 14.157-7.69 3.282-8.78 7.472-7.98 10.058.79 2.586 4.88 3.796 8.37 2.496 3.5-1.301 5.39-1.694 7.09-1.301 1.69.408 4.89.499 7.18-1.286 1.1 3.887 1.8 9.665-4.29 12.947-6.09 3.283-15.46 4.281-18.65 6.474-3.2 2.193-36.5 1.104-40.7-.696 7.68 7.88 19.24 8.576 19.24 8.576s-4.17 5.173-11.96 8.062c-7.78 2.889-19.56-1.195-22.34.907-2.8 2.088 2.3 9.257 6.17 12.554 3.9 3.282 10.18 2.783 11.98 4.19 1.8 1.392 9.37 2.677 9.37 2.677s-5.48 5.687-13.56 7.079c-8.07 1.391-9.68 6.08-9.18 7.88.5 1.785 6.69 5.173 11.37 5.868 4.7.696 9.68-1.89 14.76-.892 5.09.998 13.57 0 15.11-1.588 1.56-1.603 4.05-5.581 5.94-5.188 1.91.393 6.69 8.969-.09 17.243-6.79 8.273-35.72 31.778-85.29 24.608 7.68 8.97 31.02 9.575 31.02 9.575s-13.17 4.326-17.95 7.759c13.76 5.233 23.63-.59 29.17.605 5.55 1.195 13.33 0 18.11 2.238 4.79 2.239 12.42 2.844 15.41 0 2.99-2.843 8.98 0 13.62.303 4.63.302 11.21-6.126 11.21-6.126s-4.17 10.905-13.02 21.221c-8.82 10.315-39.78 21.523-65.52 21.674-25.74.151-33.67-1.936-34.27 1.346-.6 3.283 7.48 10.013 12.57 13.295 5.09 3.298 28.57 4.19 33.67 5.098 5.09.892 1.49 5.082-8.08 6.564-9.59 1.497-13.61 1.497-14.52 3.585-.89 2.102 8.98 8.53 15.26 8.379 6.28-.151 7.78-3.146 12.72-2.239 4.93.893 8.39-2.994 11.82-2.994 3.44 0 5.54 3.146 9.72-.152 4.2-3.282 10.48-2.541 11.52-.438 1.06 2.087 9.13 2.828 16.02-.152-7.19 7.321-14.06 20.616-28.58 27.649-14.51 7.018-27.22 4.477-33.22 9.862-5.98 5.385-7.63 6.428-7.63 8.969 0 2.541 10.17 3.887 18.56 3.585 8.37-.303 28.87-2.087 41.29-14.339-9.28 10.452-13.31 18.982-13.31 18.982s18.4-8.53 26.63-16.456c8.22-7.91 12.26-12.251 13.76-11.359 1.5.908 2.7 6.141 11.83 3.6-5.39 9.105-8.09 17.485-18.87 24.215-10.76 6.716-19.13 17.183-27.52 22.113-8.37 4.931-23.04 15.398-42.79 15.549-19.76.151-26.78.892-32.76 0-6-.892-11.67 1.649-11.82 4.038-.16 2.39 2.98 3.888 10.91 10.013 7.93 6.126 17.5 3.887 17.5 3.887s-11.81 8.818-23.48 10.165c-11.67 1.346-20.04 1.648-25.59 2.979-5.54 1.346-23.63-1.936-23.63-1.936s7.03 11.51 21.09 15.7c14.07 4.175 37.56 3.434 57.46-5.384-13.33 11.207-38.46 23.761-38.46 23.761s9.72 6.731 21.55 2.693c11.82-4.039 14.06-8.97 17.95-8.516 3.89.439 7.78 1.785 14.67-2.102 6.88-3.888 12.27-2.829 15.55-4.78 3.3-1.936 8.39-7.321 8.39-7.321s-1.8 8.819-7.34 14.944c-5.53 6.126-5.53 10.618-5.53 10.618s9.13-4.492 17.96-7.774c8.82-3.298 38.3-26.757 38.3-26.757s-8.08 21.977-32.17 35.726c-24.09 13.749-53.11 33.185-63.29 39.613-10.17 6.428-20.35 24.367-20.35 24.367s59.4-25.411 77.66-37.677c-34.42 24.669-58.06 47.825-81.26 52.62-23.18 4.78-29.61 7.17-36.65 5.521-7.03-1.634-9.42-2.541-10.62 1.8-1.19 4.341 11.07 13.446 14.36 16.895 3.3 3.433 22.89-1.044 22.89-1.044s-6.29 7.759-5.38 11.495c.9 3.751 15.55 7.033 33.81 0 18.26-7.018 24.85-14.036 27.37-13.597 2.55.453 1.2 8.379 11.09 8.076 9.87-.302 23.78-13.007 26.33-12.856 2.54.151 5.69-1.497 5.69-1.497s-50.09 61.786-68.04 76.538c-17.96 14.74-44.29 42.24-44.29 42.24-10.56 0-22.54.41-22.34 4.19.21 3.78 1457.1 0 1457.1 0s6.78-13.36-2.79-28.1z"/></g><defs><clipPath id="a"><path fill="#fff" d="M0 0h1920v1000H0z"/></clipPath></defs></svg>