<svg width="23" height="27" viewBox="0 0 23 27" fill="none" xmlns="http://www.w3.org/2000/svg">
<path d="M0.858876 23.437C0.71644 23.3127 0.56969 23.1988 0.408329 23.1013C0.323665 23.0496 0.231362 23.1696 0.302746 23.2393C0.430905 23.3629 0.558732 23.4869 0.681247 23.6162C0.774876 23.7154 0.848253 23.8243 0.990025 23.8331C1.03518 23.8357 1.08 23.7908 1.07701 23.7448C1.06838 23.6024 0.961137 23.5264 0.858876 23.437Z" fill="#050505"/>
<path d="M1.34132 23.2688C1.15804 23.0945 0.988716 22.9052 0.821047 22.7162C0.734722 22.6191 0.564395 22.7491 0.640759 22.8567C0.782199 23.056 0.927291 23.253 1.08068 23.4431C1.19855 23.5891 1.36755 23.8447 1.58303 23.7919C1.63117 23.7801 1.66636 23.7311 1.66603 23.6819C1.66404 23.4983 1.46051 23.3817 1.34132 23.2688Z" fill="#050505"/>
<path d="M2.50406 23.8331C2.40147 23.5727 2.16939 23.3823 1.98578 23.1752C1.73577 22.8934 1.509 22.5959 1.28356 22.2933C1.20786 22.1919 1.00101 22.2488 1.05945 22.3893C1.17964 22.6773 1.34764 22.931 1.53722 23.1776C1.7444 23.4471 1.99674 23.8303 2.29456 23.9955C2.39416 24.0511 2.55287 23.9577 2.50406 23.8331Z" fill="#050505"/>
<path d="M2.48305 22.7491C2.20083 22.4003 1.90501 22.0693 1.57598 21.7647C1.46043 21.6581 1.30206 21.8195 1.40532 21.9372C1.69085 22.2632 1.95613 22.61 2.21677 22.9565C2.39805 23.1974 2.58498 23.6041 2.85856 23.7416C2.97377 23.7992 3.08732 23.7053 3.06508 23.581C3.01228 23.2865 2.66599 22.9759 2.48305 22.7491Z" fill="#050505"/>
<path d="M0.446489 23.6967C0.371785 23.5455 0.196812 23.4815 0.0978702 23.3391C0.0576961 23.2815 -0.0216571 23.3301 0.00556833 23.3938C0.0693157 23.5419 0.169917 23.7539 0.316336 23.828C0.403325 23.8718 0.489651 23.7844 0.446489 23.6967Z" fill="#050505"/>
<path d="M3.85104 23.4547C3.67109 23.2034 3.48914 22.9538 3.30055 22.7089C3.09404 22.4411 2.83241 22.1936 2.64416 21.9151C2.51566 21.7261 2.20257 21.3931 1.97514 21.3431C1.92866 21.333 1.89081 21.3461 1.86126 21.3697C1.85761 21.3716 1.85296 21.3706 1.84964 21.3733C1.84731 21.3749 1.84765 21.3777 1.84565 21.3794C1.84399 21.3811 1.84333 21.383 1.842 21.3847C1.66006 21.5613 2.13849 21.9362 2.23113 22.033C2.71421 22.5356 3.11429 23.1441 3.54027 23.697C3.67773 23.8756 3.98252 23.6381 3.85104 23.4547Z" fill="#050505"/>
<path d="M4.95333 23.5322C4.87597 23.3528 4.64987 23.2493 4.50809 23.1213C4.24215 22.8811 4.00708 22.605 3.77865 22.3292C3.36463 21.8304 2.94197 21.3053 2.64647 20.7232C2.58937 20.6106 2.42435 20.691 2.45125 20.8063C2.60663 21.4799 3.06448 22.0967 3.48316 22.6275C3.75043 22.9665 4.34706 23.8604 4.85173 23.7848C4.97126 23.7663 4.99218 23.6219 4.95333 23.5322Z" fill="#050505"/>
<path d="M5.85304 23.6443C5.52534 23.0607 4.97718 22.5856 4.53826 22.0849C4.00338 21.4754 3.50369 20.8385 2.99238 20.2093C2.93726 20.1416 2.80977 20.214 2.84364 20.2964C3.10029 20.9219 3.47281 21.4945 3.89314 22.021C4.40545 22.6627 4.92339 23.4246 5.58245 23.9175C5.74979 24.0427 5.94435 23.8065 5.85304 23.6443Z" fill="#050505"/>
<path d="M7.02206 23.4661C5.95761 22.1265 4.90711 20.6429 3.4977 19.6504C3.36987 19.5599 3.22876 19.7569 3.33467 19.8635C4.55418 21.0881 5.51902 22.5353 6.71959 23.7717C6.91714 23.9747 7.19039 23.6782 7.02206 23.4661Z" fill="#050505"/>
<path d="M8.54177 23.448C6.77644 21.5744 4.95831 19.7144 3.28162 17.7593C3.09536 17.5429 2.78725 17.8575 2.97052 18.0732C4.63028 20.0254 6.37968 21.9962 8.20312 23.7897C8.42457 24.0079 8.7546 23.6739 8.54177 23.448Z" fill="#050505"/>
<path d="M3.29091 18.7721C3.23745 18.5906 3.09568 18.4931 2.95491 18.3781C2.78956 18.2431 2.63385 18.0953 2.46851 17.9596C2.32341 17.8407 2.14645 18.0196 2.26431 18.166C2.38384 18.3144 2.50602 18.4598 2.63152 18.6033C2.76566 18.7558 2.86626 18.9351 3.06912 18.9961C3.19961 19.0348 3.32976 18.9038 3.29091 18.7721Z" fill="#050505"/>
<path d="M2.39612 18.9035C2.36325 18.7738 2.2829 18.739 2.18662 18.6576C2.07871 18.5664 1.9894 18.4529 1.89975 18.344C1.79649 18.2186 1.61654 18.3784 1.68527 18.5111C1.79284 18.7182 1.96383 19.13 2.2414 19.1086C2.34565 19.1005 2.42301 19.0114 2.39612 18.9035Z" fill="#050505"/>
<path d="M12.9181 26.5142C11.9084 24.7558 10.1736 23.5646 8.71807 22.2089C6.86541 20.484 4.99316 18.751 3.34303 16.8248C3.23645 16.7001 3.03359 16.862 3.11925 16.999C4.29758 18.8818 6.07156 20.2417 7.60647 21.8102C9.18655 23.4242 11.3101 24.8108 12.4602 26.7846C12.6336 27.0817 13.0901 26.8137 12.9181 26.5142Z" fill="#050505"/>
<path d="M12.1411 26.5712C11.3931 25.7258 10.4691 25.0043 9.67157 24.2019C9.54905 24.0786 9.31863 24.2451 9.42587 24.3928C10.0883 25.3056 10.9502 26.2726 11.9011 26.8852C12.0986 27.0121 12.2852 26.7344 12.1411 26.5712Z" fill="#050505"/>
<path d="M11.2172 26.7956C11.1764 26.6446 11.0857 26.5903 10.9586 26.5065C10.7836 26.3905 10.6176 26.2625 10.4536 26.1315C10.1408 25.8813 9.84066 25.6096 9.58534 25.299C9.4937 25.188 9.3257 25.3304 9.39243 25.449C9.59961 25.8169 9.86788 26.1262 10.168 26.4197C10.3888 26.6354 10.7753 27.0503 11.105 26.995C11.1916 26.9803 11.2385 26.874 11.2172 26.7956Z" fill="#050505"/>
<path d="M12.8566 24.9532C9.41692 22.6707 7.0928 18.9467 3.82806 16.3983C3.70887 16.3051 3.54452 16.4559 3.65741 16.5705C5.275 18.216 6.98024 19.7728 8.5208 21.4945C9.78645 22.9089 11.0086 24.3303 12.6468 25.3154C12.8789 25.4547 13.0787 25.1002 12.8566 24.9532Z" fill="#050505"/>
<path d="M12.8646 23.6762C11.4658 22.6539 10.4389 21.2647 9.21775 20.0507C7.69578 18.5373 6.09944 17.0811 4.46492 15.6923C4.33245 15.5797 4.14253 15.7633 4.27168 15.8873C5.82188 17.375 7.33222 18.9025 8.90333 20.3681C10.1949 21.5733 11.1644 23.0601 12.6389 24.0662C12.8809 24.2315 13.0941 23.8441 12.8646 23.6762Z" fill="#050505"/>
<path d="M14.0819 23.4128C12.6303 22.1363 11.2873 20.7971 9.93562 19.4105C8.43689 17.8736 6.68882 16.6301 5.21034 15.0667C5.1104 14.9615 4.92514 15.1009 5.00814 15.2242C6.12505 16.8831 7.8718 17.9717 9.28885 19.3478C10.7627 20.7795 12.0038 22.739 13.8395 23.7302C14.0331 23.8344 14.2592 23.5689 14.0819 23.4128Z" fill="#050505"/>
<path d="M15.952 23.4493C12.2288 21.0409 9.33062 17.3267 5.81455 14.5959C5.68805 14.4974 5.53665 14.7072 5.64688 14.8154C7.36972 16.5085 9.1988 18.09 10.9359 19.7689C12.4512 21.2339 13.8769 22.8057 15.6824 23.9147C15.9783 24.0966 16.2409 23.6357 15.952 23.4493Z" fill="#050505"/>
<path d="M17.7635 23.5174C13.1511 20.2582 9.25287 15.8943 4.89713 12.2887C4.77163 12.1845 4.59433 12.353 4.71518 12.4723C6.90849 14.6375 9.21336 16.6871 11.4764 18.7769C13.425 20.5765 15.3195 22.4559 17.4995 23.9727C17.7784 24.1667 18.0367 23.7107 17.7635 23.5174Z" fill="#050505"/>
<path d="M5.5489 13.7268C5.44464 13.5244 5.19298 13.387 5.01701 13.251C4.81348 13.0935 4.60398 12.9464 4.38584 12.811C4.20788 12.7005 4.06577 12.9672 4.22581 13.0868C4.42103 13.2322 4.6063 13.3887 4.78559 13.5535C4.94429 13.699 5.07278 13.9157 5.26436 14.0136C5.45195 14.1097 5.64717 13.9174 5.5489 13.7268Z" fill="#050505"/>
<path d="M4.68008 13.8611C4.6253 13.7053 4.48951 13.6386 4.36434 13.5408C4.22057 13.4279 4.08278 13.3073 3.945 13.187C3.83842 13.0938 3.69864 13.2346 3.79094 13.3424C3.91013 13.4812 4.02999 13.6185 4.15516 13.7519C4.27203 13.8765 4.37894 14.0119 4.55591 14.026C4.63626 14.032 4.70698 13.9375 4.68008 13.8611Z" fill="#050505"/>
<path d="M4.0193 13.8434C3.9436 13.696 3.73575 13.7372 3.70155 13.5566C3.68296 13.4577 3.5299 13.4829 3.53057 13.5804C3.5319 13.7754 3.74372 14.0789 3.95788 13.9962C4.02162 13.9714 4.05217 13.907 4.0193 13.8434Z" fill="#050505"/>
<path d="M18.8804 23.5331C17.5022 22.8221 16.4893 21.6863 15.3939 20.6117C14.0775 19.3194 12.5422 18.2399 11.1637 17.0138C10.4259 16.3574 6.24518 11.6253 5.50544 12.0206C5.51573 12.0153 5.51938 12.0005 5.51341 11.9905C5.49448 11.9603 5.47589 11.9298 5.45697 11.899C5.37197 11.7606 5.15084 11.8947 5.24248 12.0257C5.80326 12.8238 6.77275 13.4309 7.47264 14.1094C8.76154 15.3589 10.0345 16.6318 11.3758 17.8243C12.7248 19.0232 14.1917 20.08 15.4829 21.3452C16.4823 22.3245 17.3644 23.3368 18.6347 23.9573C18.915 24.094 19.1617 23.6778 18.8804 23.5331Z" fill="#050505"/>
<path d="M20.2477 23.6413C19.7978 23.0128 19.0707 22.5691 18.4634 22.106C16.9129 20.924 15.4155 19.5438 14.0628 18.1376C11.6321 15.6108 8.5198 13.705 6.26241 11.0375C6.17974 10.9397 6.01074 11.07 6.08511 11.1752C7.94076 13.7901 10.8947 15.8002 13.2115 17.9955C15.3703 20.0417 17.806 21.8293 19.9273 23.8907C20.0886 24.0475 20.3871 23.8363 20.2477 23.6413Z" fill="#050505"/>
<path d="M21.445 23.2429C18.9794 20.999 16.5202 18.732 14.0042 16.5464C12.8992 15.5867 11.8284 14.5584 10.672 13.6628C9.30444 12.603 7.77052 11.6333 6.77546 10.1794C6.6981 10.0665 6.5218 10.1657 6.59086 10.2883C7.91163 12.6325 10.6448 14.2927 12.6286 16.0404C15.466 18.54 18.2619 21.0888 21.0755 23.6159C21.3261 23.8411 21.696 23.4714 21.445 23.2429Z" fill="#050505"/>
<path d="M22.8876 22.9595C21.7435 22.1684 20.8278 21.0982 19.8058 20.1617C18.5325 18.9953 17.1082 18.0149 15.7678 16.9313C12.8647 14.5849 10.2331 11.9221 7.28876 9.6229C7.14167 9.50797 6.93217 9.70399 7.07892 9.835C9.86189 12.3148 12.5031 14.9535 15.3956 17.3076C16.7357 18.3976 18.1603 19.3666 19.4612 20.5095C20.5386 21.4561 21.4453 22.5832 22.6356 23.3945C22.9039 23.5767 23.1509 23.1417 22.8876 22.9595Z" fill="#050505"/>
<path d="M19.5757 18.4699C17.0381 16.861 15.05 14.539 12.7723 12.5996C10.7739 10.8978 8.68388 8.73731 6.29435 7.62389C6.18246 7.57195 6.0865 7.72842 6.1964 7.79309C8.81867 9.34009 11.1534 11.8192 13.4563 13.8166C15.4242 15.5231 17.0773 17.5398 19.3161 18.9182C19.6006 19.0938 19.8556 18.6475 19.5757 18.4699Z" fill="#050505"/>
<path d="M7.09082 8.68103C6.90224 8.54634 6.69307 8.43744 6.49817 8.31179C6.35872 8.22166 6.19968 8.04541 6.03467 7.99817C6.01807 7.97338 5.98421 7.95997 5.95864 7.98745C5.9447 8.0032 5.92942 8.01694 5.91249 8.02933C5.86236 8.07289 5.85737 8.15666 5.88925 8.21161C5.98952 8.38383 6.16449 8.50245 6.31921 8.62106C6.50149 8.76011 6.69639 8.90452 6.90091 9.00873C7.12004 9.12031 7.28771 8.82143 7.09082 8.68103Z" fill="#050505"/>
<path d="M5.88094 8.65624C5.7893 8.61033 5.696 8.54064 5.59009 8.5594C5.54394 8.56812 5.51439 8.62608 5.52834 8.66931C5.53398 8.68639 5.54826 8.69578 5.56021 8.7075C5.55722 8.70784 5.55423 8.70817 5.55091 8.70851C5.67874 8.81841 5.81719 8.93032 5.96427 9.02012C6.00677 9.04592 6.06488 9.04659 6.10738 9.02012C6.11103 9.01777 6.11501 9.01543 6.11833 9.01342C6.15319 8.99164 6.18075 8.9511 6.17843 8.90787C6.1698 8.76044 5.99349 8.7132 5.88094 8.65624Z" fill="#050505"/>
<path d="M20.1743 18.0746C17.9269 16.4663 16.0802 14.4461 14.0273 12.6083C11.7776 10.5942 9.32362 8.83514 7.12135 6.76108C7.03702 6.68134 6.92015 6.80129 6.99552 6.88807C8.98729 9.17691 11.4422 10.9427 13.7282 12.9102C15.8083 14.7001 17.5427 17.0891 19.9684 18.4297C20.2029 18.5594 20.3858 18.2261 20.1743 18.0746Z" fill="#050505"/>
<path d="M16.4654 13.6862C14.9079 12.6043 13.6462 11.2952 12.3261 9.93552C10.9798 8.54902 9.27685 7.32 7.71106 6.20959C7.66458 6.17675 7.61511 6.23907 7.63802 6.28364C8.57397 8.09165 10.9363 9.11192 12.3288 10.5574C13.3949 11.6645 14.7581 13.631 16.3356 13.9965C16.5268 14.0411 16.6214 13.7945 16.4654 13.6862Z" fill="#050505"/>
<path d="M17.477 13.4835C14.4832 10.8315 11.415 8.30976 8.57326 5.4855C8.47266 5.38598 8.33653 5.53241 8.42186 5.63795C10.9283 8.73865 14.1136 11.2687 17.1606 13.8032C17.3797 13.9854 17.6961 13.6778 17.477 13.4835Z" fill="#050505"/>
<path d="M18.421 13.4782C15.1957 10.7883 12.5589 7.45771 9.26258 4.85291C9.15534 4.76814 9.00394 4.90853 9.10852 5.00838C12.1438 7.89865 14.869 11.1247 18.0933 13.8085C18.322 13.9989 18.6514 13.6702 18.421 13.4782Z" fill="#050505"/>
<path d="M14.7701 8.76547C13.2601 7.11394 11.2673 6.0692 9.93257 4.22735C9.82799 4.08294 9.5989 4.20792 9.68987 4.37076C10.7905 6.34228 12.8361 7.59342 14.4872 9.05095C14.6804 9.2215 14.946 8.95814 14.7701 8.76547Z" fill="#050505"/>
<path d="M15.6098 8.54933C13.3634 6.40793 10.9957 4.42233 8.95682 2.06783C8.86884 1.96597 8.68922 2.10402 8.77023 2.21325C10.6355 4.71686 12.9553 6.82241 15.2741 8.88842C15.5019 9.09114 15.8342 8.76311 15.6098 8.54933Z" fill="#050505"/>
<path d="M9.65063 3.70363C9.47599 3.51633 9.23528 3.3833 9.04238 3.21242C8.84184 3.03517 8.66454 2.8338 8.5221 2.60629C8.45271 2.49538 8.28372 2.59389 8.34779 2.70882C8.47529 2.93867 8.63532 3.14139 8.81461 3.33237C9.00519 3.53475 9.24391 3.78572 9.49724 3.90467C9.62473 3.96431 9.75356 3.8142 9.65063 3.70363Z" fill="#050505"/>
<path d="M8.64437 3.52103C8.51455 3.39873 8.39802 3.2637 8.26886 3.14107C8.16925 3.04658 8.01852 3.16553 8.08226 3.28649C8.16195 3.43727 8.26952 3.56895 8.37743 3.70029C8.47006 3.81388 8.5597 3.96432 8.7111 3.9918C8.81967 4.0119 8.90102 3.92981 8.88143 3.82025C8.85686 3.6822 8.74132 3.61217 8.64437 3.52103Z" fill="#050505"/>
<path d="M8.305 3.8869C8.27545 3.77466 8.21436 3.74249 8.12172 3.68151C8.00751 3.60545 7.91421 3.50191 7.82789 3.39637C7.74256 3.29216 7.58519 3.42552 7.64761 3.53676C7.74887 3.71736 7.94609 4.07052 8.18481 4.04606C8.26449 4.03802 8.32724 3.97201 8.305 3.8869Z" fill="#050505"/>
<path d="M16.3382 8.5718C14.1296 6.15162 11.525 4.15832 9.54546 1.51967C9.44984 1.39235 9.23967 1.50393 9.32666 1.64867C11.0292 4.49841 13.7923 6.49272 16.047 8.86565C16.2316 9.05965 16.5175 8.76815 16.3382 8.5718Z" fill="#050505"/>
<path d="M12.9038 4.39887C12.58 3.79542 11.9635 3.29249 11.5192 2.77247C11.0053 2.17102 10.5202 1.54545 10.0149 0.936975C9.93319 0.838466 9.77515 0.966128 9.84056 1.07234C10.2569 1.7465 10.7191 2.3925 11.1962 3.02376C11.6089 3.56892 12.0614 4.30003 12.6627 4.64213C12.8194 4.73092 12.9878 4.55502 12.9038 4.39887Z" fill="#050505"/>
<path d="M14.4324 3.86579C13.8268 3.22816 13.1468 2.66927 12.5505 2.01623C11.9621 1.37223 11.4502 0.660549 10.8598 0.0209089C10.8061 -0.0370575 10.7187 0.0369907 10.7539 0.103334C11.2002 0.942003 11.7975 1.94251 12.501 2.79559C12.3712 2.6696 12.244 2.54462 12.1265 2.41797C11.5435 1.79006 10.9754 1.14639 10.4614 0.459508C10.3854 0.357649 10.2151 0.449124 10.2871 0.562376C10.7174 1.23887 11.1889 1.88756 11.6952 2.50843C12.1577 3.07503 12.662 3.81251 13.2896 4.19851C13.439 4.29031 13.6169 4.10837 13.5276 3.95793C13.4695 3.86009 13.4018 3.76594 13.3311 3.67379C13.5867 3.90398 13.8517 4.10569 14.1252 4.26753C14.3772 4.4163 14.6306 4.07453 14.4324 3.86579Z" fill="#050505"/>
</svg>
