<svg width="250" height="250" viewBox="0 0 250 250" fill="none" xmlns="http://www.w3.org/2000/svg">
<rect width="250" height="250" rx="125" fill="#172E26"/>
<rect width="250" height="250" rx="125" fill="#172E26"/>
<path d="M124.263 46.0003C122.716 46.0611 122.544 49.7806 122.716 50.41C122.888 51.0414 121.857 51.6708 121.8 52.8747C121.742 54.0766 121.8 54.7649 121.8 54.7649C121.8 54.7649 118.82 52.0159 117.847 53.906C116.873 55.7962 118.133 57.457 118.133 57.457C118.133 57.457 117.732 59.004 118.018 60.1491C118.305 61.2961 118.649 61.1236 118.935 61.8118C119.222 62.4981 119.279 63.3 118.419 63.3C117.56 63.3 116.128 62.5569 115.326 63.3C114.524 64.0451 113.722 63.9314 113.578 65.1334C113.435 66.3373 112.748 66.8235 111.745 66.8804C110.743 66.9392 110.399 67.5686 110.456 68.2274C110.513 68.8862 112.203 69.1725 113.578 69.0019C114.953 68.8294 116.873 69.0019 117.159 69.5745C117.445 70.147 118.076 70.9489 116.557 71.1489C115.039 71.3489 113.836 71.4646 113.55 71.7509C113.263 72.0372 111.86 72.7529 110.599 73.1823C109.339 73.6117 109.253 74.6724 109.282 75.1881C109.31 75.7038 108.68 75.7332 108.938 76.5058C109.196 77.2783 108.995 77.4234 108.021 78.1665C107.047 78.9116 104.641 79.2567 104.154 79.9429C103.667 80.6312 102.178 80.9174 102.292 81.8625C102.407 82.8076 103.667 82.6076 104.527 82.8076C105.386 83.0076 104.698 83.3802 104.355 83.4664C104.011 83.5527 102.321 84.1546 101.061 84.8409C99.8002 85.5291 97.1935 85.4997 97.1935 85.4997C97.1935 85.4997 99.3133 86.9036 103.782 86.2742C108.25 85.6429 113.808 83.3233 113.808 83.3233C113.808 83.3233 108.394 87.2193 105.873 88.4781C103.352 89.7389 102.034 90.3977 101.891 90.9428C100.001 90.8271 98.4827 90.8565 98.2535 91.3153C98.0243 91.7722 99.4278 93.5212 103.209 93.4055C100.86 96.4701 96.1625 98.7917 96.1625 98.7917C96.1625 98.7917 101.204 100.882 108.05 94.4369C106.675 96.4702 107.133 97.2446 105.902 98.5329C104.67 99.8211 103.639 101.398 102.436 101.627C101.233 101.856 99.4278 102.945 99.1415 103.947C98.8551 104.948 98.6831 107.041 97.7664 107.527C96.8497 108.015 96.3056 107.727 95.5036 108.758C94.7015 109.79 92.9828 110.135 92.5816 110.793C92.1807 111.452 93.2693 112.627 95.5323 112.225C97.795 111.825 100.402 110.135 101.147 110.421C101.891 110.707 100.029 111.558 99.3992 112.307C98.7692 113.056 99.5998 113.286 98.4827 113.829C97.3654 114.374 96.764 115.433 94.7015 115.978C92.6391 116.521 92.4385 117.095 91.4646 117.668C90.4906 118.24 88.944 118.154 88.371 118.67C87.7981 119.186 87.9126 120.417 89.2591 120.617C90.6054 120.819 92.4385 120.417 94.5009 120.617C96.5635 120.819 97.4513 120.417 98.8837 120.101C100.316 119.787 101.949 118.956 103.581 118.24C105.214 117.525 105.816 117.552 106.933 116.437C108.05 115.319 110.227 113.429 110.227 113.429C110.227 113.429 108.394 116.121 107.277 117.609C106.159 119.099 103.524 121.276 101.548 122.28C99.5711 123.282 98.4827 124.313 96.7066 124.772C94.9307 125.229 93.6989 126.26 93.0687 127.923C92.4385 129.583 86.5379 132.448 84.5039 132.305C82.4702 132.162 81.3817 132.648 81.3531 133.107C81.3243 133.566 81.7541 134.94 84.2749 134.997C86.7955 135.054 87.4543 135.513 87.4543 135.513C87.4543 135.513 85.392 136.717 85.4778 137.519C85.5637 138.321 88.4855 137.919 89.6028 137.889C90.7199 137.862 92.9256 137.03 94.014 137.03C95.1025 137.03 96.5062 136.917 96.5062 136.917C96.5062 136.917 96.1052 137.775 96.7352 138.205C97.3654 138.634 94.8446 142.301 93.9281 142.644C93.0115 142.989 91.9803 143.332 91.4646 144.393C90.9491 145.452 85.0482 147.744 84.4753 148.06C83.9023 148.373 81.8686 148.832 81.926 149.52C81.9833 150.207 82.3843 151.209 85.9649 150.922C85.8788 151.754 86.6237 152.126 87.9987 151.926C89.3736 151.726 89.7173 152.326 89.7173 153.014C89.7173 153.701 90.7485 153.96 92.0089 153.701C93.2693 153.444 95.6754 153.244 95.6754 153.244C95.6754 153.244 94.2146 154.561 91.8944 155.134C89.5742 155.707 86.7955 158.542 84.9051 158.771C88.6002 159.603 97.795 156.824 97.795 156.824C97.795 156.824 89.5742 160.977 86.8816 161.32C84.1888 161.665 77.3429 162.038 74.5356 161.608C71.7283 161.177 69.7232 162.867 68.3769 162.867C67.0306 162.867 67.1165 163.812 69.4653 164.414C71.8144 165.016 74.822 166.191 76.3401 166.906C77.8584 167.622 86.9102 166.591 86.9102 166.591C86.9102 166.591 81.926 169.312 80.4937 170.373C79.0615 171.432 78.775 172.463 80.2072 172.377C81.6396 172.291 81.4103 172.893 82.7853 172.893C84.1602 172.893 86.1653 171.748 87.6836 172.12C89.2018 172.493 90.863 171.202 91.8371 171.202C92.8109 171.202 92.2093 171.891 94.7587 171.891C97.3082 171.891 98.6545 171.318 99.7143 170.83C100.774 170.344 103.095 170.773 104.813 170.2C106.532 169.628 110.055 166.734 110.055 166.734C110.055 166.734 105.586 171.748 104.097 172.606C102.607 173.465 101.634 173.114 100.967 173.265C100.302 173.416 98.4325 175.155 97.1864 175.671C95.9403 176.187 92.7179 176.659 91.9875 177.304C91.2569 177.949 89.6028 178.508 88.7649 178.851C87.9271 179.194 87.9698 179.947 86.1437 180.053C84.3176 180.161 83.5443 179.689 82.4915 181.106C81.439 182.524 78.7321 181.945 78.1735 182.44C77.6148 182.934 74.9295 182.073 74.4567 182.502C73.9842 182.934 75.3591 184.63 77.1423 184.994C78.9252 185.361 79.2262 186.692 82.2553 185.812C85.2845 184.932 84.2104 186.683 86.7026 186.108C89.1946 185.532 91.2356 185.553 91.2356 185.553C91.2356 185.553 89.0228 188.518 87.4114 188.583C85.8 188.647 83.8235 188.69 83.6304 189.636C83.437 190.581 85.6282 191.634 87.3898 191.118C89.1516 190.602 89.9036 190.065 90.9132 190.624C91.923 191.183 94.3077 191.998 96.9072 191.355C99.5066 190.71 99.4423 191.075 101.225 189.892C103.009 188.712 108.938 186.155 115.039 178.293C111.731 184.91 108.981 188.518 104.255 190.883C105.071 190.939 107.047 190.567 107.047 190.567C107.047 190.567 105.443 192.428 106.532 193.23C107.62 194.032 109.683 192.114 111.172 190.996C112.662 189.879 114.696 187.473 114.696 187.473C114.696 187.473 114.352 189.908 113.893 191.083C113.435 192.257 114.409 192.916 115.899 192.514C117.388 192.114 121.198 188.647 121.198 188.647L120.711 204L130.679 203.829C130.679 203.829 131.023 200.392 130.565 197.584C130.106 194.777 129.763 188.59 129.763 188.59C129.763 188.59 134.002 192.543 136.58 192.084C139.158 191.626 136.695 189.851 136.408 187.216C139.044 190.367 140.705 190.653 141.45 191.569C142.195 192.486 144.2 193.173 144.887 192.657C145.575 192.141 143.913 189.965 143.913 189.965L147.293 190.71C147.293 190.71 143.054 188.132 141.335 186.298C139.616 184.465 135.721 177.591 135.721 177.591C135.721 177.591 139.215 182.461 143.455 185.096C147.694 187.732 149.757 189.622 153.08 190.367C156.402 191.11 158.465 190.424 159.897 189.965C161.329 189.506 161.501 189.536 163.134 190.022C164.767 190.51 167.316 190.022 167.23 188.734C167.144 187.443 165.397 187.645 163.793 187.616C162.189 187.588 160.126 184.724 160.126 184.724C160.126 184.724 162.389 184.751 163.879 185.21C165.368 185.669 165.053 184.894 167.03 184.894C169.006 184.894 169.751 185.439 171.154 184.808C172.558 184.179 176.769 182.977 176.483 181.802C176.196 180.628 175.165 181.83 173.303 181.743C171.441 181.657 169.98 180.342 168.834 180.628C168.233 179.338 166.629 178.249 165.282 178.851C163.936 179.453 162.876 178.822 160.613 177.191C158.35 175.557 157.033 176.13 155.744 175.471C154.455 174.812 152.535 173.781 150.272 172.893C148.01 172.004 148.124 172.979 146.921 172.463C145.718 171.948 142.195 168.653 140.791 166.677C145.317 170.144 150.101 169.628 151.705 170.4C153.309 171.175 154.626 171.834 157.119 171.059C159.611 170.287 159.467 170.716 161.129 171.059C162.79 171.404 164.366 171.575 166.371 171.804C168.376 172.034 170.839 171.718 171.212 170.773C171.584 169.828 163.879 165.904 163.879 165.904C163.879 165.904 169.063 166.906 172.243 166.075C175.423 165.246 182.44 163.01 182.498 162.208C182.555 161.406 181.438 161.034 177.743 160.72C174.048 160.405 164.881 161.177 163.019 160.72C161.157 160.261 151.647 155.736 151.647 155.736C151.647 155.736 161.616 158.628 166.4 158.056C162.819 156.565 158.809 154.103 157.548 153.989C156.288 153.873 155.085 152.699 155.085 152.699C155.085 152.699 158.465 153.187 159.582 153.158C160.699 153.128 159.697 151.64 160.986 151.238C162.275 150.838 163.334 151.524 164.079 150.922C164.824 150.322 163.793 150.12 164.251 149.92C164.709 149.72 168.147 150.293 168.118 148.832C168.09 147.371 161.902 145.854 159.095 143.962C156.288 142.071 157.205 141.728 155.457 141.785C153.71 141.844 151.819 137.373 151.819 137.373C151.819 137.373 156.374 137.203 159.467 137.519C162.561 137.832 167.288 137.26 167.03 135.942C166.772 134.625 162.275 135.513 162.017 134.138C161.759 132.762 163.764 133.566 164.337 132.991C164.91 132.419 163.478 130.672 161.759 130.615C160.04 130.558 159.439 130.528 158.407 130.07C157.376 129.611 157.505 128.968 156.589 128.868C155.672 128.768 155.285 128.881 155.199 128.538C155.114 128.193 155.772 126.403 155.185 125.658C154.598 124.915 153.724 125.458 153.337 125.258C152.951 125.058 151.848 122.852 147.465 121.334C143.083 119.815 137.898 111.939 137.182 110.335C140.762 113.486 140.648 113.14 141.478 114.288C142.309 115.433 144.2 116.235 145.288 117.066C146.377 117.897 148.153 119.615 149.356 119.644C150.559 119.672 151.418 119.242 152.507 119.529C153.595 119.815 154.397 119.386 155.629 119.558C156.861 119.729 157.233 120.044 158.236 119.644C159.238 119.242 160.155 119.529 160.241 118.87C160.327 118.211 159.382 117.638 158.35 117.152C157.319 116.664 157.176 116.005 156.087 115.489C154.999 114.974 154.798 115.433 153.137 114.431C151.475 113.429 151.189 113.686 150.817 113.429C150.444 113.17 149.184 111.366 148.325 110.764C147.465 110.162 148.525 109.646 149.384 110.192C150.244 110.735 151.619 111.337 152.765 111.366C153.91 111.393 156.66 111.509 156.861 110.535C157.061 109.56 154.999 109.676 154.082 108.501C153.166 107.327 153.423 107.441 152.306 107.27C151.189 107.097 150.53 105.55 150.387 104.978C150.244 104.405 150.158 102.515 149.184 101.884C148.21 101.254 146.062 101.111 144.572 100.452C143.083 99.7936 140.275 98.3603 139.645 97.6172C140.863 97.4309 139.831 95.2388 139.38 94.8525C142.495 96.9584 146.319 98.4623 147.974 98.5682C149.628 98.676 151.733 98.225 151.733 98.225C151.733 98.225 146.255 95.5407 144.536 93.3271C146.126 92.8761 147.651 93.478 148.532 92.682C149.413 91.8879 149.993 92.5114 150.187 91.5016C150.38 90.4918 148.446 90.5349 147.286 90.7055C145.997 89.4173 142.431 87.4193 139.939 86.4095C137.447 85.3997 135.191 83.0155 135.191 83.0155C135.191 83.0155 136.716 82.6704 137.619 83.3802C138.521 84.0899 142.904 85.2919 143.677 83.939C144.45 82.586 142.259 82.7135 140.669 78.9331C139.08 75.1528 136.236 71.0352 131.653 71.6078C127.07 72.1803 120.883 76.0195 120.883 76.0195C120.883 76.0195 128.159 69.7744 131.711 68.9156C135.263 68.0549 136.638 69.7176 137.955 68.2843C139.273 66.8529 136.867 66.8529 135.492 65.7079C134.117 64.5608 134.518 64.6177 135.492 63.702C136.466 62.7863 136.695 60.6648 134.919 60.7236C133.143 60.7805 129.362 63.3588 128.33 65.649C129.419 61.8687 130.393 57.3432 129.476 57.2276C128.56 57.1138 127.528 57.4001 127.528 57.4001C127.528 57.4001 127.758 56.3335 127.156 55.5158C128.832 53.6257 128.961 49.1787 127.865 48.6198C126.769 48.063 125.201 50.812 125.201 50.812C125.201 50.812 125.344 45.9571 124.263 46.0003Z" fill="#D19E7B"/>
<rect width="250" height="250" rx="125" fill="#050505" fill-opacity="0.15"/>
</svg>
