<svg width="533" height="55" viewBox="0 0 533 55" fill="none" xmlns="http://www.w3.org/2000/svg">
<path d="M0 11.1784L30.472 9.25189L30.7407 13.64L0.268712 15.6735L0 11.1784ZM3.11707 17.707H8.00763V48.7449H3.11707V17.707ZM10.426 27.0719L27.7311 25.8946L28.1073 30.3362L10.7485 31.6741L10.426 27.0719Z" fill="#D19E7B"/>
<path d="M35.8425 18.6703L40.733 17.9211L43.8501 43.8216L60.8327 43.447L62.1226 14.6032L34.9826 14.6568L35.1976 10.2151L67.2818 10.1616L65.5083 47.7281L39.4432 48.4238L35.8425 18.6703Z" fill="#D19E7B"/>
<path d="M99.9787 15.7805L74.8272 13.2654L75.5796 8.82378L104.923 11.767L106.697 16.0481L89.6064 29.9616L107.718 44.9454L103.956 48.7449L82.6736 29.6405L99.9787 15.7805ZM75.8483 16.5297L80.7389 16.4227L81.8675 48.7449L76.9769 48.8519L75.8483 16.5297Z" fill="#D19E7B"/>
<path d="M110.149 10.6432L141.158 8.71675L141.427 13.1584L110.418 15.1384L110.149 10.6432ZM113.642 17.4395H118.533L118.425 43.8751L141.481 40.8784L141.965 45.427L113.427 48.9054L113.642 17.4395ZM121.113 25.2524L136.429 24.1822L136.752 28.6238L121.435 29.8546L121.113 25.2524Z" fill="#D19E7B"/>
<path d="M146.529 44.0357L169.853 40.9319L169.531 34.1357L145.615 17.6535L147.389 13.64L175.174 8.55621L175.926 13.2119L152.817 17.2254L174.368 31.567L174.851 44.9454L147.228 48.5843L146.529 44.0357Z" fill="#D19E7B"/>
<path d="M179.579 11.0713L212.738 9.14486L212.953 13.5865L179.901 15.5665L179.579 11.0713ZM193.713 17.3324L198.604 17.0649L199.732 48.6378L194.842 48.9054L193.713 17.3324Z" fill="#D19E7B"/>
<path d="M237.114 18.6703L242.005 17.9211L245.122 43.8216L262.105 43.447L263.395 14.6032L236.255 14.6568L236.47 10.2151L268.554 10.1616L266.78 47.7281L240.715 48.4238L237.114 18.6703Z" fill="#D19E7B"/>
<path d="M274.433 11.1784L304.905 9.25189L305.174 13.64L274.702 15.6735L274.433 11.1784ZM277.55 17.707H282.441V48.7449H277.55V17.707ZM284.859 27.0719L302.164 25.8946L302.54 30.3362L285.182 31.6741L284.859 27.0719Z" fill="#D19E7B"/>
<path d="M356.796 28.8378L337.287 30.2292L336.965 25.627L356.796 24.3427L356.742 9.3054H361.686V48.7449H356.796V28.8378ZM329.656 9.3054H334.6L335.621 48.7449H330.73L329.656 9.3054Z" fill="#D19E7B"/>
<path d="M420.302 28.5703L438.091 16.0481L413.047 13.5865L413.799 9.14486L443.626 12.1416L445.292 16.4227L423.043 32.3162L420.302 28.5703ZM414.068 16.7438H419.012L420.087 48.7984H415.143L414.068 16.7438ZM421.699 44.0892L439.918 41.1459L439.703 35.9551L428.847 33.0654L430.298 28.5703L444.271 32.2092L444.755 44.9989L422.344 48.6378L421.699 44.0892Z" fill="#D19E7B"/>
<path d="M453.336 9.3054H458.281V48.7984H453.336V9.3054Z" fill="#D19E7B"/>
<path d="M464.215 11.0713L497.374 9.14486L497.589 13.5865L464.537 15.5665L464.215 11.0713ZM478.349 17.3324L483.24 17.0649L484.368 48.6378L479.478 48.9054L478.349 17.3324Z" fill="#D19E7B"/>
<path d="M502.961 44.0357L526.286 40.9319L525.963 34.1357L502.048 17.6535L503.821 13.64L531.606 8.55621L532.359 13.2119L509.249 17.2254L530.8 31.567L531.284 44.9454L503.66 48.5843L502.961 44.0357Z" fill="#D19E7B"/>
<path d="M388.294 9.94763e-05C387.752 0.0212583 387.692 1.31604 387.752 1.53514C387.812 1.75492 387.451 1.974 387.431 2.39308C387.41 2.81148 387.431 3.05106 387.431 3.05106C387.431 3.05106 386.386 2.09413 386.045 2.7521C385.704 3.41007 386.145 3.98819 386.145 3.98819C386.145 3.98819 386.005 4.52671 386.105 4.92532C386.206 5.3246 386.326 5.26454 386.427 5.50412C386.527 5.74301 386.547 6.02217 386.246 6.02217C385.945 6.02217 385.443 5.76348 385.162 6.02217C384.88 6.28153 384.599 6.24195 384.549 6.66035C384.499 7.07943 384.258 7.2487 383.907 7.26849C383.555 7.28897 383.435 7.50806 383.455 7.73739C383.475 7.96673 384.067 8.06638 384.549 8.007C385.031 7.94693 385.704 8.007 385.804 8.20631C385.904 8.40561 386.125 8.68476 385.593 8.75438C385.061 8.824 384.639 8.86428 384.539 8.96393C384.439 9.06358 383.947 9.3127 383.505 9.46218C383.063 9.61166 383.033 9.98091 383.043 10.1604C383.053 10.3399 382.832 10.3502 382.923 10.6191C383.013 10.888 382.943 10.9385 382.601 11.1972C382.26 11.4566 381.417 11.5767 381.246 11.8156C381.075 12.0552 380.553 12.1548 380.593 12.4838C380.634 12.8128 381.075 12.7432 381.377 12.8128C381.678 12.8824 381.437 13.0121 381.316 13.0421C381.196 13.0721 380.603 13.2817 380.162 13.5206C379.72 13.7601 378.806 13.7499 378.806 13.7499C378.806 13.7499 379.549 14.2386 381.115 14.0195C382.682 13.7997 384.629 12.9923 384.629 12.9923C384.629 12.9923 382.732 14.3485 381.848 14.7867C380.965 15.2256 380.503 15.4549 380.453 15.6446C379.79 15.6044 379.258 15.6146 379.178 15.7743C379.097 15.9334 379.589 16.5422 380.915 16.5019C380.091 17.5687 378.445 18.3769 378.445 18.3769C378.445 18.3769 380.212 19.1045 382.611 16.8609C382.129 17.5687 382.29 17.8383 381.858 18.2868C381.427 18.7352 381.065 19.284 380.644 19.3638C380.222 19.4437 379.589 19.8225 379.489 20.1713C379.389 20.52 379.328 21.2483 379.007 21.4176C378.686 21.5875 378.495 21.4872 378.214 21.8462C377.933 22.2052 377.33 22.3254 377.19 22.5547C377.049 22.784 377.431 23.1929 378.224 23.0529C379.017 22.9137 379.931 22.3254 380.192 22.425C380.453 22.5247 379.8 22.8209 379.579 23.0816C379.359 23.3423 379.65 23.4222 379.258 23.6113C378.867 23.801 378.656 24.1696 377.933 24.3593C377.21 24.5484 377.14 24.7484 376.798 24.9477C376.457 25.147 375.915 25.1169 375.714 25.2965C375.513 25.476 375.553 25.9046 376.025 25.9742C376.497 26.0445 377.14 25.9046 377.863 25.9742C378.585 26.0445 378.897 25.9046 379.399 25.7947C379.901 25.6855 380.473 25.3961 381.045 25.147C381.617 24.8979 381.828 24.9074 382.22 24.5191C382.611 24.13 383.374 23.472 383.374 23.472C383.374 23.472 382.732 24.4092 382.34 24.9272C381.949 25.4459 381.025 26.2036 380.332 26.553C379.64 26.9018 379.258 27.2608 378.636 27.4205C378.013 27.5796 377.581 27.9386 377.361 28.5174C377.14 29.0955 375.072 30.0927 374.359 30.0429C373.646 29.993 373.264 30.1623 373.254 30.322C373.244 30.4817 373.395 30.9602 374.278 30.98C375.162 30.9998 375.393 31.1595 375.393 31.1595C375.393 31.1595 374.67 31.5786 374.7 31.8577C374.73 32.1369 375.754 31.997 376.146 31.9867C376.537 31.9772 377.31 31.6878 377.692 31.6878C378.073 31.6878 378.565 31.6482 378.565 31.6482C378.565 31.6482 378.425 31.9472 378.646 32.0966C378.867 32.2461 377.983 33.5225 377.662 33.6419C377.34 33.762 376.979 33.8815 376.798 34.2507C376.618 34.6193 374.549 35.4172 374.349 35.5271C374.148 35.6363 373.435 35.796 373.455 36.0356C373.475 36.2745 373.616 36.6232 374.871 36.5236C374.841 36.813 375.102 36.9427 375.584 36.8731C376.065 36.8034 376.186 37.0123 376.186 37.2519C376.186 37.4908 376.547 37.5809 376.989 37.4908C377.431 37.4013 378.274 37.3317 378.274 37.3317C378.274 37.3317 377.762 37.7904 376.949 37.9897C376.136 38.189 375.162 39.176 374.499 39.2558C375.794 39.5452 379.017 38.578 379.017 38.578C379.017 38.578 376.136 40.0237 375.192 40.1431C374.248 40.2632 371.849 40.3929 370.865 40.2434C369.881 40.0933 369.178 40.6816 368.706 40.6816C368.234 40.6816 368.264 41.0106 369.088 41.2202C369.911 41.4297 370.965 41.8386 371.497 42.0877C372.029 42.3368 375.202 41.9778 375.202 41.9778C375.202 41.9778 373.455 42.9252 372.953 43.2944C372.451 43.663 372.351 44.022 372.853 43.992C373.355 43.9619 373.274 44.1715 373.756 44.1715C374.238 44.1715 374.941 43.7729 375.473 43.9026C376.005 44.0322 376.587 43.5831 376.929 43.5831C377.27 43.5831 377.059 43.8227 377.953 43.8227C378.846 43.8227 379.318 43.6234 379.69 43.4534C380.061 43.2842 380.875 43.4337 381.477 43.2343C382.079 43.035 383.314 42.0276 383.314 42.0276C383.314 42.0276 381.748 43.7729 381.226 44.0718C380.704 44.3708 380.362 44.2486 380.129 44.3012C379.896 44.3537 379.241 44.9591 378.804 45.1386C378.367 45.3181 377.238 45.4826 376.982 45.7072C376.726 45.9318 376.146 46.1263 375.852 46.2457C375.558 46.3652 375.573 46.6273 374.933 46.6641C374.293 46.7017 374.022 46.5372 373.653 47.0306C373.284 47.5241 372.336 47.3228 372.14 47.4948C371.944 47.6668 371.003 47.3671 370.837 47.5166C370.672 47.6668 371.153 48.2572 371.778 48.3841C372.403 48.5118 372.509 48.9752 373.57 48.6687C374.632 48.3623 374.256 48.9718 375.129 48.7718C376.003 48.5711 376.718 48.5786 376.718 48.5786C376.718 48.5786 375.942 49.6106 375.378 49.6332C374.813 49.6557 374.12 49.6707 374.052 49.9997C373.985 50.3287 374.753 50.6952 375.37 50.5157C375.988 50.3362 376.251 50.1492 376.605 50.3437C376.959 50.5382 377.795 50.8222 378.706 50.5983C379.617 50.3737 379.594 50.5007 380.219 50.0891C380.844 49.6782 382.923 48.7882 385.061 46.0512C383.902 48.3548 382.938 49.6107 381.281 50.4338C381.567 50.4536 382.26 50.3239 382.26 50.3239C382.26 50.3239 381.698 50.9716 382.079 51.2508C382.461 51.53 383.184 50.8624 383.706 50.4734C384.228 50.0843 384.941 49.2469 384.941 49.2469C384.941 49.2469 384.82 50.0946 384.659 50.5034C384.499 50.9123 384.84 51.1416 385.362 51.0017C385.884 50.8624 387.22 49.6557 387.22 49.6557L387.049 55L390.543 54.9406C390.543 54.9406 390.663 53.7441 390.503 52.7667C390.342 51.7893 390.222 49.6359 390.222 49.6359C390.222 49.6359 391.708 51.0119 392.611 50.8522C393.515 50.6925 392.651 50.0748 392.551 49.1574C393.475 50.2543 394.057 50.3539 394.318 50.6727C394.579 50.9921 395.282 51.231 395.523 51.0515C395.764 50.872 395.181 50.1144 395.181 50.1144L396.366 50.3737C396.366 50.3737 394.88 49.4762 394.278 48.838C393.675 48.1998 392.31 45.8068 392.31 45.8068C392.31 45.8068 393.535 47.5023 395.021 48.4196C396.507 49.337 397.229 49.9949 398.394 50.2543C399.559 50.513 400.282 50.2741 400.784 50.1144C401.286 49.9547 401.346 49.9649 401.918 50.1342C402.49 50.3041 403.384 50.1342 403.354 49.6857C403.324 49.2366 402.711 49.3069 402.149 49.2967C401.587 49.2871 400.864 48.2899 400.864 48.2899C400.864 48.2899 401.657 48.2995 402.179 48.4592C402.701 48.6189 402.591 48.3493 403.284 48.3493C403.976 48.3493 404.237 48.5391 404.729 48.3193C405.221 48.1002 406.697 47.6818 406.597 47.2729C406.496 46.8641 406.135 47.2825 405.482 47.2525C404.83 47.2224 404.318 46.7645 403.916 46.8641C403.705 46.415 403.143 46.0362 402.671 46.2457C402.199 46.4553 401.828 46.2355 401.035 45.6676C400.241 45.0991 399.78 45.2984 399.328 45.069C398.876 44.8397 398.203 44.4807 397.41 44.1715C396.617 43.8623 396.657 44.2015 396.235 44.022C395.814 43.8425 394.579 42.6958 394.087 42.0078C395.673 43.2146 397.35 43.035 397.912 43.304C398.474 43.5736 398.936 43.8029 399.81 43.5333C400.683 43.2644 400.633 43.4139 401.215 43.5333C401.798 43.6534 402.35 43.7128 403.053 43.7927C403.755 43.8725 404.619 43.7626 404.749 43.4336C404.88 43.1047 402.179 41.7389 402.179 41.7389C402.179 41.7389 403.996 42.0877 405.111 41.7983C406.225 41.5096 408.685 40.7315 408.705 40.4523C408.725 40.1732 408.334 40.0435 407.038 39.9343C405.743 39.8244 402.53 40.0933 401.878 39.9343C401.225 39.7745 397.892 38.1992 397.892 38.1992C397.892 38.1992 401.386 39.206 403.063 39.0067C401.808 38.488 400.402 37.6307 399.96 37.5911C399.519 37.5508 399.097 37.142 399.097 37.142C399.097 37.142 400.282 37.3119 400.673 37.3017C401.065 37.2915 400.713 36.7734 401.165 36.6335C401.617 36.4942 401.988 36.7331 402.249 36.5236C402.51 36.3147 402.149 36.2444 402.31 36.1748C402.47 36.1052 403.675 36.3045 403.665 35.796C403.655 35.2875 401.486 34.7592 400.502 34.1006C399.519 33.4426 399.84 33.3232 399.227 33.3429C398.615 33.3634 397.952 31.8072 397.952 31.8072C397.952 31.8072 399.549 31.7479 400.633 31.8577C401.717 31.9669 403.374 31.7676 403.284 31.309C403.193 30.8503 401.617 31.1595 401.527 30.681C401.436 30.2019 402.139 30.4817 402.34 30.2817C402.541 30.0824 402.039 29.4743 401.436 29.4545C400.834 29.4347 400.623 29.4245 400.261 29.2648C399.9 29.105 399.945 28.8812 399.624 28.8464C399.303 28.8116 399.167 28.8511 399.137 28.7317C399.107 28.6116 399.338 27.9884 399.132 27.729C398.926 27.4704 398.62 27.6594 398.484 27.5898C398.349 27.5202 397.962 26.7523 396.426 26.224C394.89 25.6951 393.073 22.9533 392.822 22.395C394.077 23.4918 394.037 23.3717 394.328 23.771C394.619 24.1696 395.282 24.4487 395.663 24.7381C396.045 25.0275 396.667 25.6255 397.089 25.6357C397.511 25.6452 397.812 25.4958 398.193 25.5954C398.575 25.6951 398.856 25.5456 399.288 25.6057C399.719 25.665 399.85 25.7749 400.201 25.6357C400.553 25.4958 400.874 25.5954 400.904 25.3661C400.934 25.1368 400.603 24.9375 400.241 24.7682C399.88 24.5982 399.83 24.3689 399.448 24.1894C399.067 24.0099 398.996 24.1696 398.414 23.8208C397.832 23.472 397.731 23.5614 397.601 23.472C397.47 23.3819 397.029 22.754 396.727 22.5445C396.426 22.3349 396.798 22.1554 397.099 22.3452C397.4 22.5342 397.882 22.7438 398.284 22.754C398.685 22.7635 399.649 22.8038 399.719 22.4646C399.79 22.1254 399.067 22.1656 398.745 21.7568C398.424 21.348 398.514 21.3876 398.123 21.3282C397.731 21.2681 397.501 20.7296 397.45 20.5303C397.4 20.331 397.37 19.673 397.029 19.4532C396.687 19.2341 395.934 19.1843 395.412 18.955C394.89 18.7256 393.906 18.2267 393.685 17.968C394.112 17.9032 393.751 17.1401 393.592 17.0056C394.684 17.7387 396.025 18.2622 396.605 18.299C397.184 18.3366 397.922 18.1796 397.922 18.1796C397.922 18.1796 396.002 17.2452 395.4 16.4746C395.957 16.3176 396.492 16.5272 396.8 16.2501C397.109 15.9736 397.312 16.1907 397.38 15.8392C397.448 15.4877 396.77 15.5027 396.363 15.5621C395.912 15.1136 394.662 14.4181 393.788 14.0666C392.915 13.7151 392.124 12.8851 392.124 12.8851C392.124 12.8851 392.659 12.765 392.975 13.0121C393.291 13.2592 394.827 13.6776 395.098 13.2066C395.37 12.7356 394.602 12.78 394.044 11.4641C393.487 10.1481 392.491 8.71479 390.884 8.9141C389.278 9.1134 387.109 10.4498 387.109 10.4498C387.109 10.4498 389.659 8.27591 390.904 7.97696C392.149 7.67732 392.631 8.25612 393.093 7.75719C393.555 7.25893 392.712 7.25893 392.23 6.86033C391.748 6.46104 391.888 6.48084 392.23 6.16209C392.571 5.84334 392.651 5.10483 392.029 5.1253C391.406 5.1451 390.081 6.04264 389.72 6.83985C390.101 5.52391 390.442 3.94859 390.121 3.90832C389.8 3.86874 389.438 3.9684 389.438 3.9684C389.438 3.9684 389.519 3.59709 389.308 3.31247C389.895 2.6545 389.94 1.1065 389.556 0.911972C389.172 0.71813 388.623 1.67506 388.623 1.67506C388.623 1.67506 388.673 -0.0149164 388.294 9.94763e-05Z" fill="#D19E7B"/>
</svg>