<svg width="27" height="46" viewBox="0 0 27 46" fill="none" xmlns="http://www.w3.org/2000/svg">
<path d="M26.9476 38.8282C24.2777 32.1462 22.2467 25.2542 19.8524 18.4378C18.6481 15.0087 17.1921 11.6624 16.1256 8.17558C15.5392 6.26017 15.1077 4.30475 14.3425 2.50714C14.3225 2.44713 14.3077 2.38545 14.2872 2.326C14.2457 2.20764 14.1899 2.11705 14.1275 2.04259C13.9315 1.62473 13.7222 1.21299 13.4777 0.816788C13.1711 0.321129 12.6314 0.432255 12.4364 0.975147C10.2514 7.07423 7.99254 13.07 6.2905 19.3841C4.46546 26.1561 2.5913 32.9292 0.0344352 39.3845C-0.0323113 39.5523 0.00488073 39.7117 0.0868836 39.8212C0.0411146 40.0185 0.100702 40.2374 0.317628 40.2791C2.18558 40.6414 4.02254 40.3108 5.88858 40.0785C7.57155 39.8696 9.28933 39.814 10.9995 39.7818C11.0376 41.4855 11.0305 43.2442 11.256 44.9184C11.3022 45.2607 11.6331 45.4946 11.9077 45.4969C13.0772 45.5063 14.2438 45.4991 15.4114 45.4085C15.7871 45.3791 16.1003 45.0651 16.1013 44.6045C16.1037 43.4248 16.0174 42.2445 16.0202 41.0676C16.0212 40.7636 16.0217 40.4591 16.0226 40.1546C16.0231 40.0118 16.0226 39.8712 16.0107 39.7306C17.8906 39.7551 19.7704 39.8373 21.6489 39.9162C22.8984 39.9696 24.7917 40.4547 26.0632 40.0101C26.1957 40.0157 26.3197 39.9546 26.4208 39.849C26.7874 39.8562 27.1349 39.2972 26.9476 38.8282Z" fill="#0B9F4C"/>
</svg>
