<svg width="36" height="36" viewBox="0 0 36 36" fill="none" xmlns="http://www.w3.org/2000/svg">
<path d="M23.6959 18.75C23.7341 18.5252 23.7341 18.2626 23.7341 18C23.7341 17.7374 23.6959 17.5126 23.6959 17.25L25.3065 16.0126C25.4601 15.9001 25.4983 15.7127 25.3833 15.5251L23.8491 12.9375C23.7723 12.7873 23.5423 12.7127 23.3887 12.7873L21.471 13.5374C21.0874 13.2374 20.6274 12.9748 20.1671 12.7873L19.8986 10.7999C19.8604 10.6501 19.7068 10.5 19.515 10.5H16.4466C16.2548 10.5 16.1013 10.6501 16.0631 10.7999L15.7563 12.7873C15.2959 12.9748 14.8742 13.2374 14.452 13.5374L12.5343 12.7873C12.3425 12.7127 12.1507 12.7873 12.074 12.9375L10.5397 15.5252C10.4633 15.6749 10.5015 15.9001 10.6165 16.0126L12.2658 17.25C12.2658 17.5126 12.2276 17.7374 12.2276 18C12.2276 18.2626 12.2658 18.4874 12.2658 18.75L10.6552 19.9874C10.5016 20.0999 10.4635 20.2873 10.5784 20.4749L12.1126 23.0625C12.1894 23.2127 12.4194 23.2873 12.573 23.2127L14.4907 22.4626C14.8743 22.7626 15.3343 23.0252 15.7946 23.2127L16.1013 25.2001C16.1399 25.3876 16.2931 25.5 16.4849 25.5H19.5533C19.7451 25.5 19.8987 25.3499 19.9369 25.2001L20.244 23.2127C20.704 23.0252 21.1261 22.7626 21.5478 22.4626L23.4656 23.2127C23.6574 23.2873 23.8492 23.2127 23.926 23.0625L25.4602 20.4748C25.5369 20.3251 25.4984 20.0999 25.3834 19.9874L23.6959 18.75ZM17.9808 20.625C16.4848 20.625 15.296 19.4627 15.296 18C15.296 16.5373 16.4848 15.375 17.9808 15.375C19.4768 15.375 20.6657 16.5373 20.6657 18C20.6657 19.4627 19.4768 20.625 17.9808 20.625Z" fill="currentColor"/>
</svg>
