<svg width="20" height="25" viewBox="0 0 20 25" fill="none" xmlns="http://www.w3.org/2000/svg">
<path fill-rule="evenodd" clip-rule="evenodd" d="M15.6311 6.575C15.6311 10.4095 13.2177 13.7 9.99999 13.7C6.78223 13.7 4.36892 10.4095 4.36892 6.575C4.36892 2.74056 6.44576 0.5 9.99999 0.5C13.5542 0.5 15.6311 2.74056 15.6311 6.575ZM0.116929 22.2715C0.599173 22.8208 2.67284 24.5 9.99999 24.5C17.3271 24.5 19.4009 22.8208 19.883 22.2715C19.9769 22.1647 20.0114 22.0304 19.9968 21.8914C19.8854 20.8324 18.8906 16.1 9.99999 16.1C1.10942 16.1 0.114563 20.8324 0.00323126 21.8914C-0.0113845 22.0304 0.0230775 22.1647 0.116929 22.2715Z" fill="#D19E7B"/>
</svg>
